<svg width="300" height="200" viewBox="0 0 300 200" fill="none" xmlns="http://www.w3.org/2000/svg">
<path d="M6.07813 146V147H7.07813H99.2781H100.278V146V120.6V119.6H99.2781H70.6781V5.00004V4.00004H69.6781H47.6781H47.4082L47.175 4.13585L2.17498 30.3359L1.34969 30.8164L1.79169 31.6629L13.5917 54.2629L14.0783 55.1949L14.9848 54.6622L37.6781 41.3269V119.6H7.07813H6.07813V120.6V146ZM137.604 140.403L137.611 140.408C145.676 146.286 155.491 149.2 167 149.2C178.639 149.2 188.459 146.287 196.396 140.403C204.312 134.534 210.282 126.096 214.336 115.152C218.523 104.075 220.6 90.682 220.6 75C220.6 59.1893 218.591 45.8617 214.536 35.0489C210.48 24.2322 204.438 15.9872 196.378 10.3841C188.444 4.6414 178.63 1.80005 167 1.80005C155.498 1.80005 145.688 4.64372 137.625 10.3817C129.562 15.9866 123.519 24.3012 119.463 35.2506C115.409 46.0623 113.4 59.3222 113.4 75C113.4 90.8115 115.409 104.204 119.462 115.147L119.462 115.147L119.466 115.157C123.654 126.099 129.69 134.536 137.604 140.403ZM183.302 39.4407L183.306 39.4472L183.309 39.4537C186.929 46.5643 188.8 58.3612 188.8 75C188.8 91.6306 186.931 103.641 183.3 111.164C181.494 114.839 179.235 117.535 176.548 119.317C173.865 121.095 170.695 122 167 122C163.305 122 160.135 121.095 157.452 119.317C154.765 117.535 152.506 114.839 150.7 111.164C147.069 103.641 145.2 91.6306 145.2 75C145.2 58.3612 147.071 46.5643 150.691 39.4537C152.494 35.9125 154.751 33.3117 157.439 31.5925C160.123 29.8756 163.298 29 167 29C170.773 29 173.979 29.8773 176.661 31.5925C179.345 33.3091 181.567 35.9052 183.302 39.4407Z" stroke="#00605D" stroke-width="2"/>
<path d="M40.14 147V136.14L41.1 138.81L31.98 125.85H37.38L43.02 134.01H42.06L47.7 125.85H52.89L43.86 138.81L44.79 136.14V147H40.14ZM55.3448 147V125.85H69.8348V129.48H59.7848V134.43H69.1748V138.09H59.7848V143.37H69.8348V147H55.3448ZM70.7273 147L80.4473 125.85H84.1973L93.9173 147H89.2373L86.7173 141.12L88.5773 142.41H76.0673L77.9273 141.12L75.4373 147H70.7273ZM82.2773 130.8L78.4373 139.95L77.6273 138.78H87.0173L86.2073 139.95L82.3373 130.8H82.2773ZM95.7452 147V125.85H105.405C107.765 125.85 109.585 126.42 110.865 127.56C112.145 128.7 112.785 130.29 112.785 132.33C112.785 133.65 112.495 134.79 111.915 135.75C111.335 136.71 110.495 137.45 109.395 137.97C108.315 138.49 106.985 138.75 105.405 138.75L105.645 138.24H106.875C107.715 138.24 108.445 138.45 109.065 138.87C109.705 139.27 110.255 139.89 110.715 140.73L114.135 147H109.005L105.345 140.25C105.145 139.89 104.915 139.61 104.655 139.41C104.395 139.19 104.095 139.04 103.755 138.96C103.435 138.86 103.075 138.81 102.675 138.81H100.395V147H95.7452ZM100.395 135.45H104.565C105.805 135.45 106.735 135.2 107.355 134.7C107.995 134.2 108.315 133.45 108.315 132.45C108.315 131.47 107.995 130.73 107.355 130.23C106.735 129.73 105.805 129.48 104.565 129.48H100.395V135.45ZM124.106 147.33C123.006 147.33 121.936 147.23 120.896 147.03C119.876 146.85 118.926 146.59 118.046 146.25C117.166 145.89 116.396 145.47 115.736 144.99L117.086 141.33C117.726 141.77 118.416 142.15 119.156 142.47C119.896 142.79 120.686 143.04 121.526 143.22C122.366 143.38 123.226 143.46 124.106 143.46C125.566 143.46 126.606 143.24 127.226 142.8C127.846 142.34 128.156 141.77 128.156 141.09C128.156 140.71 128.056 140.38 127.856 140.1C127.676 139.82 127.366 139.58 126.926 139.38C126.506 139.16 125.926 138.98 125.186 138.84L121.796 138.12C119.876 137.72 118.446 137.04 117.506 136.08C116.586 135.1 116.126 133.82 116.126 132.24C116.126 130.88 116.486 129.7 117.206 128.7C117.946 127.7 118.956 126.92 120.236 126.36C121.536 125.8 123.026 125.52 124.706 125.52C125.686 125.52 126.626 125.62 127.526 125.82C128.426 126 129.256 126.27 130.016 126.63C130.776 126.99 131.436 127.42 131.996 127.92L130.646 131.34C129.846 130.7 128.946 130.22 127.946 129.9C126.946 129.56 125.856 129.39 124.676 129.39C123.836 129.39 123.116 129.5 122.516 129.72C121.936 129.94 121.486 130.25 121.166 130.65C120.866 131.05 120.716 131.51 120.716 132.03C120.716 132.61 120.926 133.08 121.346 133.44C121.766 133.8 122.496 134.09 123.536 134.31L126.926 135.03C128.886 135.45 130.346 136.13 131.306 137.07C132.266 137.99 132.746 139.21 132.746 140.73C132.746 142.05 132.386 143.21 131.666 144.21C130.966 145.19 129.966 145.96 128.666 146.52C127.386 147.06 125.866 147.33 124.106 147.33ZM153.924 147.33C152.364 147.33 150.934 147.07 149.634 146.55C148.354 146.03 147.254 145.29 146.334 144.33C145.414 143.37 144.704 142.22 144.204 140.88C143.724 139.54 143.484 138.05 143.484 136.41C143.484 134.75 143.724 133.26 144.204 131.94C144.704 130.6 145.414 129.46 146.334 128.52C147.254 127.56 148.354 126.82 149.634 126.3C150.934 125.78 152.364 125.52 153.924 125.52C155.504 125.52 156.934 125.78 158.214 126.3C159.494 126.82 160.594 127.55 161.514 128.49C162.434 129.43 163.144 130.57 163.644 131.91C164.144 133.25 164.394 134.74 164.394 136.38C164.394 138.04 164.144 139.54 163.644 140.88C163.144 142.22 162.434 143.37 161.514 144.33C160.594 145.29 159.494 146.03 158.214 146.55C156.934 147.07 155.504 147.33 153.924 147.33ZM153.924 143.37C155.124 143.37 156.134 143.1 156.954 142.56C157.774 142 158.404 141.2 158.844 140.16C159.304 139.1 159.534 137.85 159.534 136.41C159.534 134.95 159.314 133.7 158.874 132.66C158.434 131.62 157.794 130.83 156.954 130.29C156.114 129.75 155.104 129.48 153.924 129.48C152.764 129.48 151.764 129.75 150.924 130.29C150.084 130.83 149.444 131.62 149.004 132.66C148.564 133.7 148.344 134.95 148.344 136.41C148.344 137.85 148.564 139.1 149.004 140.16C149.444 141.2 150.084 142 150.924 142.56C151.764 143.1 152.764 143.37 153.924 143.37ZM167.991 147V125.85H182.271V129.48H172.641V134.64H181.611V138.27H172.641V147H167.991ZM199.36 147L191.83 125.85H196.6L202.09 142.17H200.8L206.59 125.85H209.95L215.5 142.17H214.39L219.97 125.85H224.47L216.88 147H213.1L207.79 131.97H208.51L203.14 147H199.36ZM236.307 147.33C234.747 147.33 233.317 147.07 232.017 146.55C230.737 146.03 229.637 145.29 228.717 144.33C227.797 143.37 227.087 142.22 226.587 140.88C226.107 139.54 225.867 138.05 225.867 136.41C225.867 134.75 226.107 133.26 226.587 131.94C227.087 130.6 227.797 129.46 228.717 128.52C229.637 127.56 230.737 126.82 232.017 126.3C233.317 125.78 234.747 125.52 236.307 125.52C237.887 125.52 239.317 125.78 240.597 126.3C241.877 126.82 242.977 127.55 243.897 128.49C244.817 129.43 245.527 130.57 246.027 131.91C246.527 133.25 246.777 134.74 246.777 136.38C246.777 138.04 246.527 139.54 246.027 140.88C245.527 142.22 244.817 143.37 243.897 144.33C242.977 145.29 241.877 146.03 240.597 146.55C239.317 147.07 237.887 147.33 236.307 147.33ZM236.307 143.37C237.507 143.37 238.517 143.1 239.337 142.56C240.157 142 240.787 141.2 241.227 140.16C241.687 139.1 241.917 137.85 241.917 136.41C241.917 134.95 241.697 133.7 241.257 132.66C240.817 131.62 240.177 130.83 239.337 130.29C238.497 129.75 237.487 129.48 236.307 129.48C235.147 129.48 234.147 129.75 233.307 130.29C232.467 130.83 231.827 131.62 231.387 132.66C230.947 133.7 230.727 134.95 230.727 136.41C230.727 137.85 230.947 139.1 231.387 140.16C231.827 141.2 232.467 142 233.307 142.56C234.147 143.1 235.147 143.37 236.307 143.37ZM250.374 147V125.85H260.034C262.394 125.85 264.214 126.42 265.494 127.56C266.774 128.7 267.414 130.29 267.414 132.33C267.414 133.65 267.124 134.79 266.544 135.75C265.964 136.71 265.124 137.45 264.024 137.97C262.944 138.49 261.614 138.75 260.034 138.75L260.274 138.24H261.504C262.344 138.24 263.074 138.45 263.694 138.87C264.334 139.27 264.884 139.89 265.344 140.73L268.764 147H263.634L259.974 140.25C259.774 139.89 259.544 139.61 259.284 139.41C259.024 139.19 258.724 139.04 258.384 138.96C258.064 138.86 257.704 138.81 257.304 138.81H255.024V147H250.374ZM255.024 135.45H259.194C260.434 135.45 261.364 135.2 261.984 134.7C262.624 134.2 262.944 133.45 262.944 132.45C262.944 131.47 262.624 130.73 261.984 130.23C261.364 129.73 260.434 129.48 259.194 129.48H255.024V135.45ZM271.263 147V125.85H275.913V135.06H275.973L284.763 125.85H290.343L279.543 136.95L279.573 134.94L290.763 147H285.123L275.973 137.34H275.913V147H271.263ZM35.13 188V166.85H49.62V170.48H39.57V175.43H48.96V179.09H39.57V184.37H49.62V188H35.13ZM50.6262 188L59.4762 176.24V178.31L50.8662 166.85H56.2662L62.1162 174.92H60.6162L66.4362 166.85H71.8662L63.2262 178.31V176.24L72.0762 188H66.6462L60.5862 179.63H62.1162L56.0862 188H50.6262ZM73.7433 188V166.85H83.4033C84.9833 166.85 86.3233 167.12 87.4233 167.66C88.5233 168.2 89.3533 168.97 89.9133 169.97C90.4933 170.97 90.7833 172.18 90.7833 173.6C90.7833 175.02 90.4933 176.24 89.9133 177.26C89.3533 178.26 88.5233 179.03 87.4233 179.57C86.3233 180.11 84.9833 180.38 83.4033 180.38H78.3933V188H73.7433ZM78.3933 176.78H82.6233C83.8233 176.78 84.7333 176.51 85.3533 175.97C85.9933 175.43 86.3133 174.64 86.3133 173.6C86.3133 172.56 85.9933 171.78 85.3533 171.26C84.7333 170.74 83.8233 170.48 82.6233 170.48H78.3933V176.78ZM93.6652 188V166.85H108.155V170.48H98.1052V175.43H107.495V179.09H98.1052V184.37H108.155V188H93.6652ZM111.829 188V166.85H121.489C123.849 166.85 125.669 167.42 126.949 168.56C128.229 169.7 128.869 171.29 128.869 173.33C128.869 174.65 128.579 175.79 127.999 176.75C127.419 177.71 126.579 178.45 125.479 178.97C124.399 179.49 123.069 179.75 121.489 179.75L121.729 179.24H122.959C123.799 179.24 124.529 179.45 125.149 179.87C125.789 180.27 126.339 180.89 126.799 181.73L130.219 188H125.089L121.429 181.25C121.229 180.89 120.999 180.61 120.739 180.41C120.479 180.19 120.179 180.04 119.839 179.96C119.519 179.86 119.159 179.81 118.759 179.81H116.479V188H111.829ZM116.479 176.45H120.649C121.889 176.45 122.819 176.2 123.439 175.7C124.079 175.2 124.399 174.45 124.399 173.45C124.399 172.47 124.079 171.73 123.439 171.23C122.819 170.73 121.889 170.48 120.649 170.48H116.479V176.45ZM132.718 188V166.85H137.368V188H132.718ZM141.595 188V166.85H156.085V170.48H146.035V175.43H155.425V179.09H146.035V184.37H156.085V188H141.595ZM159.759 188V166.85H163.209L174.579 181.34H173.769V166.85H178.089V188H174.669L163.299 173.48H164.079V188H159.759ZM192.607 188.33C190.327 188.33 188.377 187.88 186.757 186.98C185.137 186.08 183.887 184.82 183.007 183.2C182.147 181.56 181.717 179.63 181.717 177.41C181.717 175.19 182.147 173.27 183.007 171.65C183.887 170.03 185.137 168.77 186.757 167.87C188.377 166.97 190.327 166.52 192.607 166.52C194.007 166.52 195.347 166.74 196.627 167.18C197.907 167.62 198.957 168.22 199.777 168.98L198.337 172.67C197.437 171.97 196.527 171.46 195.607 171.14C194.707 170.8 193.757 170.63 192.757 170.63C190.757 170.63 189.237 171.22 188.197 172.4C187.157 173.56 186.637 175.23 186.637 177.41C186.637 179.59 187.157 181.27 188.197 182.45C189.237 183.63 190.757 184.22 192.757 184.22C193.757 184.22 194.707 184.06 195.607 183.74C196.527 183.4 197.437 182.88 198.337 182.18L199.777 185.87C198.957 186.63 197.907 187.23 196.627 187.67C195.347 188.11 194.007 188.33 192.607 188.33ZM202.825 188V166.85H217.315V170.48H207.265V175.43H216.655V179.09H207.265V184.37H217.315V188H202.825Z" fill="#00605D"/>
</svg>
