<svg width="342" height="216" viewBox="0 0 342 216" fill="none" xmlns="http://www.w3.org/2000/svg">
<path d="M6.07813 146V147H7.07813H99.2781H100.278V146V120.6V119.6H99.2781H70.6781V5.00004V4.00004H69.6781H47.6781H47.4082L47.175 4.13585L2.17498 30.3359L1.34969 30.8164L1.79169 31.6629L13.5917 54.2629L14.0783 55.1949L14.9848 54.6622L37.6781 41.3269V119.6H7.07813H6.07813V120.6V146ZM137.604 140.403L137.611 140.408C145.676 146.286 155.491 149.2 167 149.2C178.639 149.2 188.459 146.287 196.396 140.403C204.312 134.534 210.282 126.096 214.336 115.152C218.523 104.075 220.6 90.682 220.6 75C220.6 59.1893 218.591 45.8617 214.536 35.0489C210.48 24.2322 204.438 15.9872 196.378 10.3841C188.444 4.6414 178.63 1.80005 167 1.80005C155.498 1.80005 145.688 4.64372 137.625 10.3817C129.562 15.9866 123.519 24.3012 119.463 35.2506C115.409 46.0623 113.4 59.3222 113.4 75C113.4 90.8115 115.409 104.204 119.462 115.147L119.462 115.147L119.466 115.157C123.654 126.099 129.69 134.536 137.604 140.403ZM183.302 39.4407L183.306 39.4472L183.309 39.4537C186.929 46.5643 188.8 58.3612 188.8 75C188.8 91.6306 186.931 103.641 183.3 111.164C181.494 114.839 179.235 117.535 176.548 119.317C173.865 121.095 170.695 122 167 122C163.305 122 160.135 121.095 157.452 119.317C154.765 117.535 152.506 114.839 150.7 111.164C147.069 103.641 145.2 91.6306 145.2 75C145.2 58.3612 147.071 46.5643 150.691 39.4537C152.494 35.9125 154.751 33.3117 157.439 31.5925C160.123 29.8756 163.298 29 167 29C170.773 29 173.979 29.8773 176.661 31.5925C179.345 33.3091 181.567 35.9052 183.302 39.4407Z" stroke="#00605D" stroke-width="2"/>
<path d="M41.33 156V143.33L42.45 146.445L31.81 131.325H38.11L44.69 140.845H43.57L50.15 131.325H56.205L45.67 146.445L46.755 143.33V156H41.33ZM59.069 156V131.325H75.974V135.56H64.249V141.335H75.204V145.605H64.249V151.765H75.974V156H59.069ZM77.0152 156L88.3552 131.325H92.7302L104.07 156H98.6102L95.6702 149.14L97.8402 150.645H83.2452L85.4152 149.14L82.5102 156H77.0152ZM90.4902 137.1L86.0102 147.775L85.0652 146.41H96.0202L95.0752 147.775L90.5602 137.1H90.4902ZM106.203 156V131.325H117.473C120.226 131.325 122.349 131.99 123.843 133.32C125.336 134.65 126.083 136.505 126.083 138.885C126.083 140.425 125.744 141.755 125.068 142.875C124.391 143.995 123.411 144.858 122.128 145.465C120.868 146.072 119.316 146.375 117.473 146.375L117.753 145.78H119.188C120.168 145.78 121.019 146.025 121.743 146.515C122.489 146.982 123.131 147.705 123.668 148.685L127.658 156H121.673L117.403 148.125C117.169 147.705 116.901 147.378 116.598 147.145C116.294 146.888 115.944 146.713 115.548 146.62C115.174 146.503 114.754 146.445 114.288 146.445H111.628V156H106.203ZM111.628 142.525H116.493C117.939 142.525 119.024 142.233 119.748 141.65C120.494 141.067 120.868 140.192 120.868 139.025C120.868 137.882 120.494 137.018 119.748 136.435C119.024 135.852 117.939 135.56 116.493 135.56H111.628V142.525ZM139.29 156.385C138.007 156.385 136.759 156.268 135.545 156.035C134.355 155.825 133.247 155.522 132.22 155.125C131.194 154.705 130.295 154.215 129.525 153.655L131.1 149.385C131.847 149.898 132.652 150.342 133.515 150.715C134.379 151.088 135.3 151.38 136.28 151.59C137.26 151.777 138.264 151.87 139.29 151.87C140.994 151.87 142.207 151.613 142.93 151.1C143.654 150.563 144.015 149.898 144.015 149.105C144.015 148.662 143.899 148.277 143.665 147.95C143.455 147.623 143.094 147.343 142.58 147.11C142.09 146.853 141.414 146.643 140.55 146.48L136.595 145.64C134.355 145.173 132.687 144.38 131.59 143.26C130.517 142.117 129.98 140.623 129.98 138.78C129.98 137.193 130.4 135.817 131.24 134.65C132.104 133.483 133.282 132.573 134.775 131.92C136.292 131.267 138.03 130.94 139.99 130.94C141.134 130.94 142.23 131.057 143.28 131.29C144.33 131.5 145.299 131.815 146.185 132.235C147.072 132.655 147.842 133.157 148.495 133.74L146.92 137.73C145.987 136.983 144.937 136.423 143.77 136.05C142.604 135.653 141.332 135.455 139.955 135.455C138.975 135.455 138.135 135.583 137.435 135.84C136.759 136.097 136.234 136.458 135.86 136.925C135.51 137.392 135.335 137.928 135.335 138.535C135.335 139.212 135.58 139.76 136.07 140.18C136.56 140.6 137.412 140.938 138.625 141.195L142.58 142.035C144.867 142.525 146.57 143.318 147.69 144.415C148.81 145.488 149.37 146.912 149.37 148.685C149.37 150.225 148.95 151.578 148.11 152.745C147.294 153.888 146.127 154.787 144.61 155.44C143.117 156.07 141.344 156.385 139.29 156.385ZM174.078 156.385C172.258 156.385 170.59 156.082 169.073 155.475C167.58 154.868 166.297 154.005 165.223 152.885C164.15 151.765 163.322 150.423 162.738 148.86C162.178 147.297 161.898 145.558 161.898 143.645C161.898 141.708 162.178 139.97 162.738 138.43C163.322 136.867 164.15 135.537 165.223 134.44C166.297 133.32 167.58 132.457 169.073 131.85C170.59 131.243 172.258 130.94 174.078 130.94C175.922 130.94 177.59 131.243 179.083 131.85C180.577 132.457 181.86 133.308 182.933 134.405C184.007 135.502 184.835 136.832 185.418 138.395C186.002 139.958 186.293 141.697 186.293 143.61C186.293 145.547 186.002 147.297 185.418 148.86C184.835 150.423 184.007 151.765 182.933 152.885C181.86 154.005 180.577 154.868 179.083 155.475C177.59 156.082 175.922 156.385 174.078 156.385ZM174.078 151.765C175.478 151.765 176.657 151.45 177.613 150.82C178.57 150.167 179.305 149.233 179.818 148.02C180.355 146.783 180.623 145.325 180.623 143.645C180.623 141.942 180.367 140.483 179.853 139.27C179.34 138.057 178.593 137.135 177.613 136.505C176.633 135.875 175.455 135.56 174.078 135.56C172.725 135.56 171.558 135.875 170.578 136.505C169.598 137.135 168.852 138.057 168.338 139.27C167.825 140.483 167.568 141.942 167.568 143.645C167.568 145.325 167.825 146.783 168.338 148.02C168.852 149.233 169.598 150.167 170.578 150.82C171.558 151.45 172.725 151.765 174.078 151.765ZM190.49 156V131.325H207.15V135.56H195.915V141.58H206.38V145.815H195.915V156H190.49ZM227.087 156L218.302 131.325H223.867L230.272 150.365H228.767L235.522 131.325H239.442L245.917 150.365H244.622L251.132 131.325H256.382L247.527 156H243.117L236.922 138.465H237.762L231.497 156H227.087ZM270.192 156.385C268.372 156.385 266.703 156.082 265.187 155.475C263.693 154.868 262.41 154.005 261.337 152.885C260.263 151.765 259.435 150.423 258.852 148.86C258.292 147.297 258.012 145.558 258.012 143.645C258.012 141.708 258.292 139.97 258.852 138.43C259.435 136.867 260.263 135.537 261.337 134.44C262.41 133.32 263.693 132.457 265.187 131.85C266.703 131.243 268.372 130.94 270.192 130.94C272.035 130.94 273.703 131.243 275.197 131.85C276.69 132.457 277.973 133.308 279.047 134.405C280.12 135.502 280.948 136.832 281.532 138.395C282.115 139.958 282.407 141.697 282.407 143.61C282.407 145.547 282.115 147.297 281.532 148.86C280.948 150.423 280.12 151.765 279.047 152.885C277.973 154.005 276.69 154.868 275.197 155.475C273.703 156.082 272.035 156.385 270.192 156.385ZM270.192 151.765C271.592 151.765 272.77 151.45 273.727 150.82C274.683 150.167 275.418 149.233 275.932 148.02C276.468 146.783 276.737 145.325 276.737 143.645C276.737 141.942 276.48 140.483 275.967 139.27C275.453 138.057 274.707 137.135 273.727 136.505C272.747 135.875 271.568 135.56 270.192 135.56C268.838 135.56 267.672 135.875 266.692 136.505C265.712 137.135 264.965 138.057 264.452 139.27C263.938 140.483 263.682 141.942 263.682 143.645C263.682 145.325 263.938 146.783 264.452 148.02C264.965 149.233 265.712 150.167 266.692 150.82C267.672 151.45 268.838 151.765 270.192 151.765ZM286.603 156V131.325H297.873C300.626 131.325 302.75 131.99 304.243 133.32C305.736 134.65 306.483 136.505 306.483 138.885C306.483 140.425 306.145 141.755 305.468 142.875C304.791 143.995 303.811 144.858 302.528 145.465C301.268 146.072 299.716 146.375 297.873 146.375L298.153 145.78H299.588C300.568 145.78 301.42 146.025 302.143 146.515C302.89 146.982 303.531 147.705 304.068 148.685L308.058 156H302.073L297.803 148.125C297.57 147.705 297.301 147.378 296.998 147.145C296.695 146.888 296.345 146.713 295.948 146.62C295.575 146.503 295.155 146.445 294.688 146.445H292.028V156H286.603ZM292.028 142.525H296.893C298.34 142.525 299.425 142.233 300.148 141.65C300.895 141.067 301.268 140.192 301.268 139.025C301.268 137.882 300.895 137.018 300.148 136.435C299.425 135.852 298.34 135.56 296.893 135.56H292.028V142.525ZM310.973 156V131.325H316.398V142.07H316.468L326.723 131.325H333.233L320.633 144.275L320.668 141.93L333.723 156H327.143L316.468 144.73H316.398V156H310.973ZM35.485 204V179.325H52.39V183.56H40.665V189.335H51.62V193.605H40.665V199.765H52.39V204H35.485ZM53.5639 204L63.8889 190.28V192.695L53.8439 179.325H60.1439L66.9689 188.74H65.2189L72.0089 179.325H78.3439L68.2639 192.695V190.28L78.5889 204H72.2539L65.1839 194.235H66.9689L59.9339 204H53.5639ZM80.5338 204V179.325H91.8038C93.6472 179.325 95.2105 179.64 96.4938 180.27C97.7772 180.9 98.7455 181.798 99.3988 182.965C100.075 184.132 100.414 185.543 100.414 187.2C100.414 188.857 100.075 190.28 99.3988 191.47C98.7455 192.637 97.7772 193.535 96.4938 194.165C95.2105 194.795 93.6472 195.11 91.8038 195.11H85.9588V204H80.5338ZM85.9588 190.91H90.8938C92.2938 190.91 93.3555 190.595 94.0788 189.965C94.8255 189.335 95.1988 188.413 95.1988 187.2C95.1988 185.987 94.8255 185.077 94.0788 184.47C93.3555 183.863 92.2938 183.56 90.8938 183.56H85.9588V190.91ZM103.776 204V179.325H120.681V183.56H108.956V189.335H119.911V193.605H108.956V199.765H120.681V204H103.776ZM124.967 204V179.325H136.237C138.991 179.325 141.114 179.99 142.607 181.32C144.101 182.65 144.847 184.505 144.847 186.885C144.847 188.425 144.509 189.755 143.832 190.875C143.156 191.995 142.176 192.858 140.892 193.465C139.632 194.072 138.081 194.375 136.237 194.375L136.517 193.78H137.952C138.932 193.78 139.784 194.025 140.507 194.515C141.254 194.982 141.896 195.705 142.432 196.685L146.422 204H140.437L136.167 196.125C135.934 195.705 135.666 195.378 135.362 195.145C135.059 194.888 134.709 194.713 134.312 194.62C133.939 194.503 133.519 194.445 133.052 194.445H130.392V204H124.967ZM130.392 190.525H135.257C136.704 190.525 137.789 190.233 138.512 189.65C139.259 189.067 139.632 188.192 139.632 187.025C139.632 185.882 139.259 185.018 138.512 184.435C137.789 183.852 136.704 183.56 135.257 183.56H130.392V190.525ZM149.338 204V179.325H154.763V204H149.338ZM159.694 204V179.325H176.599V183.56H164.874V189.335H175.829V193.605H164.874V199.765H176.599V204H159.694ZM180.885 204V179.325H184.91L198.175 196.23H197.23V179.325H202.27V204H198.28L185.015 187.06H185.925V204H180.885ZM219.208 204.385C216.548 204.385 214.273 203.86 212.383 202.81C210.493 201.76 209.035 200.29 208.008 198.4C207.005 196.487 206.503 194.235 206.503 191.645C206.503 189.055 207.005 186.815 208.008 184.925C209.035 183.035 210.493 181.565 212.383 180.515C214.273 179.465 216.548 178.94 219.208 178.94C220.841 178.94 222.405 179.197 223.898 179.71C225.391 180.223 226.616 180.923 227.573 181.81L225.893 186.115C224.843 185.298 223.781 184.703 222.708 184.33C221.658 183.933 220.55 183.735 219.383 183.735C217.05 183.735 215.276 184.423 214.063 185.8C212.85 187.153 212.243 189.102 212.243 191.645C212.243 194.188 212.85 196.148 214.063 197.525C215.276 198.902 217.05 199.59 219.383 199.59C220.55 199.59 221.658 199.403 222.708 199.03C223.781 198.633 224.843 198.027 225.893 197.21L227.573 201.515C226.616 202.402 225.391 203.102 223.898 203.615C222.405 204.128 220.841 204.385 219.208 204.385ZM231.13 204V179.325H248.035V183.56H236.31V189.335H247.265V193.605H236.31V199.765H248.035V204H231.13Z" fill="#00605D"/>
</svg>
