<svg width="300" height="200" viewBox="0 0 300 200" fill="none" xmlns="http://www.w3.org/2000/svg">
<path d="M6.99998 143V144H7.99998H100.2H101.2V143V117.6V116.6H100.2H71.6V2V1H70.6H48.6H48.3301L48.0968 1.1358L3.09682 27.3358L2.27154 27.8163L2.71353 28.6628L14.5135 51.2628L15.0001 52.1948L15.9066 51.6622L38.6 38.3269V116.6H7.99998H6.99998V117.6V143ZM149.305 144.176L149.309 144.177C155.512 145.526 161.784 146.2 168.122 146.2C179.176 146.2 188.803 144.178 196.969 140.094C205.124 136.017 211.405 130.359 215.778 123.117L215.782 123.11C220.15 115.738 222.322 107.292 222.322 97.8C222.322 88.7242 220.424 80.6873 216.598 73.7187C212.778 66.7596 207.447 61.3575 200.617 57.5314C193.777 53.5655 185.8 51.6 176.722 51.6C170.071 51.6 163.939 52.7543 158.339 55.0763C156.859 55.6899 155.453 56.3712 154.122 57.1206V28.4H212.522H213.522V27.4V2V1H212.522H123.322H122.322V2V89V90H123.322H143.322H143.757L144.054 89.6814C147.576 85.8978 151.336 83.1177 155.328 81.3139C159.456 79.5087 163.983 78.6 168.922 78.6C175.663 78.6 180.857 80.4744 184.627 84.119L184.633 84.1247L184.639 84.1303C188.543 87.7822 190.522 92.6369 190.522 98.8C190.522 104.953 188.484 109.729 184.464 113.247C180.572 116.636 174.973 118.4 167.522 118.4C160.972 118.4 154.484 117.287 148.053 115.056C141.748 112.823 135.631 109.602 129.701 105.385L128.682 104.66L128.199 105.814L118.399 129.214L118.112 129.9L118.687 130.373C122.497 133.502 127.039 136.279 132.303 138.708L132.312 138.712L132.322 138.717C137.586 141.011 143.247 142.83 149.305 144.176Z" stroke="#00605D" stroke-width="2"/>
<path d="M45.39 145.33C43.11 145.33 41.16 144.88 39.54 143.98C37.92 143.08 36.67 141.82 35.79 140.2C34.93 138.56 34.5 136.63 34.5 134.41C34.5 132.19 34.93 130.27 35.79 128.65C36.67 127.03 37.92 125.77 39.54 124.87C41.16 123.97 43.11 123.52 45.39 123.52C46.79 123.52 48.13 123.74 49.41 124.18C50.69 124.62 51.74 125.22 52.56 125.98L51.12 129.67C50.22 128.97 49.31 128.46 48.39 128.14C47.49 127.8 46.54 127.63 45.54 127.63C43.54 127.63 42.02 128.22 40.98 129.4C39.94 130.56 39.42 132.23 39.42 134.41C39.42 136.59 39.94 138.27 40.98 139.45C42.02 140.63 43.54 141.22 45.54 141.22C46.54 141.22 47.49 141.06 48.39 140.74C49.31 140.4 50.22 139.88 51.12 139.18L52.56 142.87C51.74 143.63 50.69 144.23 49.41 144.67C48.13 145.11 46.79 145.33 45.39 145.33ZM64.7154 145.33C63.1554 145.33 61.7254 145.07 60.4254 144.55C59.1454 144.03 58.0454 143.29 57.1254 142.33C56.2054 141.37 55.4954 140.22 54.9954 138.88C54.5154 137.54 54.2754 136.05 54.2754 134.41C54.2754 132.75 54.5154 131.26 54.9954 129.94C55.4954 128.6 56.2054 127.46 57.1254 126.52C58.0454 125.56 59.1454 124.82 60.4254 124.3C61.7254 123.78 63.1554 123.52 64.7154 123.52C66.2954 123.52 67.7254 123.78 69.0054 124.3C70.2854 124.82 71.3854 125.55 72.3054 126.49C73.2254 127.43 73.9354 128.57 74.4354 129.91C74.9354 131.25 75.1854 132.74 75.1854 134.38C75.1854 136.04 74.9354 137.54 74.4354 138.88C73.9354 140.22 73.2254 141.37 72.3054 142.33C71.3854 143.29 70.2854 144.03 69.0054 144.55C67.7254 145.07 66.2954 145.33 64.7154 145.33ZM64.7154 141.37C65.9154 141.37 66.9254 141.1 67.7454 140.56C68.5654 140 69.1954 139.2 69.6354 138.16C70.0954 137.1 70.3254 135.85 70.3254 134.41C70.3254 132.95 70.1054 131.7 69.6654 130.66C69.2254 129.62 68.5854 128.83 67.7454 128.29C66.9054 127.75 65.8954 127.48 64.7154 127.48C63.5554 127.48 62.5554 127.75 61.7154 128.29C60.8754 128.83 60.2354 129.62 59.7954 130.66C59.3554 131.7 59.1354 132.95 59.1354 134.41C59.1354 135.85 59.3554 137.1 59.7954 138.16C60.2354 139.2 60.8754 140 61.7154 140.56C62.5554 141.1 63.5554 141.37 64.7154 141.37ZM87.8423 145.33C84.8423 145.33 82.5523 144.56 80.9723 143.02C79.4123 141.48 78.6323 139.19 78.6323 136.15V123.85H83.2823V136.18C83.2823 137.9 83.6723 139.2 84.4523 140.08C85.2323 140.94 86.3623 141.37 87.8423 141.37C89.3223 141.37 90.4423 140.94 91.2023 140.08C91.9823 139.2 92.3723 137.9 92.3723 136.18V123.85H96.9623V136.15C96.9623 139.19 96.1923 141.48 94.6523 143.02C93.1123 144.56 90.8423 145.33 87.8423 145.33ZM101.077 145V123.85H104.527L115.897 138.34H115.087V123.85H119.407V145H115.987L104.617 130.48H105.397V145H101.077ZM128.705 145V127.69H121.715V123.85H140.345V127.69H133.355V145H128.705ZM142.62 145V123.85H152.28C154.64 123.85 156.46 124.42 157.74 125.56C159.02 126.7 159.66 128.29 159.66 130.33C159.66 131.65 159.37 132.79 158.79 133.75C158.21 134.71 157.37 135.45 156.27 135.97C155.19 136.49 153.86 136.75 152.28 136.75L152.52 136.24H153.75C154.59 136.24 155.32 136.45 155.94 136.87C156.58 137.27 157.13 137.89 157.59 138.73L161.01 145H155.88L152.22 138.25C152.02 137.89 151.79 137.61 151.53 137.41C151.27 137.19 150.97 137.04 150.63 136.96C150.31 136.86 149.95 136.81 149.55 136.81H147.27V145H142.62ZM147.27 133.45H151.44C152.68 133.45 153.61 133.2 154.23 132.7C154.87 132.2 155.19 131.45 155.19 130.45C155.19 129.47 154.87 128.73 154.23 128.23C153.61 127.73 152.68 127.48 151.44 127.48H147.27V133.45ZM163.509 145V123.85H168.159V145H163.509ZM172.386 145V123.85H186.876V127.48H176.826V132.43H186.216V136.09H176.826V141.37H186.876V145H172.386ZM197.817 145.33C196.717 145.33 195.647 145.23 194.607 145.03C193.587 144.85 192.637 144.59 191.757 144.25C190.877 143.89 190.107 143.47 189.447 142.99L190.797 139.33C191.437 139.77 192.127 140.15 192.867 140.47C193.607 140.79 194.397 141.04 195.237 141.22C196.077 141.38 196.937 141.46 197.817 141.46C199.277 141.46 200.317 141.24 200.937 140.8C201.557 140.34 201.867 139.77 201.867 139.09C201.867 138.71 201.767 138.38 201.567 138.1C201.387 137.82 201.077 137.58 200.637 137.38C200.217 137.16 199.637 136.98 198.897 136.84L195.507 136.12C193.587 135.72 192.157 135.04 191.217 134.08C190.297 133.1 189.837 131.82 189.837 130.24C189.837 128.88 190.197 127.7 190.917 126.7C191.657 125.7 192.667 124.92 193.947 124.36C195.247 123.8 196.737 123.52 198.417 123.52C199.397 123.52 200.337 123.62 201.237 123.82C202.137 124 202.967 124.27 203.727 124.63C204.487 124.99 205.147 125.42 205.707 125.92L204.357 129.34C203.557 128.7 202.657 128.22 201.657 127.9C200.657 127.56 199.567 127.39 198.387 127.39C197.547 127.39 196.827 127.5 196.227 127.72C195.647 127.94 195.197 128.25 194.877 128.65C194.577 129.05 194.427 129.51 194.427 130.03C194.427 130.61 194.637 131.08 195.057 131.44C195.477 131.8 196.207 132.09 197.247 132.31L200.637 133.03C202.597 133.45 204.057 134.13 205.017 135.07C205.977 135.99 206.457 137.21 206.457 138.73C206.457 140.05 206.097 141.21 205.377 142.21C204.677 143.19 203.677 143.96 202.377 144.52C201.097 145.06 199.577 145.33 197.817 145.33ZM223.735 145L216.205 123.85H220.975L226.465 140.17H225.175L230.965 123.85H234.325L239.875 140.17H238.765L244.345 123.85H248.845L241.255 145H237.475L232.165 129.97H232.885L227.515 145H223.735ZM251.429 145V123.85H265.919V127.48H255.869V132.43H265.259V136.09H255.869V141.37H265.919V145H251.429ZM41.04 186L33.51 164.85H38.28L43.77 181.17H42.48L48.27 164.85H51.63L57.18 181.17H56.07L61.65 164.85H66.15L58.56 186H54.78L49.47 170.97H50.19L44.82 186H41.04ZM77.9869 186.33C76.4269 186.33 74.9969 186.07 73.6969 185.55C72.4169 185.03 71.3169 184.29 70.3969 183.33C69.4769 182.37 68.7669 181.22 68.2669 179.88C67.7869 178.54 67.5469 177.05 67.5469 175.41C67.5469 173.75 67.7869 172.26 68.2669 170.94C68.7669 169.6 69.4769 168.46 70.3969 167.52C71.3169 166.56 72.4169 165.82 73.6969 165.3C74.9969 164.78 76.4269 164.52 77.9869 164.52C79.5669 164.52 80.9969 164.78 82.2769 165.3C83.5569 165.82 84.6569 166.55 85.5769 167.49C86.4969 168.43 87.2069 169.57 87.7069 170.91C88.2069 172.25 88.4569 173.74 88.4569 175.38C88.4569 177.04 88.2069 178.54 87.7069 179.88C87.2069 181.22 86.4969 182.37 85.5769 183.33C84.6569 184.29 83.5569 185.03 82.2769 185.55C80.9969 186.07 79.5669 186.33 77.9869 186.33ZM77.9869 182.37C79.1869 182.37 80.1969 182.1 81.0169 181.56C81.8369 181 82.4669 180.2 82.9069 179.16C83.3669 178.1 83.5969 176.85 83.5969 175.41C83.5969 173.95 83.3769 172.7 82.9369 171.66C82.4969 170.62 81.8569 169.83 81.0169 169.29C80.1769 168.75 79.1669 168.48 77.9869 168.48C76.8269 168.48 75.8269 168.75 74.9869 169.29C74.1469 169.83 73.5069 170.62 73.0669 171.66C72.6269 172.7 72.4069 173.95 72.4069 175.41C72.4069 176.85 72.6269 178.1 73.0669 179.16C73.5069 180.2 74.1469 181 74.9869 181.56C75.8269 182.1 76.8269 182.37 77.9869 182.37ZM92.0538 186V164.85H101.714C104.074 164.85 105.894 165.42 107.174 166.56C108.454 167.7 109.094 169.29 109.094 171.33C109.094 172.65 108.804 173.79 108.224 174.75C107.644 175.71 106.804 176.45 105.704 176.97C104.624 177.49 103.294 177.75 101.714 177.75L101.954 177.24H103.184C104.024 177.24 104.754 177.45 105.374 177.87C106.014 178.27 106.564 178.89 107.024 179.73L110.444 186H105.314L101.654 179.25C101.454 178.89 101.224 178.61 100.964 178.41C100.704 178.19 100.404 178.04 100.064 177.96C99.7438 177.86 99.3838 177.81 98.9838 177.81H96.7038V186H92.0538ZM96.7038 174.45H100.874C102.114 174.45 103.044 174.2 103.664 173.7C104.304 173.2 104.624 172.45 104.624 171.45C104.624 170.47 104.304 169.73 103.664 169.23C103.044 168.73 102.114 168.48 100.874 168.48H96.7038V174.45ZM112.943 186V164.85H117.593V174.06H117.653L126.443 164.85H132.023L121.223 175.95L121.253 173.94L132.443 186H126.803L117.653 176.34H117.593V186H112.943ZM133.538 186V164.85H148.028V168.48H137.978V173.43H147.368V177.09H137.978V182.37H148.028V186H133.538ZM151.702 186V164.85H159.982C162.382 164.85 164.422 165.27 166.102 166.11C167.802 166.93 169.092 168.13 169.972 169.71C170.872 171.27 171.322 173.17 171.322 175.41C171.322 177.65 170.872 179.56 169.972 181.14C169.092 182.72 167.802 183.93 166.102 184.77C164.422 185.59 162.382 186 159.982 186H151.702ZM156.352 182.19H159.712C161.972 182.19 163.662 181.63 164.782 180.51C165.902 179.39 166.462 177.69 166.462 175.41C166.462 173.13 165.892 171.44 164.752 170.34C163.632 169.22 161.952 168.66 159.712 168.66H156.352V182.19ZM189.194 186L181.664 164.85H186.434L191.924 181.17H190.634L196.424 164.85H199.784L205.334 181.17H204.224L209.804 164.85H214.304L206.714 186H202.934L197.624 170.97H198.344L192.974 186H189.194ZM216.888 186V164.85H221.538V186H216.888ZM230.805 186V168.69H223.815V164.85H242.445V168.69H235.455V186H230.805ZM244.72 186V164.85H249.37V173.34H259.21V164.85H263.86V186H259.21V177.21H249.37V186H244.72Z" fill="#00605D"/>
</svg>
