<svg width="370" height="214" viewBox="0 0 370 214" fill="none" xmlns="http://www.w3.org/2000/svg">
<path d="M6.99998 143V144H7.99998H100.2H101.2V143V117.6V116.6H100.2H71.6V2V1H70.6H48.6H48.3301L48.0968 1.1358L3.09682 27.3358L2.27154 27.8163L2.71353 28.6628L14.5135 51.2628L15.0001 52.1948L15.9066 51.6622L38.6 38.3269V116.6H7.99998H6.99998V117.6V143ZM149.305 144.176L149.309 144.177C155.512 145.526 161.784 146.2 168.122 146.2C179.176 146.2 188.803 144.178 196.969 140.094C205.124 136.017 211.405 130.359 215.778 123.117L215.782 123.11C220.15 115.738 222.322 107.292 222.322 97.8C222.322 88.7242 220.424 80.6873 216.598 73.7187C212.778 66.7596 207.447 61.3575 200.617 57.5314C193.777 53.5655 185.8 51.6 176.722 51.6C170.071 51.6 163.939 52.7543 158.339 55.0763C156.859 55.6899 155.453 56.3712 154.122 57.1206V28.4H212.522H213.522V27.4V2V1H212.522H123.322H122.322V2V89V90H123.322H143.322H143.757L144.054 89.6814C147.576 85.8978 151.336 83.1177 155.328 81.3139C159.456 79.5087 163.983 78.6 168.922 78.6C175.663 78.6 180.857 80.4744 184.627 84.119L184.633 84.1247L184.639 84.1303C188.543 87.7822 190.522 92.6369 190.522 98.8C190.522 104.953 188.484 109.729 184.464 113.247C180.572 116.636 174.973 118.4 167.522 118.4C160.972 118.4 154.484 117.287 148.053 115.056C141.748 112.823 135.631 109.602 129.701 105.385L128.682 104.66L128.199 105.814L118.399 129.214L118.112 129.9L118.687 130.373C122.497 133.502 127.039 136.279 132.303 138.708L132.312 138.712L132.322 138.717C137.586 141.011 143.247 142.83 149.305 144.176Z" stroke="#00605D" stroke-width="2"/>
<path d="M47.455 154.385C44.795 154.385 42.52 153.86 40.63 152.81C38.74 151.76 37.2817 150.29 36.255 148.4C35.2517 146.487 34.75 144.235 34.75 141.645C34.75 139.055 35.2517 136.815 36.255 134.925C37.2817 133.035 38.74 131.565 40.63 130.515C42.52 129.465 44.795 128.94 47.455 128.94C49.0883 128.94 50.6517 129.197 52.145 129.71C53.6383 130.223 54.8633 130.923 55.82 131.81L54.14 136.115C53.09 135.298 52.0283 134.703 50.955 134.33C49.905 133.933 48.7967 133.735 47.63 133.735C45.2967 133.735 43.5233 134.423 42.31 135.8C41.0967 137.153 40.49 139.102 40.49 141.645C40.49 144.188 41.0967 146.148 42.31 147.525C43.5233 148.902 45.2967 149.59 47.63 149.59C48.7967 149.59 49.905 149.403 50.955 149.03C52.0283 148.633 53.09 148.027 54.14 147.21L55.82 151.515C54.8633 152.402 53.6383 153.102 52.145 153.615C50.6517 154.128 49.0883 154.385 47.455 154.385ZM70.0013 154.385C68.1813 154.385 66.513 154.082 64.9963 153.475C63.503 152.868 62.2196 152.005 61.1463 150.885C60.073 149.765 59.2446 148.423 58.6613 146.86C58.1013 145.297 57.8213 143.558 57.8213 141.645C57.8213 139.708 58.1013 137.97 58.6613 136.43C59.2446 134.867 60.073 133.537 61.1463 132.44C62.2196 131.32 63.503 130.457 64.9963 129.85C66.513 129.243 68.1813 128.94 70.0013 128.94C71.8446 128.94 73.513 129.243 75.0063 129.85C76.4996 130.457 77.783 131.308 78.8563 132.405C79.9296 133.502 80.758 134.832 81.3413 136.395C81.9246 137.958 82.2163 139.697 82.2163 141.61C82.2163 143.547 81.9246 145.297 81.3413 146.86C80.758 148.423 79.9296 149.765 78.8563 150.885C77.783 152.005 76.4996 152.868 75.0063 153.475C73.513 154.082 71.8446 154.385 70.0013 154.385ZM70.0013 149.765C71.4013 149.765 72.5796 149.45 73.5363 148.82C74.493 148.167 75.228 147.233 75.7413 146.02C76.278 144.783 76.5463 143.325 76.5463 141.645C76.5463 139.942 76.2896 138.483 75.7763 137.27C75.263 136.057 74.5163 135.135 73.5363 134.505C72.5563 133.875 71.378 133.56 70.0013 133.56C68.648 133.56 67.4813 133.875 66.5013 134.505C65.5213 135.135 64.7746 136.057 64.2613 137.27C63.748 138.483 63.4913 139.942 63.4913 141.645C63.4913 143.325 63.748 144.783 64.2613 146.02C64.7746 147.233 65.5213 148.167 66.5013 148.82C67.4813 149.45 68.648 149.765 70.0013 149.765ZM96.9827 154.385C93.4827 154.385 90.8111 153.487 88.9677 151.69C87.1477 149.893 86.2377 147.222 86.2377 143.675V129.325H91.6627V143.71C91.6627 145.717 92.1177 147.233 93.0277 148.26C93.9377 149.263 95.2561 149.765 96.9827 149.765C98.7094 149.765 100.016 149.263 100.903 148.26C101.813 147.233 102.268 145.717 102.268 143.71V129.325H107.623V143.675C107.623 147.222 106.724 149.893 104.928 151.69C103.131 153.487 100.483 154.385 96.9827 154.385ZM112.423 154V129.325H116.448L129.713 146.23H128.768V129.325H133.808V154H129.818L116.553 137.06H117.463V154H112.423ZM144.656 154V133.805H136.501V129.325H158.236V133.805H150.081V154H144.656ZM160.89 154V129.325H172.16C174.914 129.325 177.037 129.99 178.53 131.32C180.024 132.65 180.77 134.505 180.77 136.885C180.77 138.425 180.432 139.755 179.755 140.875C179.079 141.995 178.099 142.858 176.815 143.465C175.555 144.072 174.004 144.375 172.16 144.375L172.44 143.78H173.875C174.855 143.78 175.707 144.025 176.43 144.515C177.177 144.982 177.819 145.705 178.355 146.685L182.345 154H176.36L172.09 146.125C171.857 145.705 171.589 145.378 171.285 145.145C170.982 144.888 170.632 144.713 170.235 144.62C169.862 144.503 169.442 144.445 168.975 144.445H166.315V154H160.89ZM166.315 140.525H171.18C172.627 140.525 173.712 140.233 174.435 139.65C175.182 139.067 175.555 138.192 175.555 137.025C175.555 135.882 175.182 135.018 174.435 134.435C173.712 133.852 172.627 133.56 171.18 133.56H166.315V140.525ZM185.26 154V129.325H190.685V154H185.26ZM195.617 154V129.325H212.522V133.56H200.797V139.335H211.752V143.605H200.797V149.765H212.522V154H195.617ZM225.286 154.385C224.003 154.385 222.755 154.268 221.541 154.035C220.351 153.825 219.243 153.522 218.216 153.125C217.19 152.705 216.291 152.215 215.521 151.655L217.096 147.385C217.843 147.898 218.648 148.342 219.511 148.715C220.375 149.088 221.296 149.38 222.276 149.59C223.256 149.777 224.26 149.87 225.286 149.87C226.99 149.87 228.203 149.613 228.926 149.1C229.65 148.563 230.011 147.898 230.011 147.105C230.011 146.662 229.895 146.277 229.661 145.95C229.451 145.623 229.09 145.343 228.576 145.11C228.086 144.853 227.41 144.643 226.546 144.48L222.591 143.64C220.351 143.173 218.683 142.38 217.586 141.26C216.513 140.117 215.976 138.623 215.976 136.78C215.976 135.193 216.396 133.817 217.236 132.65C218.1 131.483 219.278 130.573 220.771 129.92C222.288 129.267 224.026 128.94 225.986 128.94C227.13 128.94 228.226 129.057 229.276 129.29C230.326 129.5 231.295 129.815 232.181 130.235C233.068 130.655 233.838 131.157 234.491 131.74L232.916 135.73C231.983 134.983 230.933 134.423 229.766 134.05C228.6 133.653 227.328 133.455 225.951 133.455C224.971 133.455 224.131 133.583 223.431 133.84C222.755 134.097 222.23 134.458 221.856 134.925C221.506 135.392 221.331 135.928 221.331 136.535C221.331 137.212 221.576 137.76 222.066 138.18C222.556 138.6 223.408 138.938 224.621 139.195L228.576 140.035C230.863 140.525 232.566 141.318 233.686 142.415C234.806 143.488 235.366 144.912 235.366 146.685C235.366 148.225 234.946 149.578 234.106 150.745C233.29 151.888 232.123 152.787 230.606 153.44C229.113 154.07 227.34 154.385 225.286 154.385ZM255.525 154L246.74 129.325H252.305L258.71 148.365H257.205L263.96 129.325H267.88L274.355 148.365H273.06L279.57 129.325H284.82L275.965 154H271.555L265.36 136.465H266.2L259.935 154H255.525ZM287.834 154V129.325H304.739V133.56H293.014V139.335H303.969V143.605H293.014V149.765H304.739V154H287.834ZM42.38 202L33.595 177.325H39.16L45.565 196.365H44.06L50.815 177.325H54.735L61.21 196.365H59.915L66.425 177.325H71.675L62.82 202H58.41L52.215 184.465H53.055L46.79 202H42.38ZM85.4847 202.385C83.6647 202.385 81.9964 202.082 80.4797 201.475C78.9864 200.868 77.703 200.005 76.6297 198.885C75.5564 197.765 74.728 196.423 74.1447 194.86C73.5847 193.297 73.3047 191.558 73.3047 189.645C73.3047 187.708 73.5847 185.97 74.1447 184.43C74.728 182.867 75.5564 181.537 76.6297 180.44C77.703 179.32 78.9864 178.457 80.4797 177.85C81.9964 177.243 83.6647 176.94 85.4847 176.94C87.328 176.94 88.9964 177.243 90.4897 177.85C91.983 178.457 93.2664 179.308 94.3397 180.405C95.413 181.502 96.2414 182.832 96.8247 184.395C97.408 185.958 97.6997 187.697 97.6997 189.61C97.6997 191.547 97.408 193.297 96.8247 194.86C96.2414 196.423 95.413 197.765 94.3397 198.885C93.2664 200.005 91.983 200.868 90.4897 201.475C88.9964 202.082 87.328 202.385 85.4847 202.385ZM85.4847 197.765C86.8847 197.765 88.063 197.45 89.0197 196.82C89.9764 196.167 90.7114 195.233 91.2247 194.02C91.7614 192.783 92.0297 191.325 92.0297 189.645C92.0297 187.942 91.773 186.483 91.2597 185.27C90.7464 184.057 89.9997 183.135 89.0197 182.505C88.0397 181.875 86.8614 181.56 85.4847 181.56C84.1314 181.56 82.9647 181.875 81.9847 182.505C81.0047 183.135 80.258 184.057 79.7447 185.27C79.2314 186.483 78.9747 187.942 78.9747 189.645C78.9747 191.325 79.2314 192.783 79.7447 194.02C80.258 195.233 81.0047 196.167 81.9847 196.82C82.9647 197.45 84.1314 197.765 85.4847 197.765ZM101.896 202V177.325H113.166C115.919 177.325 118.043 177.99 119.536 179.32C121.029 180.65 121.776 182.505 121.776 184.885C121.776 186.425 121.438 187.755 120.761 188.875C120.084 189.995 119.104 190.858 117.821 191.465C116.561 192.072 115.009 192.375 113.166 192.375L113.446 191.78H114.881C115.861 191.78 116.713 192.025 117.436 192.515C118.183 192.982 118.824 193.705 119.361 194.685L123.351 202H117.366L113.096 194.125C112.863 193.705 112.594 193.378 112.291 193.145C111.988 192.888 111.638 192.713 111.241 192.62C110.868 192.503 110.448 192.445 109.981 192.445H107.321V202H101.896ZM107.321 188.525H112.186C113.633 188.525 114.718 188.233 115.441 187.65C116.188 187.067 116.561 186.192 116.561 185.025C116.561 183.882 116.188 183.018 115.441 182.435C114.718 181.852 113.633 181.56 112.186 181.56H107.321V188.525ZM126.266 202V177.325H131.691V188.07H131.761L142.016 177.325H148.526L135.926 190.275L135.961 187.93L149.016 202H142.436L131.761 190.73H131.691V202H126.266ZM150.295 202V177.325H167.2V181.56H155.475V187.335H166.43V191.605H155.475V197.765H167.2V202H150.295ZM171.486 202V177.325H181.146C183.946 177.325 186.326 177.815 188.286 178.795C190.269 179.752 191.774 181.152 192.801 182.995C193.851 184.815 194.376 187.032 194.376 189.645C194.376 192.258 193.851 194.487 192.801 196.33C191.774 198.173 190.269 199.585 188.286 200.565C186.326 201.522 183.946 202 181.146 202H171.486ZM176.911 197.555H180.831C183.468 197.555 185.439 196.902 186.746 195.595C188.053 194.288 188.706 192.305 188.706 189.645C188.706 186.985 188.041 185.013 186.711 183.73C185.404 182.423 183.444 181.77 180.831 181.77H176.911V197.555ZM215.227 202L206.442 177.325H212.007L218.412 196.365H216.907L223.662 177.325H227.582L234.057 196.365H232.762L239.272 177.325H244.522L235.667 202H231.257L225.062 184.465H225.902L219.637 202H215.227ZM247.536 202V177.325H252.961V202H247.536ZM263.772 202V181.805H255.617V177.325H277.352V181.805H269.197V202H263.772ZM280.006 202V177.325H285.431V187.23H296.911V177.325H302.336V202H296.911V191.745H285.431V202H280.006Z" fill="#00605D"/>
</svg>
