<svg width="315" height="160" viewBox="0 0 315 160" fill="none" xmlns="http://www.w3.org/2000/svg">
<path d="M33.3831 146.376L33.3876 146.377C39.5906 147.726 45.8618 148.4 52.2 148.4C63.2546 148.4 72.8809 146.378 81.0472 142.294C89.2018 138.217 95.4834 132.559 99.8561 125.317L99.8603 125.31C104.229 117.938 106.4 109.492 106.4 100C106.4 90.9242 104.502 82.8873 100.677 75.9187C96.8558 68.9595 91.5248 63.5573 84.6953 59.7312C77.8548 55.7654 69.8783 53.8 60.8 53.8C54.149 53.8 48.0171 54.9542 42.417 57.2763C40.9372 57.8899 39.5313 58.5712 38.2 59.3206V30.6H96.6H97.6V29.6V4.2V3.2H96.6H7.40002H6.40002V4.2V91.2V92.2H7.40002H27.4H27.8353L28.1319 91.8814C31.6545 88.0979 35.414 85.3178 39.406 83.5139C43.5341 81.7087 48.0611 80.8 53 80.8C59.7412 80.8 64.9348 82.6744 68.705 86.319L68.7109 86.3247L68.7169 86.3303C72.6207 89.9822 74.6 94.8369 74.6 101C74.6 107.152 72.5624 111.928 68.5432 115.446C64.6517 118.835 59.0518 120.6 51.6 120.6C45.0501 120.6 38.5618 119.487 32.1309 117.256C25.8264 115.023 19.7094 111.802 13.7795 107.585L12.7606 106.86L12.2776 108.014L2.47765 131.414L2.19012 132.1L2.76529 132.573C6.57529 135.702 11.1175 138.479 16.381 140.908L16.3907 140.912L16.4004 140.917C21.6639 143.211 27.3256 145.03 33.3831 146.376ZM142.526 139.603L142.533 139.608C150.598 145.486 160.413 148.4 171.922 148.4C183.561 148.4 193.381 145.487 201.317 139.603C209.234 133.734 215.204 125.295 219.258 114.352C223.445 103.275 225.522 89.882 225.522 74.2C225.522 58.3892 223.513 45.0617 219.458 34.2489C215.402 23.4322 209.359 15.1871 201.3 9.5841C193.366 3.84135 183.552 1 171.922 1C160.42 1 150.61 3.84368 142.547 9.58166C134.484 15.1866 128.441 23.5012 124.385 34.4505C120.331 45.2622 118.322 58.5222 118.322 74.2C118.322 90.0114 120.331 103.404 124.384 114.347L124.384 114.347L124.388 114.357C128.576 125.299 134.612 133.736 142.526 139.603ZM188.224 38.6407L188.227 38.6472L188.231 38.6537C191.851 45.7642 193.722 57.5611 193.722 74.2C193.722 90.8306 191.853 102.841 188.222 110.363C186.416 114.039 184.157 116.735 181.469 118.516C178.786 120.295 175.617 121.2 171.922 121.2C168.226 121.2 165.057 120.295 162.374 118.516C159.687 116.735 157.428 114.039 155.622 110.363C151.991 102.841 150.122 90.8306 150.122 74.2C150.122 57.5611 151.993 45.7642 155.613 38.6537C157.416 35.1125 159.673 32.5116 162.361 30.7924C165.045 29.0755 168.219 28.2 171.922 28.2C175.695 28.2 178.901 29.0772 181.583 30.7924C184.267 32.5091 186.489 35.1051 188.224 38.6407Z" stroke="#00605D" stroke-width="2"/>
<path d="M269.254 110V111H270.254H285.746H286.746V110V83.0287H313H314V82.0287V67.1107V66.1107H313H286.746V40V39H285.746H270.254H269.254V40V66.1107H243H242V67.1107V82.0287V83.0287H243H269.254V110Z" stroke="#00605D" stroke-width="2"/>
<path d="M50.13 147V125.85H59.79C61.37 125.85 62.71 126.12 63.81 126.66C64.91 127.2 65.74 127.97 66.3 128.97C66.88 129.97 67.17 131.18 67.17 132.6C67.17 134.02 66.88 135.24 66.3 136.26C65.74 137.26 64.91 138.03 63.81 138.57C62.71 139.11 61.37 139.38 59.79 139.38H54.78V147H50.13ZM54.78 135.78H59.01C60.21 135.78 61.12 135.51 61.74 134.97C62.38 134.43 62.7 133.64 62.7 132.6C62.7 131.56 62.38 130.78 61.74 130.26C61.12 129.74 60.21 129.48 59.01 129.48H54.78V135.78ZM70.0519 147V125.85H79.7119C82.0719 125.85 83.8919 126.42 85.1719 127.56C86.4519 128.7 87.0919 130.29 87.0919 132.33C87.0919 133.65 86.8019 134.79 86.2219 135.75C85.6419 136.71 84.8019 137.45 83.7019 137.97C82.6219 138.49 81.2919 138.75 79.7119 138.75L79.9519 138.24H81.1819C82.0219 138.24 82.7519 138.45 83.3719 138.87C84.0119 139.27 84.5619 139.89 85.0219 140.73L88.4419 147H83.3119L79.6519 140.25C79.4519 139.89 79.2219 139.61 78.9619 139.41C78.7019 139.19 78.4019 139.04 78.0619 138.96C77.7419 138.86 77.3819 138.81 76.9819 138.81H74.7019V147H70.0519ZM74.7019 135.45H78.8719C80.1119 135.45 81.0419 135.2 81.6619 134.7C82.3019 134.2 82.6219 133.45 82.6219 132.45C82.6219 131.47 82.3019 130.73 81.6619 130.23C81.0419 129.73 80.1119 129.48 78.8719 129.48H74.7019V135.45ZM100.604 147.33C99.0441 147.33 97.6141 147.07 96.3141 146.55C95.0341 146.03 93.9341 145.29 93.0141 144.33C92.0941 143.37 91.3841 142.22 90.8841 140.88C90.4041 139.54 90.1641 138.05 90.1641 136.41C90.1641 134.75 90.4041 133.26 90.8841 131.94C91.3841 130.6 92.0941 129.46 93.0141 128.52C93.9341 127.56 95.0341 126.82 96.3141 126.3C97.6141 125.78 99.0441 125.52 100.604 125.52C102.184 125.52 103.614 125.78 104.894 126.3C106.174 126.82 107.274 127.55 108.194 128.49C109.114 129.43 109.824 130.57 110.324 131.91C110.824 133.25 111.074 134.74 111.074 136.38C111.074 138.04 110.824 139.54 110.324 140.88C109.824 142.22 109.114 143.37 108.194 144.33C107.274 145.29 106.174 146.03 104.894 146.55C103.614 147.07 102.184 147.33 100.604 147.33ZM100.604 143.37C101.804 143.37 102.814 143.1 103.634 142.56C104.454 142 105.084 141.2 105.524 140.16C105.984 139.1 106.214 137.85 106.214 136.41C106.214 134.95 105.994 133.7 105.554 132.66C105.114 131.62 104.474 130.83 103.634 130.29C102.794 129.75 101.784 129.48 100.604 129.48C99.4441 129.48 98.4441 129.75 97.6041 130.29C96.7641 130.83 96.1241 131.62 95.6841 132.66C95.2441 133.7 95.0241 134.95 95.0241 136.41C95.0241 137.85 95.2441 139.1 95.6841 140.16C96.1241 141.2 96.7641 142 97.6041 142.56C98.4441 143.1 99.4441 143.37 100.604 143.37ZM111.546 147.3L111.216 143.52L113.526 143.4C114.066 143.36 114.506 143.25 114.846 143.07C115.206 142.87 115.476 142.59 115.656 142.23C115.836 141.87 115.926 141.42 115.926 140.88V125.85H120.576V140.82C120.576 142.14 120.336 143.26 119.856 144.18C119.396 145.08 118.696 145.78 117.756 146.28C116.836 146.78 115.676 147.08 114.276 147.18L111.546 147.3ZM124.837 147V125.85H139.327V129.48H129.277V134.43H138.667V138.09H129.277V143.37H139.327V147H124.837ZM153.261 147.33C150.981 147.33 149.031 146.88 147.411 145.98C145.791 145.08 144.541 143.82 143.661 142.2C142.801 140.56 142.371 138.63 142.371 136.41C142.371 134.19 142.801 132.27 143.661 130.65C144.541 129.03 145.791 127.77 147.411 126.87C149.031 125.97 150.981 125.52 153.261 125.52C154.661 125.52 156.001 125.74 157.281 126.18C158.561 126.62 159.611 127.22 160.431 127.98L158.991 131.67C158.091 130.97 157.181 130.46 156.261 130.14C155.361 129.8 154.411 129.63 153.411 129.63C151.411 129.63 149.891 130.22 148.851 131.4C147.811 132.56 147.291 134.23 147.291 136.41C147.291 138.59 147.811 140.27 148.851 141.45C149.891 142.63 151.411 143.22 153.411 143.22C154.411 143.22 155.361 143.06 156.261 142.74C157.181 142.4 158.091 141.88 158.991 141.18L160.431 144.87C159.611 145.63 158.561 146.23 157.281 146.67C156.001 147.11 154.661 147.33 153.261 147.33ZM168.227 147V129.69H161.237V125.85H179.867V129.69H172.877V147H168.227ZM189.028 147.33C187.928 147.33 186.858 147.23 185.818 147.03C184.798 146.85 183.848 146.59 182.968 146.25C182.088 145.89 181.318 145.47 180.658 144.99L182.008 141.33C182.648 141.77 183.338 142.15 184.078 142.47C184.818 142.79 185.608 143.04 186.448 143.22C187.288 143.38 188.148 143.46 189.028 143.46C190.488 143.46 191.528 143.24 192.148 142.8C192.768 142.34 193.078 141.77 193.078 141.09C193.078 140.71 192.978 140.38 192.778 140.1C192.598 139.82 192.288 139.58 191.848 139.38C191.428 139.16 190.848 138.98 190.108 138.84L186.718 138.12C184.798 137.72 183.368 137.04 182.428 136.08C181.508 135.1 181.048 133.82 181.048 132.24C181.048 130.88 181.408 129.7 182.128 128.7C182.868 127.7 183.878 126.92 185.158 126.36C186.458 125.8 187.948 125.52 189.628 125.52C190.608 125.52 191.548 125.62 192.448 125.82C193.348 126 194.178 126.27 194.938 126.63C195.698 126.99 196.358 127.42 196.918 127.92L195.568 131.34C194.768 130.7 193.868 130.22 192.868 129.9C191.868 129.56 190.778 129.39 189.598 129.39C188.758 129.39 188.038 129.5 187.438 129.72C186.858 129.94 186.408 130.25 186.088 130.65C185.788 131.05 185.638 131.51 185.638 132.03C185.638 132.61 185.848 133.08 186.268 133.44C186.688 133.8 187.418 134.09 188.458 134.31L191.848 135.03C193.808 135.45 195.268 136.13 196.228 137.07C197.188 137.99 197.668 139.21 197.668 140.73C197.668 142.05 197.308 143.21 196.588 144.21C195.888 145.19 194.888 145.96 193.588 146.52C192.308 147.06 190.788 147.33 189.028 147.33ZM209.036 147V125.85H217.316C219.716 125.85 221.756 126.27 223.436 127.11C225.136 127.93 226.426 129.13 227.306 130.71C228.206 132.27 228.656 134.17 228.656 136.41C228.656 138.65 228.206 140.56 227.306 142.14C226.426 143.72 225.136 144.93 223.436 145.77C221.756 146.59 219.716 147 217.316 147H209.036ZM213.686 143.19H217.046C219.306 143.19 220.996 142.63 222.116 141.51C223.236 140.39 223.796 138.69 223.796 136.41C223.796 134.13 223.226 132.44 222.086 131.34C220.966 130.22 219.286 129.66 217.046 129.66H213.686V143.19ZM242.079 147.33C240.519 147.33 239.089 147.07 237.789 146.55C236.509 146.03 235.409 145.29 234.489 144.33C233.569 143.37 232.859 142.22 232.359 140.88C231.879 139.54 231.639 138.05 231.639 136.41C231.639 134.75 231.879 133.26 232.359 131.94C232.859 130.6 233.569 129.46 234.489 128.52C235.409 127.56 236.509 126.82 237.789 126.3C239.089 125.78 240.519 125.52 242.079 125.52C243.659 125.52 245.089 125.78 246.369 126.3C247.649 126.82 248.749 127.55 249.669 128.49C250.589 129.43 251.299 130.57 251.799 131.91C252.299 133.25 252.549 134.74 252.549 136.38C252.549 138.04 252.299 139.54 251.799 140.88C251.299 142.22 250.589 143.37 249.669 144.33C248.749 145.29 247.649 146.03 246.369 146.55C245.089 147.07 243.659 147.33 242.079 147.33ZM242.079 143.37C243.279 143.37 244.289 143.1 245.109 142.56C245.929 142 246.559 141.2 246.999 140.16C247.459 139.1 247.689 137.85 247.689 136.41C247.689 134.95 247.469 133.7 247.029 132.66C246.589 131.62 245.949 130.83 245.109 130.29C244.269 129.75 243.259 129.48 242.079 129.48C240.919 129.48 239.919 129.75 239.079 130.29C238.239 130.83 237.599 131.62 237.159 132.66C236.719 133.7 236.499 134.95 236.499 136.41C236.499 137.85 236.719 139.1 237.159 140.16C237.599 141.2 238.239 142 239.079 142.56C239.919 143.1 240.919 143.37 242.079 143.37ZM256.146 147V125.85H259.596L270.966 140.34H270.156V125.85H274.476V147H271.056L259.686 132.48H260.466V147H256.146ZM278.734 147V125.85H293.224V129.48H283.174V134.43H292.564V138.09H283.174V143.37H293.224V147H278.734Z" fill="#00605D"/>
</svg>
