<svg width="370" height="169" viewBox="0 0 370 169" fill="none" xmlns="http://www.w3.org/2000/svg">
<path d="M33.3831 146.376L33.3876 146.377C39.5906 147.726 45.8618 148.4 52.2 148.4C63.2546 148.4 72.8809 146.378 81.0472 142.294C89.2018 138.217 95.4834 132.559 99.8561 125.317L99.8603 125.31C104.229 117.938 106.4 109.492 106.4 100C106.4 90.9242 104.502 82.8873 100.677 75.9187C96.8558 68.9595 91.5248 63.5573 84.6953 59.7312C77.8548 55.7654 69.8783 53.8 60.8 53.8C54.149 53.8 48.0171 54.9542 42.417 57.2763C40.9372 57.8899 39.5313 58.5712 38.2 59.3206V30.6H96.6H97.6V29.6V4.2V3.2H96.6H7.40002H6.40002V4.2V91.2V92.2H7.40002H27.4H27.8353L28.1319 91.8814C31.6545 88.0979 35.414 85.3178 39.406 83.5139C43.5341 81.7087 48.0611 80.8 53 80.8C59.7412 80.8 64.9348 82.6744 68.705 86.319L68.7109 86.3247L68.7169 86.3303C72.6207 89.9822 74.6 94.8369 74.6 101C74.6 107.152 72.5624 111.928 68.5432 115.446C64.6517 118.835 59.0518 120.6 51.6 120.6C45.0501 120.6 38.5618 119.487 32.1309 117.256C25.8264 115.023 19.7094 111.802 13.7795 107.585L12.7606 106.86L12.2776 108.014L2.47765 131.414L2.19012 132.1L2.76529 132.573C6.57529 135.702 11.1175 138.479 16.381 140.908L16.3907 140.912L16.4004 140.917C21.6639 143.211 27.3256 145.03 33.3831 146.376ZM142.526 139.603L142.533 139.608C150.598 145.486 160.413 148.4 171.922 148.4C183.561 148.4 193.381 145.487 201.317 139.603C209.234 133.734 215.204 125.295 219.258 114.352C223.445 103.275 225.522 89.882 225.522 74.2C225.522 58.3892 223.513 45.0617 219.458 34.2489C215.402 23.4322 209.359 15.1871 201.3 9.5841C193.366 3.84135 183.552 1 171.922 1C160.42 1 150.61 3.84368 142.547 9.58166C134.484 15.1866 128.441 23.5012 124.385 34.4505C120.331 45.2622 118.322 58.5222 118.322 74.2C118.322 90.0114 120.331 103.404 124.384 114.347L124.384 114.347L124.388 114.357C128.576 125.299 134.612 133.736 142.526 139.603ZM188.224 38.6407L188.227 38.6472L188.231 38.6537C191.851 45.7642 193.722 57.5611 193.722 74.2C193.722 90.8306 191.853 102.841 188.222 110.363C186.416 114.039 184.157 116.735 181.469 118.516C178.786 120.295 175.617 121.2 171.922 121.2C168.226 121.2 165.057 120.295 162.374 118.516C159.687 116.735 157.428 114.039 155.622 110.363C151.991 102.841 150.122 90.8306 150.122 74.2C150.122 57.5611 151.993 45.7642 155.613 38.6537C157.416 35.1125 159.673 32.5116 162.361 30.7924C165.045 29.0755 168.219 28.2 171.922 28.2C175.695 28.2 178.901 29.0772 181.583 30.7924C184.267 32.5091 186.489 35.1051 188.224 38.6407Z" stroke="#00605D" stroke-width="2"/>
<path d="M269.254 110V111H270.254H285.746H286.746V110V83.0287H313H314V82.0287V67.1107V66.1107H313H286.746V40V39H285.746H270.254H269.254V40V66.1107H243H242V67.1107V82.0287V83.0287H243H269.254V110Z" stroke="#00605D" stroke-width="2"/>
<path d="M50.485 157V132.325H61.755C63.5983 132.325 65.1617 132.64 66.445 133.27C67.7283 133.9 68.6967 134.798 69.35 135.965C70.0267 137.132 70.365 138.543 70.365 140.2C70.365 141.857 70.0267 143.28 69.35 144.47C68.6967 145.637 67.7283 146.535 66.445 147.165C65.1617 147.795 63.5983 148.11 61.755 148.11H55.91V157H50.485ZM55.91 143.91H60.845C62.245 143.91 63.3067 143.595 64.03 142.965C64.7767 142.335 65.15 141.413 65.15 140.2C65.15 138.987 64.7767 138.077 64.03 137.47C63.3067 136.863 62.245 136.56 60.845 136.56H55.91V143.91ZM73.7272 157V132.325H84.9972C87.7505 132.325 89.8739 132.99 91.3672 134.32C92.8605 135.65 93.6072 137.505 93.6072 139.885C93.6072 141.425 93.2689 142.755 92.5922 143.875C91.9155 144.995 90.9355 145.858 89.6522 146.465C88.3922 147.072 86.8405 147.375 84.9972 147.375L85.2772 146.78H86.7122C87.6922 146.78 88.5439 147.025 89.2672 147.515C90.0139 147.982 90.6555 148.705 91.1922 149.685L95.1822 157H89.1972L84.9272 149.125C84.6939 148.705 84.4255 148.378 84.1222 148.145C83.8189 147.888 83.4689 147.713 83.0722 147.62C82.6989 147.503 82.2789 147.445 81.8122 147.445H79.1522V157H73.7272ZM79.1522 143.525H84.0172C85.4639 143.525 86.5489 143.233 87.2722 142.65C88.0189 142.067 88.3922 141.192 88.3922 140.025C88.3922 138.882 88.0189 138.018 87.2722 137.435C86.5489 136.852 85.4639 136.56 84.0172 136.56H79.1522V143.525ZM109.371 157.385C107.551 157.385 105.883 157.082 104.366 156.475C102.873 155.868 101.59 155.005 100.516 153.885C99.4431 152.765 98.6147 151.423 98.0314 149.86C97.4714 148.297 97.1914 146.558 97.1914 144.645C97.1914 142.708 97.4714 140.97 98.0314 139.43C98.6147 137.867 99.4431 136.537 100.516 135.44C101.59 134.32 102.873 133.457 104.366 132.85C105.883 132.243 107.551 131.94 109.371 131.94C111.215 131.94 112.883 132.243 114.376 132.85C115.87 133.457 117.153 134.308 118.226 135.405C119.3 136.502 120.128 137.832 120.711 139.395C121.295 140.958 121.586 142.697 121.586 144.61C121.586 146.547 121.295 148.297 120.711 149.86C120.128 151.423 119.3 152.765 118.226 153.885C117.153 155.005 115.87 155.868 114.376 156.475C112.883 157.082 111.215 157.385 109.371 157.385ZM109.371 152.765C110.771 152.765 111.95 152.45 112.906 151.82C113.863 151.167 114.598 150.233 115.111 149.02C115.648 147.783 115.916 146.325 115.916 144.645C115.916 142.942 115.66 141.483 115.146 140.27C114.633 139.057 113.886 138.135 112.906 137.505C111.926 136.875 110.748 136.56 109.371 136.56C108.018 136.56 106.851 136.875 105.871 137.505C104.891 138.135 104.145 139.057 103.631 140.27C103.118 141.483 102.861 142.942 102.861 144.645C102.861 146.325 103.118 147.783 103.631 149.02C104.145 150.233 104.891 151.167 105.871 151.82C106.851 152.45 108.018 152.765 109.371 152.765ZM122.137 157.35L121.752 152.94L124.447 152.8C125.077 152.753 125.59 152.625 125.987 152.415C126.407 152.182 126.722 151.855 126.932 151.435C127.142 151.015 127.247 150.49 127.247 149.86V132.325H132.672V149.79C132.672 151.33 132.392 152.637 131.832 153.71C131.295 154.76 130.478 155.577 129.382 156.16C128.308 156.743 126.955 157.093 125.322 157.21L122.137 157.35ZM137.643 157V132.325H154.548V136.56H142.823V142.335H153.778V146.605H142.823V152.765H154.548V157H137.643ZM170.805 157.385C168.145 157.385 165.87 156.86 163.98 155.81C162.09 154.76 160.631 153.29 159.605 151.4C158.601 149.487 158.1 147.235 158.1 144.645C158.1 142.055 158.601 139.815 159.605 137.925C160.631 136.035 162.09 134.565 163.98 133.515C165.87 132.465 168.145 131.94 170.805 131.94C172.438 131.94 174.001 132.197 175.495 132.71C176.988 133.223 178.213 133.923 179.17 134.81L177.49 139.115C176.44 138.298 175.378 137.703 174.305 137.33C173.255 136.933 172.146 136.735 170.98 136.735C168.646 136.735 166.873 137.423 165.66 138.8C164.446 140.153 163.84 142.102 163.84 144.645C163.84 147.188 164.446 149.148 165.66 150.525C166.873 151.902 168.646 152.59 170.98 152.59C172.146 152.59 173.255 152.403 174.305 152.03C175.378 151.633 176.44 151.027 177.49 150.21L179.17 154.515C178.213 155.402 176.988 156.102 175.495 156.615C174.001 157.128 172.438 157.385 170.805 157.385ZM188.264 157V136.805H180.109V132.325H201.844V136.805H193.689V157H188.264ZM212.533 157.385C211.249 157.385 210.001 157.268 208.788 157.035C207.598 156.825 206.489 156.522 205.463 156.125C204.436 155.705 203.538 155.215 202.768 154.655L204.343 150.385C205.089 150.898 205.894 151.342 206.758 151.715C207.621 152.088 208.543 152.38 209.523 152.59C210.503 152.777 211.506 152.87 212.533 152.87C214.236 152.87 215.449 152.613 216.173 152.1C216.896 151.563 217.258 150.898 217.258 150.105C217.258 149.662 217.141 149.277 216.908 148.95C216.698 148.623 216.336 148.343 215.823 148.11C215.333 147.853 214.656 147.643 213.793 147.48L209.838 146.64C207.598 146.173 205.929 145.38 204.833 144.26C203.759 143.117 203.223 141.623 203.223 139.78C203.223 138.193 203.643 136.817 204.483 135.65C205.346 134.483 206.524 133.573 208.018 132.92C209.534 132.267 211.273 131.94 213.233 131.94C214.376 131.94 215.473 132.057 216.523 132.29C217.573 132.5 218.541 132.815 219.428 133.235C220.314 133.655 221.084 134.157 221.738 134.74L220.163 138.73C219.229 137.983 218.179 137.423 217.013 137.05C215.846 136.653 214.574 136.455 213.198 136.455C212.218 136.455 211.378 136.583 210.678 136.84C210.001 137.097 209.476 137.458 209.103 137.925C208.753 138.392 208.578 138.928 208.578 139.535C208.578 140.212 208.823 140.76 209.313 141.18C209.803 141.6 210.654 141.938 211.868 142.195L215.823 143.035C218.109 143.525 219.813 144.318 220.933 145.415C222.053 146.488 222.613 147.912 222.613 149.685C222.613 151.225 222.193 152.578 221.353 153.745C220.536 154.888 219.369 155.787 217.853 156.44C216.359 157.07 214.586 157.385 212.533 157.385ZM235.876 157V132.325H245.536C248.336 132.325 250.716 132.815 252.676 133.795C254.659 134.752 256.164 136.152 257.191 137.995C258.241 139.815 258.766 142.032 258.766 144.645C258.766 147.258 258.241 149.487 257.191 151.33C256.164 153.173 254.659 154.585 252.676 155.565C250.716 156.522 248.336 157 245.536 157H235.876ZM241.301 152.555H245.221C247.857 152.555 249.829 151.902 251.136 150.595C252.442 149.288 253.096 147.305 253.096 144.645C253.096 141.985 252.431 140.013 251.101 138.73C249.794 137.423 247.834 136.77 245.221 136.77H241.301V152.555ZM274.425 157.385C272.605 157.385 270.937 157.082 269.42 156.475C267.927 155.868 266.643 155.005 265.57 153.885C264.497 152.765 263.668 151.423 263.085 149.86C262.525 148.297 262.245 146.558 262.245 144.645C262.245 142.708 262.525 140.97 263.085 139.43C263.668 137.867 264.497 136.537 265.57 135.44C266.643 134.32 267.927 133.457 269.42 132.85C270.937 132.243 272.605 131.94 274.425 131.94C276.268 131.94 277.937 132.243 279.43 132.85C280.923 133.457 282.207 134.308 283.28 135.405C284.353 136.502 285.182 137.832 285.765 139.395C286.348 140.958 286.64 142.697 286.64 144.61C286.64 146.547 286.348 148.297 285.765 149.86C285.182 151.423 284.353 152.765 283.28 153.885C282.207 155.005 280.923 155.868 279.43 156.475C277.937 157.082 276.268 157.385 274.425 157.385ZM274.425 152.765C275.825 152.765 277.003 152.45 277.96 151.82C278.917 151.167 279.652 150.233 280.165 149.02C280.702 147.783 280.97 146.325 280.97 144.645C280.97 142.942 280.713 141.483 280.2 140.27C279.687 139.057 278.94 138.135 277.96 137.505C276.98 136.875 275.802 136.56 274.425 136.56C273.072 136.56 271.905 136.875 270.925 137.505C269.945 138.135 269.198 139.057 268.685 140.27C268.172 141.483 267.915 142.942 267.915 144.645C267.915 146.325 268.172 147.783 268.685 149.02C269.198 150.233 269.945 151.167 270.925 151.82C271.905 152.45 273.072 152.765 274.425 152.765ZM290.837 157V132.325H294.862L308.127 149.23H307.182V132.325H312.222V157H308.232L294.967 140.06H295.877V157H290.837ZM317.189 157V132.325H334.094V136.56H322.369V142.335H333.324V146.605H322.369V152.765H334.094V157H317.189Z" fill="#00605D"/>
</svg>
