<svg width="57" height="60" viewBox="0 0 57 60" fill="none" xmlns="http://www.w3.org/2000/svg">
<g clip-path="url(#clip0_1_244)">
<path d="M10.1998 11.1733L9.86629 11.2478L9.78136 10.9472L10.1148 10.8728L10.1998 11.1733ZM9.27865 10.4211L8.94517 10.4956L9.0301 10.7961L9.36358 10.7217L9.27865 10.4211ZM2.72965 2.37556L3.06375 2.30111L2.97882 2.00111L2.64472 2.07556L2.31124 2.14945L2.39617 2.44945L2.4811 2.75056L2.81458 2.67611L2.72965 2.37556ZM1.98838 4.77667L1.90345 4.47556L1.56997 4.55L1.6549 4.85L1.3208 4.92445L1.40573 5.22445L1.73983 5.15056L2.07331 5.07611L1.98838 4.77667ZM9.36295 10.7217L9.44788 11.0222L9.78136 10.9478L9.69643 10.6472L9.36295 10.7217ZM1.73421 3.87556L2.06831 3.80111L1.98338 3.50111L1.64928 3.57556L1.31581 3.64945L1.40074 3.95056L1.48567 4.25056L1.81914 4.17611L1.73421 3.87556ZM2.23193 3.12556L2.56603 3.05111L2.4811 2.75111L2.147 2.82556L1.81352 2.89945L1.89845 3.20056L1.98338 3.50056L2.31686 3.42611L2.23193 3.12556ZM8.92768 6.74L9.26116 6.66556L9.17623 6.36556L8.84275 6.44L8.50865 6.51389L8.59358 6.815L8.67851 7.115L9.01262 7.04056L8.92768 6.74ZM5.44367 11.9161L5.77714 11.8417L5.69221 11.5411L5.35874 11.6156L5.44367 11.9161ZM3.72633 0.876113L4.0598 0.801668L3.97487 0.501668L3.6414 0.575557L3.3073 0.650002L3.39223 0.950002L3.47716 1.25111L3.81126 1.17667L3.72633 0.876113ZM8.77531 9.895L8.44183 9.96945L8.3569 9.66889C8.33505 9.59167 8.31319 9.51389 8.29133 9.43667C8.3875 9.41556 8.48305 9.39389 8.57922 9.37222L8.63855 9.58278L8.97202 9.50834L8.9127 9.29778C9.36607 9.19667 9.81883 9.09556 10.2722 8.99389L10.1873 8.69389L10.5214 8.61945L10.4364 8.31945L10.6575 8.27L10.7793 8.70222L10.5282 8.75834L10.6132 9.05889L10.8636 9.00278C11.0703 9.73778 11.2764 10.4717 11.4831 11.2061V11.2067L11.2857 11.25L10.9523 11.3244L11.0372 11.6244L11.3707 11.5506L11.4556 11.8506L11.1221 11.925L11.0372 11.6244L10.7037 11.6989L10.6188 11.3983L10.9523 11.3239L10.8673 11.0233L10.7824 10.7228L10.4489 10.7972L10.1155 10.8717L10.0305 10.5711L9.9456 10.2706L9.61212 10.345L9.27865 10.4194L9.19372 10.1189L9.10879 9.81834L8.77531 9.895ZM10.319 10.0389L10.404 10.3394L10.7374 10.265L10.6525 9.96445L10.319 10.0389ZM10.1429 9.36167L10.2279 9.66222L10.5613 9.58778L10.4764 9.28722L10.1429 9.36167ZM9.48223 9.58722L9.56716 9.88778L9.90064 9.81334L9.81571 9.51278L9.48223 9.58722ZM8.52614 10.2694L8.44121 9.96889L8.10773 10.0433L8.19266 10.3439L8.52614 10.2694ZM4.44824 13.4156L4.78171 13.3411L4.69678 13.0406L4.36331 13.115L4.44824 13.4156ZM3.22861 1.62611L3.56209 1.55167L3.47716 1.25167L3.14368 1.32556L2.80958 1.4L2.89451 1.7L2.97944 2.00111L3.31354 1.92667L3.22861 1.62611ZM9.51033 6.29056L9.59401 6.59056L9.92811 6.51667L10.1523 6.46667L9.98369 5.86556L9.75888 5.91556L9.84381 6.21556L9.51033 6.29056ZM8.35003 8.465L8.01593 8.53945L8.10086 8.83945L8.43496 8.76556L8.76844 8.69111L8.68351 8.39111L8.59858 8.09L8.2651 8.16445L8.35003 8.465ZM9.34547 6.96556L9.01199 7.04L9.09567 7.34L9.42977 7.26611L9.76325 7.19167L9.67832 6.89167L9.59339 6.59056L9.25991 6.665L9.34547 6.96556ZM7.9385 9.44278C8.04279 9.41945 8.14707 9.39611 8.25074 9.37278L8.18517 9.14056L8.10024 8.83945L7.76676 8.91389L7.85169 9.21389L7.51759 9.28834L7.58254 9.51945C7.70182 9.49445 7.81984 9.46889 7.9385 9.44278ZM7.931 8.23945L8.2651 8.165L8.18017 7.865L7.84607 7.93945L7.5126 8.01334L7.59753 8.31445L7.68246 8.61445L8.01593 8.54L7.931 8.23945ZM8.94454 10.4956L8.85961 10.195L8.52614 10.2694L8.61107 10.57L8.94454 10.4956ZM7.76739 8.91445L7.68246 8.61445L7.34836 8.68889L7.01488 8.76278L7.09981 9.06389L7.18474 9.36389L7.51822 9.28945L7.43329 8.98945L7.76739 8.91445ZM8.84775 7.71556L8.51365 7.79L8.59858 8.09L8.93268 8.01611L9.26616 7.94167L9.18123 7.64167L9.0963 7.34056L8.76282 7.415L8.84775 7.71556ZM9.4254 5.99L9.75888 5.91556L9.67395 5.61556L9.34047 5.69L9.00637 5.76389L9.0913 6.065L9.17623 6.365L9.51033 6.29056L9.4254 5.99ZM8.42872 7.49L8.76282 7.41556L8.67789 7.11556L8.34441 7.19L8.01031 7.26389L8.09524 7.565L8.18017 7.865L8.51365 7.79056L8.42872 7.49ZM5.73031 20.4739L6.06441 20.3994L5.97948 20.0983L6.31295 20.0244L6.22802 19.7233L5.89455 19.7978L5.80962 19.4978C5.68847 19.5261 5.56732 19.5539 5.44617 19.5822C5.45304 19.6078 5.60791 20.1561 5.61478 20.1817C5.61665 20.1878 5.69721 20.475 5.69908 20.4817C5.7097 20.4794 5.71969 20.4767 5.73031 20.4739ZM2.58227 6.87889L2.49734 6.57889L2.16324 6.65334L1.82976 6.72778L1.91469 7.02778L2.24817 6.95334L2.3331 7.25334L2.6672 7.17945L2.58227 6.87889ZM2.7565 8.75611L2.4224 8.83056L2.50733 9.13056L2.84143 9.05611L2.7565 8.75611ZM10.1998 11.1733L10.2847 11.4739L10.6182 11.3994L10.5332 11.0989L10.1998 11.1733ZM1.99587 7.33389C2.02398 7.43278 2.05145 7.53167 2.07955 7.63L2.08455 7.62834L2.41803 7.55445L2.3331 7.25334C2.27439 7.26722 2.04958 7.32056 1.99587 7.33389ZM6.08876 6.735L6.00383 6.435L5.9189 6.135L5.5848 6.20945L5.49987 5.90834L5.1664 5.98278L5.25133 6.28278L4.91723 6.35722L5.00216 6.65722L4.66868 6.73167L4.75361 7.03167L4.41951 7.10611L4.50444 7.40611L4.83854 7.33222L4.92347 7.63222L5.25695 7.55778L5.34188 7.85778L5.67598 7.78389L5.59105 7.48278L5.92452 7.40889L5.83959 7.10778L6.17369 7.03389L6.08876 6.735ZM2.82582 5.22834L2.49234 5.30222L2.57602 5.60334L2.91012 5.52889L2.82582 5.22834ZM2.24317 5.67722L2.3281 5.97834L2.66158 5.90389L2.57665 5.60389L2.24317 5.67722ZM3.90618 4.02945L4.24028 3.955L4.32521 4.255L4.65869 4.18111L4.74362 4.48111L5.07772 4.40667L4.99279 4.10667L5.32626 4.03222L5.24133 3.73222L5.1564 3.43111L5.07147 3.13111L4.738 3.20556L4.65307 2.90556L4.31897 2.98L4.23404 2.67889L3.90056 2.75334L3.98549 3.05334L3.65139 3.12778L3.73632 3.42778L3.40284 3.50222L3.48777 3.80222L3.82125 3.72778L3.90618 4.02945ZM2.74588 6.20389L3.07998 6.12945L2.99505 5.82945L2.66095 5.90389L2.74588 6.20389ZM4.94595 12.6656L5.27943 12.5911L5.1945 12.2906L4.86102 12.365L4.94595 12.6656ZM4.6693 6.73278L4.58437 6.43278L4.91785 6.35834L4.83292 6.05834L5.16702 5.98389L5.08209 5.68389L4.74799 5.75834L4.66306 5.45722L4.32958 5.53167L3.99548 5.60611L3.66201 5.68056L3.74694 5.98056L3.41284 6.055L3.49777 6.355L3.16429 6.42945L3.24922 6.72945L3.5827 6.655L3.66763 6.955L4.00173 6.88111L4.08666 7.18111L4.42013 7.10667L4.3352 6.80667L4.6693 6.73278ZM2.74089 4.92778L3.07499 4.85389L3.15867 5.15389L3.49277 5.07945L3.5777 5.37945L3.91118 5.30556L4.24528 5.23111L4.57875 5.15667L4.49382 4.85667L4.82792 4.78222L4.74299 4.48222L4.40952 4.55556L4.32459 4.25445L3.99049 4.32889L3.90556 4.02889L3.57208 4.10334L3.48715 3.80222L3.15367 3.87778L3.2386 4.17778L2.90513 4.25222L2.99006 4.55222L2.65596 4.62667L2.74089 4.92778ZM6.90934 3.35834L6.99427 3.65834L6.66017 3.73278L6.7451 4.03278L6.411 4.10722L6.49593 4.40722L6.83003 4.33334L6.91496 4.63334L7.24844 4.55889L7.58254 4.48445L7.91601 4.41L7.83108 4.11L8.16518 4.03556L8.08025 3.73556L8.41436 3.66111L8.32943 3.36111L7.99532 3.43556L7.91039 3.13556L7.57692 3.20945L7.49199 2.90945L7.15789 2.98389L7.24282 3.28389L6.90934 3.35834ZM5.57481 3.65667L5.65974 3.95667L5.99322 3.88222L6.07815 4.18334L6.41162 4.10889L6.32794 3.80889L6.66142 3.73445L6.57649 3.43445L6.91059 3.36L6.82566 3.06L7.15914 2.98556L7.07421 2.68556L6.74073 2.75945L6.6558 2.45945L6.3217 2.53389L6.23677 2.23389L5.90329 2.30778L5.98822 2.60889L5.65412 2.68278L5.73905 2.98389L5.40557 3.05834L5.57481 3.65667ZM4.56814 2.60334L4.90161 2.52945L4.81668 2.22834L4.48321 2.30278L4.56814 2.60334ZM5.56857 2.38056L5.48364 2.08056L5.15016 2.155L5.23509 2.455L5.56857 2.38056ZM5.06585 1.85389L4.73175 1.92834L4.81668 2.22834L5.15078 2.15445L5.06585 1.85389ZM4.98654 2.83L5.32064 2.75556L5.23571 2.45556L4.90161 2.53L4.98654 2.83ZM7.00988 7.48778L6.67578 7.56167L6.76071 7.86278L7.09419 7.78834L7.00988 7.48778ZM8.7522 4.86334L9.0863 4.78889L9.00137 4.48889L8.66727 4.56278L8.7522 4.86334ZM8.24949 4.33667L8.33442 4.63667L8.6679 4.56222L8.58297 4.26222L8.24949 4.33667ZM8.83151 3.88722L8.49741 3.96167L8.58234 4.26167L8.91644 4.18722L8.83151 3.88722ZM10.018 8.09334L10.3521 8.01889L10.2672 7.71889L9.93311 7.79278L10.018 8.09334ZM3.81126 1.17667L3.89494 1.47667L4.22904 1.40222L4.56252 1.32834L4.47884 1.02722L4.39391 0.727224L4.0598 0.801668L4.14473 1.10167L3.81126 1.17667ZM13.3203 18.46L13.5108 18.4172C13.4821 18.3172 13.454 18.2161 13.4259 18.1161L13.2354 18.1589L13.3203 18.46ZM8.83713 5.16334L8.50366 5.23778L8.41873 4.93667L8.08463 5.01111L7.9997 4.71111L7.66622 4.78556L7.33212 4.85945L6.99864 4.93389L7.08357 5.23389L6.74947 5.30834L6.8344 5.60834L7.1685 5.53445L7.25343 5.83445L7.58691 5.76L7.67184 6.06L8.00594 5.98611L8.09087 6.28611L8.42435 6.21167L8.33942 5.91167L8.67352 5.83722L8.58859 5.53722L8.92206 5.46278L8.83713 5.16334ZM6.00883 7.71111L6.09376 8.01111L6.42724 7.93667L6.34355 7.63667L6.00883 7.71111ZM9.00137 4.48834L9.33485 4.41389L9.24992 4.11278L8.91644 4.18722L9.00137 4.48834ZM6.59148 7.26111L6.258 7.33556L6.34293 7.63556L6.67641 7.56111L6.59148 7.26111ZM6.51154 8.23722L6.84564 8.16278L6.76071 7.86278L6.42661 7.93667L6.51154 8.23722ZM7.67184 6.06222L7.33836 6.13667L7.25343 5.83667L6.91933 5.91111L6.8344 5.61L6.50093 5.68445L6.58586 5.98445L6.25176 6.05889L6.33669 6.35889L6.42162 6.66L6.50655 6.96L6.84065 6.88556L6.92558 7.18556L7.25905 7.11167L7.34398 7.41167L7.67808 7.33722L7.59315 7.03722L7.92663 6.96278L7.8417 6.66278L8.1758 6.58834L8.09087 6.28834L7.75677 6.36278L7.67184 6.06222ZM11.5399 12.1511L11.736 12.1072C11.7073 12.0072 11.6798 11.9072 11.6523 11.8072L11.4556 11.8511L11.5399 12.1511ZM5.47926 0.803891L5.81336 0.729446L5.72844 0.429446L5.6435 0.129446L5.3094 0.203891L4.97593 0.277779L5.06086 0.578891L5.39433 0.504446L5.47926 0.803891ZM1.80915 1.62334L2.14263 1.54945L2.0577 1.24834L1.72422 1.32278L1.80915 1.62334ZM0.807473 1.84722L1.14157 1.77278L1.05664 1.47278L1.39012 1.39834L1.30519 1.09834L1.63929 1.02389L1.55436 0.722224L1.22026 0.796113L1.13533 0.496113L0.801853 0.570557L0.716923 0.270557L0.383446 0.344446C0.362838 0.271668 0.341606 0.198891 0.320998 0.126113C0.207965 0.150002 0.0943086 0.173891 -0.0193481 0.197224C-0.00498493 0.240557 0.135525 0.719446 0.135525 0.719446L0.469001 0.645557L0.553931 0.945557L0.888032 0.871113L0.972963 1.17111L0.638862 1.24556L0.723792 1.54556L0.390316 1.62L0.475246 1.92111C0.498976 2.01167 0.55518 2.21167 0.560176 2.22111C0.671335 2.19611 0.782494 2.17111 0.893653 2.14667L0.807473 1.84722ZM2.64034 0.799446L2.55541 0.498335L2.22194 0.57278L2.30687 0.87278L2.64034 0.799446ZM4.81169 0.953335L4.89662 1.25334L5.23072 1.17889L5.56419 1.10445L5.47926 0.804446L5.14579 0.878891L5.06086 0.578891L4.72676 0.65278L4.81169 0.953335ZM1.2265 2.07278L1.31019 2.37389L1.64429 2.29945L1.55936 1.99945L1.2265 2.07278ZM1.80291 0.34778C1.7748 0.250002 1.7467 0.152779 1.7186 0.0555573C1.60869 0.0805573 1.49816 0.105557 1.38825 0.130557C1.41572 0.227779 1.4432 0.324446 1.47005 0.421668L1.80291 0.34778ZM3.14868 2.60111L2.81458 2.67556L2.89951 2.97556L3.23361 2.90167L3.56708 2.82722L3.48215 2.52611L3.39722 2.22611L3.06375 2.30056L3.14868 2.60111ZM2.65096 3.35111L2.31686 3.42556L2.40179 3.72556L2.73589 3.65167L3.06937 3.57722L2.98444 3.27722L2.89951 2.97611L2.56603 3.05056L2.65096 3.35111ZM2.15324 4.10111L1.81914 4.17556L1.90407 4.47556L2.23817 4.40167L2.57165 4.32722L2.48672 4.02722L2.40179 3.72611L2.06831 3.80056L2.15324 4.10111ZM1.15157 4.325L1.1447 4.32667C1.1753 4.42611 1.2059 4.52556 1.2365 4.62556C1.24274 4.62445 1.46568 4.57445 1.5706 4.55111L1.48567 4.25111L1.15157 4.325ZM1.06164 2.74778L0.727539 2.82222L0.812469 3.12334L1.14657 3.04889L1.06164 2.74778ZM3.64639 1.85167L3.31292 1.92611L3.3966 2.22611L3.7307 2.15167L4.06418 2.07778L3.97987 1.77778L3.89494 1.47667L3.56146 1.55111L3.64639 1.85167ZM8.31818 0.808891L8.23325 0.50778L7.89915 0.582224L7.98408 0.882224L8.31818 0.808891ZM6.81879 1.78222L6.73386 1.48222L6.40038 1.55611L6.48531 1.85722L6.57024 2.15722L6.90372 2.08278L7.23782 2.00834L7.15289 1.70834L6.81879 1.78222ZM6.66579 5.00945L6.33231 5.08389L6.41724 5.38445L6.08377 5.45889L6.1687 5.75945L5.83522 5.83389L5.75029 5.53334L5.41682 5.60778L5.33188 5.30722L4.99841 5.38167L4.91348 5.08111L5.24695 5.00667L5.16202 4.70611L5.4955 4.63167L5.41057 4.33111L5.74405 4.25667L5.82898 4.55722L6.16245 4.48278L6.24738 4.78334L6.58086 4.70889L6.66579 5.00945ZM5.99384 5.15945L5.99821 5.15834L5.95512 5.005L5.9189 4.86111L5.91453 4.86222L5.91328 4.85834H5.91266L5.82023 4.87889L5.75029 4.89445L5.58355 4.92778L5.5848 4.93167L5.58043 4.93278L5.6204 5.07778L5.65849 5.23L5.66286 5.22889L5.66411 5.23278L5.83272 5.195L5.99447 5.16278L5.99384 5.15945ZM5.9826 1.33056L5.89767 1.03056L5.56357 1.10445L5.6485 1.40556L5.73343 1.70556L6.06691 1.63111L6.40101 1.55667L6.31608 1.25667L5.9826 1.33056ZM8.40811 2.38556L8.07463 2.45945L8.15956 2.76056L8.2445 3.06056L8.57797 2.98611L8.91207 2.91167L8.82714 2.61167L8.49304 2.68611L8.40811 2.38556ZM7.06796 1.40722L7.15289 1.70722L7.48637 1.63278L7.40144 1.33278L7.31651 1.03278L6.98303 1.10722L6.64893 1.18111L6.73386 1.48222L7.06796 1.40722ZM7.90477 1.85889L7.9897 2.15889L8.32318 2.08445L8.23825 1.78445L8.15332 1.48445L7.81984 1.55889L7.48574 1.63278L7.57067 1.93389L7.90477 1.85889ZM7.6556 2.23389L7.57067 1.93389L7.2372 2.00778L7.32213 2.30889L7.40706 2.60889L7.74053 2.53445L8.07463 2.46L7.9897 2.16L7.6556 2.23389ZM8.74221 2.31111L8.82714 2.61111L9.05695 2.55945L8.88834 1.95889L8.65728 2.01056L8.32318 2.08445L8.40811 2.38556L8.74221 2.31111ZM6.23115 0.955557L6.31608 1.25556L6.64955 1.18111L6.56587 0.881113L6.48094 0.581113L6.14684 0.655557L5.81336 0.729446L5.8983 1.03056L6.23115 0.955557ZM3.2436 5.45389L2.91012 5.52834L2.99505 5.82834L3.32853 5.75389L3.2436 5.45389ZM9.14626 18.7528L9.06133 18.4522L8.72785 18.5267L8.81278 18.8272L9.14626 18.7528ZM9.56466 18.9789L9.47973 18.6783L9.14626 18.7528L9.23119 19.0533L9.56466 18.9789ZM7.29777 15.9728L6.9643 16.0472L7.04923 16.3478L7.3827 16.2733L7.29777 15.9728ZM8.30944 18.3011L8.22451 18.0006L7.89104 18.075L7.97597 18.3756L8.30944 18.3011ZM6.26987 9.81556C6.37416 9.79222 6.47844 9.76889 6.58273 9.745L6.51716 9.51278L6.18306 9.58722L6.09813 9.28722L5.76466 9.36167L5.84959 9.66167L5.91516 9.89389C6.03381 9.86778 6.15184 9.84167 6.26987 9.81556ZM7.54632 15.5978L7.87979 15.5233L7.79486 15.2228L7.46139 15.2972L7.54632 15.5978ZM10.8942 17.405L10.5607 17.4794L10.6456 17.78L10.9791 17.7056L10.8942 17.405ZM9.56466 18.9789L9.64959 19.2794L9.98307 19.205L9.89814 18.9044L9.56466 18.9789ZM7.47263 17.8494L7.3877 17.5489L7.05422 17.6233L7.13915 17.9239L7.47263 17.8494ZM10.1473 18.5294L9.81383 18.6039L9.89876 18.9044L10.2322 18.83L10.1473 18.5294ZM10.3009 15.3022L10.3859 15.6028L10.7193 15.5283L10.6344 15.2278L10.3009 15.3022ZM3.78066 13.565L3.7563 13.57C3.59394 12.9917 3.43157 12.4128 3.26858 11.8344L3.59643 11.7617L3.5115 11.4606L3.84498 11.3867L3.76005 11.0856L4.09415 11.0111L4.00922 10.7111L4.3427 10.6367L4.25839 10.3378C4.4651 10.2917 4.6718 10.2456 4.87851 10.1994L4.96219 10.4961L5.29567 10.4217L5.21198 10.125C5.45241 10.0711 5.69284 10.0178 5.93327 9.96389C5.97573 10.1167 6.06316 10.4128 6.08377 10.4967L5.77152 10.5667L5.43805 10.6411L5.52298 10.9417L5.60791 11.2422L5.27443 11.3167L4.94096 11.3911L5.02589 11.6917L5.11082 11.9922L4.77734 12.0667L4.44386 12.1411L4.52879 12.4417L4.61372 12.7422L4.28025 12.8167L3.94677 12.8911L4.0317 13.1917L4.11663 13.4922L4.45011 13.4178L4.53504 13.7178L4.20094 13.7922L4.11601 13.4922L3.78066 13.565ZM4.57875 10.7478L4.66368 11.0483L4.99716 10.9739L4.91223 10.6733L4.57875 10.7478ZM4.08104 11.4972L4.16597 11.7978L4.49944 11.7233L4.41451 11.4228L4.08104 11.4972ZM4.0011 12.4733L3.91617 12.1728L3.5827 12.2472L3.66763 12.5478L4.0011 12.4733ZM3.34289 10.86L3.67637 10.7856L3.59269 10.4883V10.4811L3.92492 10.4089L3.92554 10.4111L3.93303 10.4094L3.84873 10.1094L3.51463 10.1839L3.4297 9.88389L3.09622 9.95834L3.01129 9.65834L2.67469 9.735L2.75837 10.0339L2.76149 10.0333L2.84643 10.3333L3.18053 10.2589L3.26546 10.5589C3.15367 10.5833 3.04314 10.6089 2.93136 10.6333C2.98756 10.8333 3.04376 11.0339 3.09997 11.2339L3.4272 11.1606L3.34289 10.86ZM9.88253 15.0761L9.7976 14.7756L9.46412 14.85L9.54905 15.1506L9.88253 15.0761ZM5.799 16.9456L5.71407 16.645L5.3806 16.7194L5.46553 17.02L5.799 16.9456ZM4.28087 14.0911L4.28337 14.0906L4.19844 13.7906L3.86496 13.865V13.8656C3.85747 13.8672 3.84873 13.8694 3.84061 13.8706C3.86871 13.9706 3.89681 14.07 3.92429 14.17V14.1706C3.98736 14.1561 4.05106 14.1417 4.11538 14.1272C4.17159 14.1156 4.22654 14.1033 4.28087 14.0911ZM8.9714 16.8761L9.05633 17.1767L9.3898 17.1022L9.30487 16.8017L8.9714 16.8761ZM6.63582 17.3978L6.55088 17.0972L6.21741 17.1717L6.30234 17.4722L6.63582 17.3978ZM10.3009 15.3022L10.216 15.0017L9.88253 15.0761L9.96746 15.3767L10.3009 15.3022ZM10.3965 18.1544L10.063 18.2289L10.1479 18.5294L10.4814 18.455L10.3965 18.1544ZM9.53781 12.5983L9.20433 12.6728L9.28926 12.9733L9.62274 12.8989L9.53781 12.5983ZM6.53527 13.2689L6.45034 12.9683L6.11687 13.0428L6.2018 13.3433L6.53527 13.2689ZM5.88393 17.2461L6.21741 17.1717L6.13248 16.8711L5.799 16.9456L5.88393 17.2461ZM6.72075 17.6978L7.05422 17.6233L6.96929 17.3228L6.63582 17.3972L6.72075 17.6978ZM9.28926 12.9733L8.95579 13.0478L9.04072 13.3483L9.37419 13.2739L9.28926 12.9733ZM7.86418 11.695L7.77925 11.3944L7.44578 11.4689L7.53071 11.7694L7.86418 11.695ZM6.95305 13.495L7.03798 13.7956L7.37146 13.7211L7.28653 13.4206L6.95305 13.495ZM6.53527 13.2689L6.6202 13.5694L6.95368 13.495L6.86875 13.1944L6.53527 13.2689ZM9.53781 12.5983L9.87129 12.5239L9.78636 12.2233L9.45288 12.2978L9.53781 12.5983ZM8.2089 14.1728L8.29383 14.4733L8.62731 14.3989L8.54237 14.0983L8.2089 14.1728ZM7.55756 18.15L7.89104 18.0756L7.8061 17.775L7.47263 17.8494L7.55756 18.15ZM11.7254 16.5806L11.6405 16.28L11.307 16.3544L11.3919 16.655L11.7254 16.5806ZM11.6411 16.28L11.9746 16.2056L11.8896 15.905L11.5562 15.9794L11.6411 16.28ZM7.29777 15.9728L7.63125 15.8983L7.54632 15.5978L7.21284 15.6722L7.29777 15.9728ZM5.53922 14.7683L5.20574 14.8428L5.29067 15.1433L5.62415 15.0689L5.53922 14.7683ZM8.39437 18.6017L8.72785 18.5272L8.64292 18.2267L8.30944 18.3011L8.39437 18.6017ZM11.2277 17.33L11.1427 17.0294L10.8093 17.1039L10.8942 17.4044L11.2277 17.33ZM10.73 18.08L10.645 17.7794L10.3115 17.8539L10.3965 18.1544L10.73 18.08ZM11.3919 16.655L11.0584 16.7294L11.1434 17.03L11.4768 16.9556L11.3919 16.655ZM11.2114 13.5022L11.2964 13.8028L11.6298 13.7283L11.5449 13.4278L11.2114 13.5022ZM6.43973 10.4161C6.54402 10.3928 6.6483 10.3694 6.75259 10.3461C6.72449 10.2461 6.69577 10.1461 6.66766 10.0456C6.56337 10.0689 6.45909 10.0922 6.3548 10.1156L6.43973 10.4161ZM9.52032 8.84278L9.85442 8.76834L9.76949 8.46834L9.43539 8.54222L9.52032 8.84278ZM4.61248 12.74L4.69741 13.0406L5.03088 12.9661L4.94595 12.6656L4.61248 12.74ZM6.43286 9.21278L6.51779 9.51278L6.85126 9.43889L6.76633 9.13778L6.6814 8.83778L6.34793 8.91222L6.01383 8.98667L6.09876 9.28667L6.43286 9.21278ZM5.59604 8.76056L5.68097 9.06056L6.01445 8.98667L5.92952 8.68556L5.84459 8.38556L5.51111 8.46L5.17701 8.53445L5.26194 8.83445L5.59604 8.76056ZM3.92179 7.85722L4.00672 8.15834L4.34082 8.08389L4.25589 7.78278L4.17096 7.48278L3.83686 7.55722L3.50339 7.63167L3.58832 7.93167L3.92179 7.85722ZM4.75861 8.30889L4.84354 8.60889L5.17701 8.535L5.09333 8.23389L5.0084 7.93389L4.6743 8.00834L4.34082 8.08278L4.42575 8.38278L4.75861 8.30889ZM6.19056 10.7911L5.85708 10.8656L5.94201 11.1661L6.27549 11.0917L6.19056 10.7911ZM4.43075 9.66L4.09665 9.73445L4.18158 10.0344L4.51568 9.96L4.43075 9.66ZM5.60791 11.2406L5.69284 11.5411L6.02632 11.4667L5.94138 11.1661L5.60791 11.2406ZM5.11019 11.9906L5.19512 12.2911L5.5286 12.2167L5.44367 11.9161L5.11019 11.9906ZM3.08498 7.40556L3.16991 7.70556L3.50401 7.63167L3.41908 7.33056L3.33415 7.03056L3.00005 7.105L2.66657 7.17945L2.7515 7.47945L3.08498 7.40556ZM5.34625 9.13556L5.26132 8.83556L4.92784 8.91L5.01277 9.21L5.0977 9.51L5.43118 9.43611L5.76528 9.36167L5.68035 9.06056L5.34625 9.13556ZM6.10563 10.4911L6.19056 10.7917L6.52403 10.7172L6.4391 10.4167C6.32857 10.4411 6.21678 10.4661 6.10563 10.4911ZM20.9859 45.0045L16.7887 59.94C13.1767 47.0878 9.56466 34.235 5.95263 21.3822L5.98447 21.375L5.89954 21.075L6.23364 21.0006L6.14872 20.7006L6.48219 20.6261L6.39726 20.3261L6.73136 20.2517L6.64643 19.9517L6.97991 19.8772L6.89498 19.5772L6.5615 19.6517L6.47657 19.3506L6.14247 19.425L6.05754 19.125L5.72406 19.1994L5.63913 18.8983C5.57856 18.9122 5.51673 18.9261 5.45491 18.9394C5.39496 18.9528 5.33501 18.9656 5.27506 18.9783C5.24695 18.8783 5.21885 18.7789 5.19013 18.6789C5.16202 18.5789 5.13392 18.4783 5.10582 18.3783L5.46865 18.2972L5.38372 17.9967L5.02089 18.0778C4.90848 17.6772 4.79545 17.2767 4.68304 16.8767C4.69241 16.8744 4.70178 16.8722 4.71114 16.8694L5.04462 16.7956L4.95969 16.4944C4.86727 16.515 4.62809 16.5711 4.59999 16.5783C4.57064 16.4778 4.54128 16.3767 4.51193 16.2761C4.63308 16.2489 4.75423 16.2217 4.87538 16.1944L4.96032 16.495L5.29379 16.4206L5.37872 16.7211L5.04525 16.7956L5.13018 17.0961L5.21511 17.3967L5.54858 17.3222L5.88206 17.2478L5.96699 17.5483L6.05192 17.8489L6.3854 17.7744L6.71887 17.7L6.8038 18.0006L6.88873 18.3011L7.22221 18.2267L7.55569 18.1522L7.64062 18.4528L7.72555 18.7533L8.05902 18.6789L8.3925 18.6044L8.47743 18.905L8.56236 19.2056L8.89583 19.1311L8.98077 19.4317L9.31424 19.3572L9.64772 19.2828L9.73265 19.5833L9.81758 19.8839L10.1511 19.8094L10.0661 19.5089L9.98119 19.2083L10.3147 19.1339L10.6481 19.0594L10.5632 18.7589L10.8967 18.6844L10.8118 18.3839L10.7268 18.0833L11.0603 18.0089L11.3938 17.9344L11.3089 17.6339L11.2239 17.3333L11.5574 17.2589L11.8909 17.1844L11.8059 16.8839L11.721 16.5833L12.0545 16.5089L12.388 16.4344L12.303 16.1339L12.2181 15.8333L11.8846 15.9078L11.7997 15.6072L12.1332 15.5328L12.0482 15.2322L12.3817 15.1578L12.2968 14.8572L11.9633 14.9317L11.6298 15.0061L11.7148 15.3067L11.7997 15.6072L11.4662 15.6817L11.1327 15.7561L11.2177 16.0567L11.3026 16.3572L10.9691 16.4317L10.6357 16.5061L10.7206 16.8067L10.8055 17.1072L10.472 17.1817L10.1386 17.2561L10.2235 17.5567L10.3084 17.8572L9.97495 17.9317L9.64147 18.0061L9.7264 18.3067L9.39293 18.3811L9.308 18.0806L8.97452 18.155L8.64104 18.2294L8.55611 17.9289L8.47118 17.6283L8.13771 17.7028L7.80423 17.7772L7.7193 17.4767L7.63437 17.1761L7.30089 17.2506L6.96742 17.325L6.88249 17.0244L6.79756 16.7239L6.46408 16.7983L6.1306 16.8728L6.04567 16.5722L5.96074 16.2717L5.62727 16.3461L5.29379 16.4206L5.20886 16.12L5.12393 15.8194L4.79045 15.8939C4.67055 15.9206 4.55003 15.9467 4.43013 15.9733C4.28962 15.4733 4.14848 14.9728 4.00797 14.4728C4.12725 14.4461 4.24715 14.4194 4.36643 14.3928L4.70053 14.3183L4.6156 14.0183L4.53067 13.7178L4.86414 13.6433L5.19762 13.5689L5.11269 13.2683L5.02776 12.9678L5.36124 12.8933L5.69471 12.8189L5.60978 12.5183L5.52485 12.2178L5.85833 12.1433L6.1918 12.0689L6.10687 11.7683L6.02194 11.4678L6.35542 11.3933L6.6889 11.3189L6.60397 11.0183L6.51904 10.7178L6.85251 10.6433L7.18599 10.5689L7.10106 10.2683L7.01613 9.96778C6.8981 9.99389 6.78007 10.0206 6.66142 10.0467C6.63956 9.96945 6.61771 9.89167 6.59585 9.81445C6.60272 9.81278 6.61021 9.81056 6.61708 9.80945C6.94369 9.73722 7.26967 9.66389 7.59628 9.59056C7.61751 9.66834 7.63937 9.74611 7.6606 9.82389C7.77925 9.79722 7.8979 9.77056 8.01718 9.74445L8.10211 10.045L7.76864 10.1194L7.68371 9.81889L7.35023 9.89334L7.43516 10.1939L7.52009 10.4944L7.85357 10.42L8.18704 10.3456L8.27197 10.6461L8.3569 10.9467L8.69038 10.8722L9.02386 10.7978L9.10879 11.0983L9.19372 11.3989L9.52719 11.3244L9.86067 11.25L9.9456 11.5506L10.0305 11.8511L10.364 11.7767L10.6975 11.7022L10.7824 12.0028L10.8673 12.3033L11.2008 12.2289L11.5343 12.1544L11.6192 12.4544L11.7042 12.7556L11.9009 12.7117C12.0408 13.2128 12.1819 13.7133 12.323 14.2144L12.1282 14.2578L12.2131 14.5578L12.298 14.8578L12.4923 14.8144C12.5197 14.9144 12.5485 15.0156 12.5772 15.1156L12.383 15.1589L12.4679 15.4589L12.1338 15.5333L12.2187 15.8333L12.5528 15.7589L12.7458 15.7156C12.9144 16.3167 13.083 16.9178 13.2529 17.5189L13.0618 17.5617L13.1467 17.8617L12.8126 17.9361L12.8976 18.2361L12.5641 18.3106L12.649 18.6106L12.9825 18.5361L13.0674 18.8372L13.4015 18.7628L13.4852 19.0628L13.6757 19.02C16.1149 27.68 18.5498 36.3417 20.9859 45.0045ZM8.36752 12.2211L8.03404 12.2956L8.11897 12.5961L8.2039 12.8967L8.28883 13.1972L8.62231 13.1228L8.70724 13.4233L9.04072 13.3489L9.12565 13.6494L9.45912 13.575L9.54405 13.8756L9.87753 13.8011L10.211 13.7267L10.5445 13.6522L10.4596 13.3517L10.793 13.2772L10.7081 12.9767L11.0416 12.9022L10.9566 12.6017L10.6232 12.6761L10.5382 12.3756L10.2048 12.45L10.1198 12.1494L9.78636 12.2239L9.70142 11.9233L9.36795 11.9978L9.28302 11.6972L8.94954 11.7717L8.86461 11.4711L8.53113 11.5456L8.61607 11.8461L8.28259 11.9206L8.36752 12.2211ZM8.96078 14.3239L9.29426 14.2494L9.20933 13.9489L8.87585 14.0233L8.79092 13.7228L8.45745 13.7972L8.37252 13.4967L8.03904 13.5711L8.12397 13.8717L7.79049 13.9461L7.87542 14.2467L7.54195 14.3211L7.62688 14.6217L7.96035 14.5472L8.04528 14.8478L8.37876 14.7733L8.46369 15.0739L8.79717 14.9994L8.71224 14.6989L9.04571 14.6244L8.96078 14.3239ZM7.1123 11.5433L7.19723 11.8439L7.53071 11.7694L7.61564 12.07L7.94911 11.9956L7.86418 11.695L8.19766 11.6206L8.11273 11.32L7.77925 11.3944L7.69432 11.0939L7.36085 11.1683L7.44578 11.4689L7.1123 11.5433ZM5.28505 13.8672L5.36998 14.1678L5.70346 14.0933L5.78839 14.3939L6.12186 14.3194L6.20679 14.62L6.54027 14.5456L6.87374 14.4711L7.20722 14.3967L7.12229 14.0961L7.45577 14.0217L7.37084 13.7211L7.70431 13.6467L7.61938 13.3461L7.95286 13.2717L7.86793 12.9711L7.783 12.6706L7.69807 12.37L7.36459 12.4444L7.27966 12.1439L6.94619 12.2183L6.86126 11.9178L6.52778 11.9922L6.61271 12.2928L6.27923 12.3672L6.36416 12.6678L6.03069 12.7422L6.11562 13.0428L5.78214 13.1172L5.86707 13.4178L5.53359 13.4922L5.61853 13.7928L5.28505 13.8672ZM5.70908 15.3694L5.62415 15.0689L5.95762 14.9944L5.87269 14.6939L5.53922 14.7683L5.45428 14.4678L5.12081 14.5428L5.20574 14.8433L4.87226 14.9178L4.95719 15.2183L5.29067 15.1439L5.3756 15.4444L5.70908 15.3694ZM8.46806 16.35L8.80154 16.2756L8.71661 15.975L8.63168 15.6744L8.54675 15.3739L8.21327 15.4483L8.12834 15.1478L7.79486 15.2222L7.70993 14.9217L7.37646 14.9961L7.29153 14.6956L6.95805 14.77L6.62457 14.8444L6.2911 14.9189L6.37603 15.2194L6.04255 15.2939L6.12748 15.5944L5.79401 15.6689L5.87894 15.9694L6.21241 15.895L6.29734 16.1956L6.63082 16.1211L6.71575 16.4217L7.04923 16.3472L7.13416 16.6478L7.46763 16.5733L7.55256 16.8739L7.88604 16.7994L7.97097 17.1L8.30445 17.0256L8.21951 16.725L8.55299 16.6506L8.46806 16.35ZM9.72328 17.0272L9.63835 16.7267L9.30487 16.8011L9.21994 16.5006L8.88647 16.575L8.9714 16.8756L8.63792 16.95L8.72285 17.2506L9.05633 17.1761L9.14126 17.4767L9.47474 17.4022L9.3898 17.1017L9.72328 17.0272ZM11.5505 14.7033L11.4656 14.4028L11.1321 14.4772L11.0472 14.1767L10.7137 14.2511L10.6288 13.9506L10.2953 14.025L9.96184 14.0994L9.62836 14.1739L9.71329 14.4744L9.37981 14.5489L9.46474 14.8494L9.13127 14.9239L9.2162 15.2244L8.88272 15.2989L8.96765 15.5994L9.05258 15.9L9.13751 16.2006L9.47099 16.1261L9.55592 16.4267L9.88939 16.3522L9.97433 16.6528L10.3078 16.5783L10.2229 16.2778L10.5563 16.2033L10.4714 15.9028L10.8049 15.8283L10.72 15.5278L11.0534 15.4533L10.9685 15.1528L11.302 15.0783L11.2171 14.7778L11.5505 14.7033ZM11.6298 13.7278L11.9633 13.6533L11.8784 13.3528L11.5449 13.4272L11.46 13.1267L11.1265 13.2011L11.2114 13.5017L10.878 13.5761L10.9629 13.8767L11.2964 13.8022L11.3813 14.1028L11.7148 14.0283L11.6298 13.7278ZM6.30733 18.7483L6.2224 18.4478L5.88893 18.5222L5.97386 18.8228L6.30733 18.7483ZM7.14415 19.2L7.05922 18.8994L6.72574 18.9739L6.81067 19.2744L7.14415 19.2ZM6.48781 21.9011L6.40288 21.6006L6.06941 21.675L6.15434 21.9756L6.48781 21.9011ZM6.98553 21.1517L6.9006 20.8511L6.56712 20.9256L6.65205 21.2261L6.98553 21.1517ZM7.48324 20.4017L7.39831 20.1011L7.06484 20.1756L7.14977 20.4761L7.48324 20.4017ZM7.98096 19.6517L7.89603 19.3511L7.56255 19.4256L7.64748 19.7261L7.98096 19.6517ZM11.9852 18.7578L11.9002 18.4572L11.5668 18.5317L11.6517 18.8322L11.9852 18.7578ZM12.5622 17.0322L12.6471 17.3328L12.9806 17.2583L12.8957 16.9578L12.5622 17.0322ZM12.1494 18.0822L12.4829 18.0078L12.398 17.7072L12.0645 17.7817L12.1494 18.0822ZM12.822 19.2094L12.7371 18.9089L12.4036 18.9833L12.4885 19.2839L12.822 19.2094ZM13.6588 19.6611L13.5739 19.3606L13.2404 19.435L13.3253 19.7356L13.6588 19.6611ZM3.59394 9.20834L3.25984 9.28278L3.34477 9.58278L3.67887 9.50834L3.59394 9.20834ZM2.83643 7.78056L2.7515 7.48056L2.4174 7.555L2.50233 7.855L2.58726 8.155L2.92136 8.08056L3.25484 8.00667L3.16991 7.70556L2.83643 7.78056ZM4.50944 8.68389L4.42575 8.38389L4.09165 8.45834L4.17658 8.75834L4.26151 9.05834L4.59499 8.98389L4.92909 8.91L4.84416 8.60889L4.50944 8.68389ZM3.67325 8.23222L3.58832 7.93222L3.25422 8.00667L3.33915 8.30667L3.42408 8.60667L3.75755 8.53222L4.09165 8.45834L4.00672 8.15834L3.67325 8.23222ZM9.04571 9.13111L9.37919 9.05667L9.29426 8.75611L8.96078 8.83056L9.04571 9.13111Z" fill="url(#paint0_linear_1_244)"/>
<path d="M32.3259 34.5211L29.3802 45.0044C28.7314 47.3144 28.0819 49.6239 27.4331 51.9339C27.0596 53.2622 26.6862 54.59 26.3128 55.9183L25.1831 59.9406H16.7887L25.1831 30.0694L32.3259 34.5211Z" fill="#00605D"/>
<path d="M39.3084 9.67723L37.7746 15.1333H29.3802L31.4086 7.91778C32.1005 7.75278 32.8274 7.66556 33.5774 7.66556C34.3281 7.66556 35.055 7.75278 35.7463 7.91778C37.0989 8.23778 38.316 8.85111 39.3084 9.67723Z" fill="#00605D"/>
<path d="M56.5218 9.51056L42.0149 27.9361L41.9718 27.9094L35.3585 23.76L53.9064 0.203888L56.5218 9.51056Z" fill="#00605D"/>
<path d="M42.7504 55.1623L42.4586 55.3245L42.6433 55.5874L42.9351 55.4252L42.7504 55.1623Z" fill="#00605D"/>
<path d="M47.2048 53.4162L46.913 53.5784L47.0976 53.8412L47.3894 53.679L47.2048 53.4162Z" fill="#00605D"/>
<path d="M42.3219 56.8605L42.0302 57.0227L42.2148 57.2856L42.5066 57.1233L42.3219 56.8605Z" fill="#00605D"/>
<path d="M45.2995 53.0149L45.0078 53.1771L45.1921 53.4395L45.4839 53.2773L45.2995 53.0149Z" fill="#00605D"/>
<path d="M46.2569 53.2194L45.9651 53.3816L46.1497 53.6445L46.4416 53.4823L46.2569 53.2194Z" fill="#00605D"/>
<path d="M42.9651 54.3131L42.6733 54.4753L42.8577 54.7377L43.1494 54.5755L42.9651 54.3131Z" fill="#00605D"/>
<path d="M42.5417 56.0153L42.2499 56.1775L42.4345 56.4404L42.7264 56.2782L42.5417 56.0153Z" fill="#00605D"/>
<path d="M43.1848 53.466L42.893 53.6282L43.0777 53.8911L43.3695 53.7289L43.1848 53.466Z" fill="#00605D"/>
<path d="M42.6435 55.5865L42.3517 55.7487L42.536 56.0111L42.8278 55.8489L42.6435 55.5865Z" fill="#00605D"/>
<path d="M42.8634 54.741L42.5716 54.9032L42.7562 55.1661L43.0481 55.0039L42.8634 54.741Z" fill="#00605D"/>
<path d="M43.0775 53.8911L42.7856 54.0533L42.9703 54.3163L43.2621 54.154L43.0775 53.8911Z" fill="#00605D"/>
<path d="M44.3471 52.8137L44.0554 52.9759L44.24 53.2388L44.5318 53.0766L44.3471 52.8137Z" fill="#00605D"/>
<path d="M46.6734 55.5443L46.3815 55.7065L46.5662 55.9695L46.858 55.8072L46.6734 55.5443Z" fill="#00605D"/>
<path d="M45.7759 53.1145L45.4841 53.2767L45.6687 53.5396L45.9605 53.3774L45.7759 53.1145Z" fill="#00605D"/>
<path d="M46.8825 54.6907L46.5907 54.8529L46.7753 55.1158L47.0671 54.9536L46.8825 54.6907Z" fill="#00605D"/>
<path d="M46.734 53.3186L46.4421 53.4808L46.6268 53.7437L46.9186 53.5815L46.734 53.3186Z" fill="#00605D"/>
<path d="M48.9773 55.3595L48.6854 55.5217L48.8701 55.7846L49.1619 55.6224L48.9773 55.3595Z" fill="#00605D"/>
<path d="M46.7813 55.119L46.4894 55.2812L46.6738 55.5436L46.9656 55.3814L46.7813 55.119Z" fill="#00605D"/>
<path d="M43.9647 56.3127L43.6729 56.4749L43.8576 56.7378L44.1494 56.5756L43.9647 56.3127Z" fill="#00605D"/>
<path d="M44.9229 56.5177L44.631 56.6799L44.8157 56.9428L45.1075 56.7806L44.9229 56.5177Z" fill="#00605D"/>
<path d="M44.4464 56.4173L44.1545 56.5795L44.3389 56.8419L44.6307 56.6797L44.4464 56.4173Z" fill="#00605D"/>
<path d="M50.1613 57.623L49.8694 57.7852L50.0538 58.0476L50.3456 57.8854L50.1613 57.623Z" fill="#00605D"/>
<path d="M44.8291 52.9172L44.5373 53.0794L44.7219 53.3423L45.0138 53.1801L44.8291 52.9172Z" fill="#00605D"/>
<path d="M44.6911 54.4549L44.3992 54.6171L44.5839 54.88L44.8757 54.7178L44.6911 54.4549Z" fill="#00605D"/>
<path d="M46.346 56.8154L46.0543 56.9776L46.2386 57.2401L46.5304 57.0779L46.346 56.8154Z" fill="#00605D"/>
<path d="M45.8151 58.9436L45.5233 59.1059L45.708 59.3688L45.9998 59.2066L45.8151 58.9436Z" fill="#00605D"/>
<path d="M47.7801 57.1208L47.4883 57.283L47.6729 57.5459L47.9648 57.3837L47.7801 57.1208Z" fill="#00605D"/>
<path d="M46.0243 58.0897L45.7325 58.2519L45.9172 58.5148L46.209 58.3526L46.0243 58.0897Z" fill="#00605D"/>
<path d="M45.9227 58.518L45.6309 58.6802L45.8156 58.9431L46.1074 58.7809L45.9227 58.518Z" fill="#00605D"/>
<path d="M52.6949 59.4972C52.6337 59.41 52.5725 59.3222 52.5113 59.235C52.4139 59.2889 52.3165 59.3428 52.2191 59.3972L52.4039 59.6594L52.6949 59.4972Z" fill="#00605D"/>
<path d="M43.7206 58.2746L43.4288 58.4368L43.6134 58.6997L43.9052 58.5375L43.7206 58.2746Z" fill="#00605D"/>
<path d="M48.2565 57.2212L47.9647 57.3834L48.1494 57.6463L48.4412 57.4841L48.2565 57.2212Z" fill="#00605D"/>
<path d="M48.727 57.3177L48.4352 57.4799L48.6196 57.7424L48.9114 57.5801L48.727 57.3177Z" fill="#00605D"/>
<path d="M48.0119 59.1836L47.7201 59.3458L47.9047 59.6087L48.1966 59.4465L48.0119 59.1836Z" fill="#00605D"/>
<path d="M51.6358 59.7211L51.928 59.5589L51.7432 59.2961L52.0342 59.1339L51.8506 58.8711L52.1416 58.7089L51.9568 58.4461L52.0017 58.4211L51.9974 58.4161L51.0019 57.1511L50.7428 57.2955L50.4505 57.4578L50.2663 57.1956L49.9746 57.3578L50.1589 57.6206L50.4505 57.4583L50.6347 57.7211L50.819 57.9839L50.5273 58.1461L50.2357 58.3083L50.4199 58.5711L50.6041 58.8339L50.3125 58.9961L50.0209 59.1583L49.8366 58.8955L49.545 59.0578L49.7292 59.3206L49.4376 59.4828L49.6218 59.7456L49.3302 59.9078L49.1459 59.645L48.9617 59.3822L49.2534 59.22L49.545 59.0578L49.3608 58.795L49.1765 58.5322L49.4682 58.37L49.7598 58.2078L49.5756 57.945L49.3914 57.6822L49.683 57.52L49.9746 57.3578L49.7904 57.095L49.6062 56.8322L49.8978 56.67L50.1895 56.5078L50.3737 56.7705L50.0821 56.9328L50.2663 57.195L50.5585 57.0328L50.3737 56.7705L50.6029 56.6433L50.5985 56.6383L50.403 56.3894L50.1901 56.5078L50.0052 56.245L49.8204 55.9822L50.0027 55.8817L49.9984 55.8767L49.0029 54.6111L48.898 54.6689L48.7132 54.4061L48.5296 54.1433L48.6026 54.1028L48.5983 54.0978L48.4028 53.85L48.3447 53.8817L48.529 54.1439L48.2373 54.3061L47.9457 54.4683L47.7615 54.2056L47.5766 53.9428L47.285 54.105L46.9933 54.2672L46.8091 54.0044L46.6249 53.7417L46.3333 53.9039L46.0416 54.0661L45.8574 53.8033L45.6732 53.5405L45.3815 53.7028L45.0899 53.865L44.9057 53.6022L44.7215 53.3394L44.4298 53.5017L44.1382 53.6639L43.954 53.4011L43.7697 53.1383L44.0614 52.9761L43.8771 52.7133L44.1688 52.5511L44.4604 52.3889L44.6446 52.6517L44.8289 52.9144L45.1205 52.7522L45.4121 52.59L45.5964 52.8528L45.7806 53.1156L46.0722 52.9533L46.3639 52.7911L46.5481 53.0539L46.7323 53.3167L47.0239 53.1544L47.3156 52.9922L47.4998 53.255L47.684 53.5178L47.3924 53.68L47.5766 53.9428L47.8682 53.7806L48.0525 54.0433L48.3441 53.8811L48.1599 53.6183L47.8676 53.7806L47.684 53.5178L47.975 53.3556L48.0019 53.3411L47.9975 53.3361L34.014 35.5739L31.398 44.8811L41.4822 57.6883L41.8819 58.1961L43.2552 59.94C43.1965 59.865 43.1371 59.79 43.0784 59.7156C43.1865 59.6606 43.2945 59.605 43.4025 59.55L43.6935 59.3878L43.8784 59.6505C43.9465 59.7472 44.0139 59.8433 44.082 59.94L44.0632 59.9128L44.3555 59.7506L44.6465 59.5883L44.8314 59.8511L44.8938 59.9394H45.3285L45.5995 59.7889L45.705 59.9394H49.2708L49.332 59.9056L49.3558 59.9394H49.7623L49.6243 59.7433L49.9153 59.5811L49.7317 59.3183L50.0227 59.1561L50.2076 59.4183L50.3924 59.6811L50.1002 59.8433L49.9278 59.9394H51.79L51.6358 59.7211ZM47.1139 52.5683L46.8222 52.7306L46.638 52.4678L46.9296 52.3055L47.1139 52.5683ZM46.5275 51.7094L46.7117 51.9722L46.4201 52.1344L46.2358 51.8717L46.5275 51.7094ZM45.9767 52.1044L46.1609 52.3672L45.8693 52.5294L45.685 52.2667L45.9767 52.1044ZM45.2192 51.5278L45.4034 51.7905L45.1118 51.9528L44.9275 51.69L45.2192 51.5278ZM48.4996 55.2561L48.7912 55.0939L48.9761 55.3567L49.2677 55.1944L49.4519 55.4572L49.1603 55.6194L49.3445 55.8822L49.0529 56.0444L48.8687 55.7817L48.577 55.9439L48.3928 55.6811L48.6845 55.5189L48.4996 55.2561ZM45.3503 54.8155L45.6419 54.6533L45.4577 54.3906L45.7494 54.2283L45.9336 54.4911L46.2252 54.3289L46.4094 54.5917L46.7011 54.4294L46.8853 54.6922L47.1769 54.53L47.3612 54.7928L47.6528 54.6305L47.837 54.8933L48.1287 54.7311L48.3129 54.9939L48.0231 55.1556L48.2073 55.4183L47.9157 55.5806L48.0999 55.8433L47.8083 56.0055L47.5167 56.1678L47.225 56.33L47.0408 56.0672L46.7492 56.2294L46.5649 55.9667L46.2733 56.1289L46.0891 55.8661L45.7974 56.0283L45.6132 55.7656L45.429 55.5028L45.2448 55.24L45.5364 55.0778L45.3503 54.8155ZM47.0108 57.1794L46.7192 57.3417L46.9034 57.6044L46.6118 57.7667L46.4276 57.5039L46.1359 57.6661L45.9517 57.4033L45.6601 57.5656L45.4758 57.3028L45.7675 57.1406L45.5832 56.8778L45.8749 56.7156L45.6907 56.4528L45.9823 56.2905L46.1665 56.5533L46.4582 56.3911L46.643 56.6539L46.9346 56.4917L47.1189 56.7544L46.8272 56.9167L47.0108 57.1794ZM44.398 54.6144L44.2137 54.3517L44.5054 54.1894L44.6896 54.4522L44.9812 54.29L45.1655 54.5528L44.8738 54.715L45.0581 54.9778L44.7664 55.14L44.5822 54.8772L44.2906 55.0394L44.1063 54.7767L44.398 54.6144ZM43.9989 55.2011L44.1831 55.4639L44.4748 55.3017L44.659 55.5644L44.9506 55.4022L45.1349 55.665L45.3191 55.9278L45.5033 56.1905L45.2117 56.3528L45.3959 56.6156L45.1043 56.7778L45.2885 57.0406L44.9969 57.2028L45.1811 57.4656L44.8894 57.6278L44.5978 57.79L44.3062 57.9522L44.1213 57.6894L43.8297 57.8517L43.6455 57.5889L43.3538 57.7511L43.1696 57.4883L43.4612 57.3261L43.277 57.0633L43.5686 56.9011L43.3844 56.6383L43.6761 56.4761L43.4918 56.2133L43.7835 56.0511L43.5992 55.7883L43.8909 55.6261L43.7067 55.3633L43.9989 55.2011ZM41.712 54.5505L41.8963 54.8133L41.6046 54.9755L41.4204 54.7128L41.712 54.5505ZM41.1756 56.6744L40.9914 56.4117L41.283 56.2494L41.4672 56.5122L41.1756 56.6744ZM41.3904 55.825L41.2062 55.5622L41.4978 55.4L41.6821 55.6628L41.3904 55.825ZM42.8018 56.9622L42.986 57.225L42.6944 57.3872L42.4027 57.5494L42.587 57.8122L42.7712 58.075L42.4795 58.2372L42.1879 58.3994L42.0037 58.1367L41.8882 58.2006L41.4885 57.6928L41.6346 57.6111L41.9269 57.4489L42.1105 57.7111L41.8195 57.8733L42.0043 58.1361L42.2959 57.9739L42.1117 57.7111L42.4034 57.5489L42.2191 57.2861L41.9275 57.4483L41.7433 57.1855L41.559 56.9228L41.8507 56.7605L42.1423 56.5983L41.9581 56.3355L41.7739 56.0728L42.0655 55.9106L42.3571 55.7483L42.1729 55.4855L41.9887 55.2228L42.2803 55.0606L42.572 54.8983L42.3877 54.6355L42.2035 54.3728L42.4952 54.2105L42.7868 54.0483L42.6026 53.7856L42.4183 53.5228L42.71 53.3605L43.0016 53.1983L43.1858 53.4611L43.4775 53.2989L43.6617 53.5617L43.8459 53.8244L43.5543 53.9867L43.2627 54.1489L43.4469 54.4117L43.6311 54.6744L43.3395 54.8367L43.0478 54.9989L43.2321 55.2617L43.4163 55.5244L43.1246 55.6867L42.833 55.8489L43.0172 56.1117L43.2014 56.3744L42.9098 56.5367L42.6182 56.6989L42.8018 56.9622ZM44.0932 58.8011L43.8016 58.9633L43.6174 58.7006L43.3257 58.8628L43.1415 58.6L43.4331 58.4378L43.2489 58.175L43.5405 58.0128L43.7248 58.2755L44.0164 58.1133L44.2006 58.3761L43.909 58.5383L44.0932 58.8011ZM47.2425 59.2417L46.9509 59.4039L47.1351 59.6667L46.8435 59.8289L46.6592 59.5661L46.3676 59.7283L46.1834 59.4656L45.8917 59.6278L45.7075 59.365L45.4159 59.5272L45.2317 59.2644L44.94 59.4267L44.7558 59.1639L44.4642 59.3261L44.2799 59.0633L44.5716 58.9011L44.3874 58.6383L44.679 58.4761L44.4948 58.2133L44.7864 58.0511L45.078 57.8889L45.3697 57.7267L45.5539 57.9894L45.8455 57.8272L46.0298 58.09L46.3214 57.9278L46.5056 58.1906L46.7973 58.0283L46.9815 58.2911L47.1657 58.5539L47.3499 58.8167L47.0583 58.9789L47.2425 59.2417ZM48.3797 59.705L48.0881 59.8672L47.9038 59.6044L47.6122 59.7667L47.428 59.5039L47.7196 59.3417L47.5354 59.0789L47.827 58.9167L48.0113 59.1794L48.3029 59.0172L48.4871 59.28L48.1955 59.4422L48.3797 59.705ZM48.5939 58.8556L48.4097 58.5928L48.118 58.755L47.9338 58.4922L47.6422 58.6544L47.458 58.3917L47.2737 58.1289L47.0895 57.8661L47.3811 57.7039L47.1969 57.4411L47.4886 57.2789L47.3043 57.0161L47.596 56.8539L47.4117 56.5911L47.7034 56.4289L47.995 56.2667L48.2867 56.1044L48.4709 56.3672L48.7625 56.205L48.9467 56.4678L49.2384 56.3055L49.4226 56.5683L49.131 56.7306L49.3152 56.9933L49.0236 57.1556L49.2078 57.4183L48.9161 57.5805L49.1004 57.8433L48.8087 58.0055L48.993 58.2683L48.7013 58.4305L48.8855 58.6933L48.5939 58.8556ZM51.4815 58.3461L51.6658 58.6089L51.3741 58.7711L51.1899 58.5083L51.4815 58.3461ZM51.1593 59.6206L50.9751 59.3578L51.2667 59.1956L51.4509 59.4583L51.1593 59.6206Z" fill="#00605D"/>
<path d="M42.4291 56.4358L42.1373 56.598L42.3216 56.8604L42.6134 56.6982L42.4291 56.4358Z" fill="#00605D"/>
<path d="M49.9472 58.4728L49.6554 58.635L49.8397 58.8975L50.1315 58.7352L49.9472 58.4728Z" fill="#00605D"/>
<path d="M50.0545 58.0478L49.7627 58.21L49.9473 58.4729L50.2392 58.3107L50.0545 58.0478Z" fill="#00605D"/>
<path d="M49.2627 59.9444H49.3582L49.3557 59.94H49.2702L49.2627 59.9444Z" fill="#00605D"/>
<path d="M45.321 59.9444H45.7075L45.705 59.94H45.3285L45.321 59.9444Z" fill="#00605D"/>
<path d="M44.0851 59.9444C44.0839 59.9433 44.0832 59.9417 44.082 59.94H43.2558C43.3926 59.9422 43.9484 59.945 44.0851 59.9444Z" fill="#00605D"/>
<path d="M51.0026 57.1511L51.0044 57.15L50.6048 56.6422L50.6035 56.6433L50.9988 57.1455L51.0026 57.1511Z" fill="#00605D"/>
<path d="M52.999 59.6861L53.1989 59.94H51.79L51.7932 59.9444H53.2051C53.0065 59.6928 52.8086 59.4406 52.61 59.1889C52.5419 59.1022 52.4732 59.0155 52.4052 58.9289L52.0049 58.4205L52.003 58.4217L52.3995 58.925L52.999 59.6861Z" fill="#00605D"/>
<path d="M44.0851 59.9444H44.8969L44.8938 59.94H44.082L44.0851 59.9444Z" fill="#00605D"/>
<path d="M49.003 54.6111L49.0048 54.61L48.6045 54.1017L48.6027 54.1028L48.9992 54.6061L49.003 54.6111Z" fill="#00605D"/>
<path d="M49.7648 59.9444H49.9203L49.9278 59.94H49.7617L49.7648 59.9444Z" fill="#00605D"/>
<path d="M48.4028 53.8494L48.4047 53.8483L48.0044 53.34L48.0025 53.3406L48.3991 53.8439L48.4028 53.8494Z" fill="#00605D"/>
<path d="M50.4037 56.3889L50.4049 56.3883L50.0046 55.8805L50.0027 55.8811L50.3993 56.3839L50.4037 56.3889Z" fill="#00605D"/>
<path d="M35.4721 52.1872L41.3148 59.6072C40.1739 59.8261 38.9898 59.9405 37.7746 59.9405C36.3701 59.9405 35.0062 59.7872 33.7017 59.4978C33.6605 59.4889 33.6186 59.48 33.5774 59.4694C33.5306 59.4589 33.4825 59.4483 33.4356 59.4367C30.7329 58.795 28.2974 57.5689 26.3127 55.9183L27.2813 52.4728L29.3802 45.005C29.3802 46.2778 29.7381 47.4755 30.3688 48.5239C31.1082 49.7533 32.2229 50.7767 33.5774 51.4728C34.1669 51.7761 34.8027 52.0183 35.4721 52.1872Z" fill="url(#paint1_linear_1_244)"/>
<path d="M54.564 45.0044C54.564 46.0833 54.4353 47.1355 54.1905 48.15C53.8589 49.5278 53.3144 50.8344 52.5862 52.0422C52.5862 52.0428 52.5856 52.0428 52.5856 52.0439V52.0444C52.4994 52.1883 52.4101 52.3311 52.3177 52.4722C52.0129 52.9411 51.6807 53.3944 51.321 53.8289C51.1087 54.0855 50.8876 54.3367 50.6578 54.5811L45.4702 47.9917C45.9198 47.0767 46.1696 46.0667 46.1696 45.0044C46.1696 44.2922 46.0572 43.6028 45.848 42.95C45.6837 42.4372 45.4583 41.9472 45.1804 41.4855C44.4416 40.2561 43.3263 39.2328 41.9718 38.5355L40.3687 37.5361L39.9472 37.2733L34.6797 33.9905V33.99L33.5774 33.3039L32.8043 32.8217L30.648 31.4772L28.3879 30.0689C28.3879 30.0689 25.3461 28.1539 25.1831 28.0705C24.9589 27.9555 24.7384 27.8355 24.5205 27.7111C24.5199 27.7111 24.5199 27.7111 24.5199 27.7105C24.4387 27.6644 24.3581 27.6172 24.2782 27.57C24.2164 27.5328 24.1539 27.4955 24.0921 27.4572C24.0265 27.4178 23.961 27.3772 23.8966 27.3361C23.8829 27.3289 23.8704 27.3205 23.8592 27.3122C23.8186 27.2878 23.7792 27.2622 23.7399 27.2361C23.7236 27.2267 23.7087 27.2167 23.6937 27.2061C23.6256 27.1622 23.5588 27.1178 23.492 27.0733C23.4245 27.0283 23.3583 26.9839 23.2927 26.9383C23.1591 26.8472 23.0286 26.7539 22.8993 26.6583C22.8344 26.6105 22.7701 26.5622 22.7051 26.5133C22.6395 26.465 22.5752 26.415 22.5109 26.365C22.4516 26.3189 22.3916 26.2717 22.3329 26.2239C22.3179 26.2128 22.3036 26.2005 22.2892 26.1889C22.228 26.1389 22.1668 26.0889 22.1062 26.0389C22.0925 26.0283 22.08 26.0172 22.0669 26.0061C22.0007 25.9511 21.9351 25.895 21.8702 25.8389C21.7184 25.7083 21.5698 25.5744 21.4243 25.4389C21.3712 25.3889 21.3175 25.3383 21.265 25.2872C21.2082 25.2333 21.152 25.1783 21.0964 25.1228C21.0402 25.0678 20.9846 25.0122 20.9303 24.9561C20.8697 24.8955 20.8104 24.8339 20.7517 24.7717C20.703 24.72 20.6549 24.6683 20.6062 24.6161C20.5825 24.5905 20.5594 24.5661 20.5363 24.5405C20.5138 24.5161 20.4907 24.4905 20.4682 24.465C20.4226 24.4144 20.3776 24.3633 20.3333 24.3128C20.2846 24.2578 20.2365 24.2022 20.1897 24.1461C20.1222 24.0683 20.0573 23.9905 19.993 23.9117C19.9436 23.8511 19.8949 23.7905 19.8468 23.73C19.7819 23.6483 19.7182 23.5667 19.6557 23.4833C19.5808 23.385 19.5065 23.2844 19.4334 23.1833C19.296 22.9922 19.1624 22.7978 19.0344 22.6011C19 22.5483 18.9657 22.4944 18.932 22.4405C17.5662 20.2811 16.7881 17.7883 16.7881 15.1333C16.7881 12.4794 17.5668 9.98666 18.932 7.8261C18.9657 7.77221 19 7.71832 19.0344 7.66555C20.3789 5.59777 22.2648 3.84332 24.5199 2.5561V2.55555C24.7372 2.43166 24.9583 2.31221 25.1824 2.1961C25.3454 2.11221 25.5091 2.0311 25.6752 1.95277C28.0301 0.832769 30.7204 0.197769 33.5768 0.197769C36.4332 0.197769 39.1241 0.832769 41.4785 1.95277L39.8735 7.66555L39.3084 9.67721C38.316 8.8511 37.0989 8.23721 35.7469 7.91777C35.055 7.75277 34.3281 7.66555 33.5781 7.66555C32.8274 7.66555 32.1005 7.75277 31.4092 7.91777C30.0578 8.23833 28.8394 8.8511 27.8478 9.67721C26.2091 11.0394 25.1843 12.9794 25.1843 15.1333C25.1843 15.9083 25.3167 16.6555 25.5628 17.3572C26.1691 19.0878 27.3413 20.1433 27.8478 20.5894C28.3155 21.0017 33.5787 24.1361 33.5787 24.1361L34.9956 25.0255L40.7559 28.6394L41.7457 29.2605L41.973 29.4033L42.1323 29.5033L43.0347 30.0694L46.4787 32.2305C47.4704 32.7661 48.394 33.3911 49.2371 34.0917C49.6324 34.42 50.0096 34.765 50.3668 35.1261C51.1031 35.8683 51.7575 36.6755 52.3177 37.5372C52.4101 37.6783 52.4982 37.8211 52.5856 37.9644C52.5856 37.965 52.5862 37.965 52.5862 37.9661C53.8483 40.0628 54.564 42.4594 54.564 45.0044Z" fill="url(#paint2_linear_1_244)"/>
</g>
<defs>
<linearGradient id="paint0_linear_1_244" x1="2971.6" y1="9060.3" x2="-2.84535" y2="-2409.21" gradientUnits="userSpaceOnUse">
<stop stop-color="#00B09B"/>
<stop offset="0.3907" stop-color="#008B7E"/>
<stop offset="0.7816" stop-color="#006C66"/>
<stop offset="1" stop-color="#00605D"/>
</linearGradient>
<linearGradient id="paint1_linear_1_244" x1="37.8209" y1="62.9686" x2="23.3004" y2="39.1306" gradientUnits="userSpaceOnUse">
<stop stop-color="#00B09B"/>
<stop offset="0.3828" stop-color="#008B7E"/>
<stop offset="0.7658" stop-color="#006C66"/>
<stop offset="0.9797" stop-color="#00605D"/>
</linearGradient>
<linearGradient id="paint2_linear_1_244" x1="60.9244" y1="52.1591" x2="15.8108" y2="-21.9027" gradientUnits="userSpaceOnUse">
<stop stop-color="#00B09B"/>
<stop offset="0.3828" stop-color="#008B7E"/>
<stop offset="0.7658" stop-color="#006C66"/>
<stop offset="0.9797" stop-color="#00605D"/>
</linearGradient>
<clipPath id="clip0_1_244">
<rect width="56.5217" height="60" fill="white"/>
</clipPath>
</defs>
</svg>
