<svg width="1440" height="750" viewBox="0 0 1440 750" fill="none" xmlns="http://www.w3.org/2000/svg">
<g clip-path="url(#clip0_66_765)">
<rect width="1440" height="750" fill="#EFF1F1"/>
<path opacity="0.4" fill-rule="evenodd" clip-rule="evenodd" d="M153.178 13.9091H284.447V145.178H285.357V13.4545V13H284.902H153.178V13.9091ZM21.9091 145.178V276.447H153.178V277.357H21.4545H21V276.902V145.178H21.9091ZM32.9749 24.9748H33.4294H272.927V25.8838H33.884V264.927H32.9749V25.4293V24.9748ZM260.498 252.498V37.4044H261.407V252.952V253.407H260.952H45.4043V252.498H260.498Z" fill="url(#paint0_linear_66_765)"/>
<path opacity="0.4" fill-rule="evenodd" clip-rule="evenodd" d="M58.1783 -81.0909H189.447V50.1783H190.357V-81.5455V-82H189.902H58.1783V-81.0909ZM-73.0909 50.1783V181.447H58.1783V182.357H-73.5455H-74V181.902V50.1783H-73.0909ZM-62.0251 -70.0252H-61.5706H177.927V-69.1162H-61.116V169.927H-62.0251V-69.5707V-70.0252ZM165.498 157.498V-57.5956H166.407V157.952V158.407H165.952H-49.5957V157.498H165.498Z" fill="url(#paint1_linear_66_765)"/>
<path opacity="0.4" fill-rule="evenodd" clip-rule="evenodd" d="M1290.18 107.909H1421.45V239.178H1422.36V107.455V107H1421.9H1290.18V107.909ZM1158.91 239.178V370.447H1290.18V371.357H1158.45H1158V370.902V239.178H1158.91ZM1169.97 118.975H1170.43H1409.93V119.884H1170.88V358.927H1169.97V119.429V118.975ZM1397.5 346.498V131.404H1398.41V346.952V347.407H1397.95H1182.4V346.498H1397.5Z" fill="url(#paint2_linear_66_765)"/>
<path opacity="0.4" fill-rule="evenodd" clip-rule="evenodd" d="M382.178 594.909H513.447V726.178H514.357V594.455V594H513.902H382.178V594.909ZM250.909 726.178V857.447H382.178V858.357H250.455H250V857.902V726.178H250.909ZM261.975 605.975H262.429H501.927V606.884H262.884V845.927H261.975V606.429V605.975ZM489.498 833.498V618.404H490.407V833.952V834.407H489.952H274.404V833.498H489.498Z" fill="url(#paint3_linear_66_765)"/>
<path opacity="0.4" fill-rule="evenodd" clip-rule="evenodd" d="M1420.18 221.909H1551.45V353.178H1552.36V221.455V221H1551.9H1420.18V221.909ZM1288.91 353.178V484.447H1420.18V485.357H1288.45H1288V484.902V353.178H1288.91ZM1299.97 232.975H1300.43H1539.93V233.884H1300.88V472.927H1299.97V233.429V232.975ZM1527.5 460.498V245.404H1528.41V460.952V461.407H1527.95H1312.4V460.498H1527.5Z" fill="url(#paint4_linear_66_765)"/>
<path opacity="0.4" fill-rule="evenodd" clip-rule="evenodd" d="M669.802 238.909H915.694V484.802H916.604V238.455V238H916.149H669.802V238.909ZM423.909 484.802V730.694H669.802V731.604H423.455H423V731.149V484.802H423.909ZM445.395 260.395H445.85H893.754V261.304H446.304V708.753H445.395V260.849V260.395ZM870.904 685.904V283.245H871.813V686.358V686.813H871.359H468.245V685.904H870.904Z" fill="url(#paint5_linear_66_765)"/>
<path opacity="0.4" fill-rule="evenodd" clip-rule="evenodd" d="M764.802 76.9091H1010.69V322.802H1011.6V76.4545V76H1011.15H764.802V76.9091ZM518.909 322.802V568.694H764.802V569.604H518.455H518V569.149V322.802H518.909ZM965.904 121.245V523.904H872V524.813H966.359H966.813V524.358V121.245H965.904Z" fill="url(#paint6_linear_66_765)"/>
</g>
<defs>
<linearGradient id="paint0_linear_66_765" x1="59.3946" y1="32.0924" x2="290.949" y2="88.2709" gradientUnits="userSpaceOnUse">
<stop stop-color="#00605D"/>
<stop offset="1" stop-color="#00B09B"/>
</linearGradient>
<linearGradient id="paint1_linear_66_765" x1="-35.6054" y1="-62.9076" x2="195.949" y2="-6.72908" gradientUnits="userSpaceOnUse">
<stop stop-color="#00605D"/>
<stop offset="1" stop-color="#00B09B"/>
</linearGradient>
<linearGradient id="paint2_linear_66_765" x1="1196.39" y1="126.092" x2="1427.95" y2="182.271" gradientUnits="userSpaceOnUse">
<stop stop-color="#00605D"/>
<stop offset="1" stop-color="#00B09B"/>
</linearGradient>
<linearGradient id="paint3_linear_66_765" x1="288.395" y1="613.092" x2="519.949" y2="669.271" gradientUnits="userSpaceOnUse">
<stop stop-color="#00605D"/>
<stop offset="1" stop-color="#00B09B"/>
</linearGradient>
<linearGradient id="paint4_linear_66_765" x1="1326.39" y1="240.092" x2="1557.95" y2="296.271" gradientUnits="userSpaceOnUse">
<stop stop-color="#00605D"/>
<stop offset="1" stop-color="#00B09B"/>
</linearGradient>
<linearGradient id="paint5_linear_66_765" x1="494.69" y1="273.649" x2="927.045" y2="378.545" gradientUnits="userSpaceOnUse">
<stop stop-color="#00605D"/>
<stop offset="1" stop-color="#00B09B"/>
</linearGradient>
<linearGradient id="paint6_linear_66_765" x1="589.69" y1="111.649" x2="1022.05" y2="216.545" gradientUnits="userSpaceOnUse">
<stop stop-color="#00605D"/>
<stop offset="1" stop-color="#00B09B"/>
</linearGradient>
<clipPath id="clip0_66_765">
<rect width="1440" height="750" fill="white"/>
</clipPath>
</defs>
</svg>
