<svg width="242" height="111" viewBox="0 0 242 111" fill="none" xmlns="http://www.w3.org/2000/svg">
<path fill-rule="evenodd" clip-rule="evenodd" d="M216.924 0H216.618L216.479 0.272142L202.528 27.5219L203.418 27.9776L217.23 1H232.519L204.99 54.7717L205.88 55.2274L233.782 0.727858L234.155 0H233.337H216.924ZM189.467 55.2274L161.938 108.999H177.227L191.039 82.0215L191.929 82.4772L177.978 109.727L177.839 109.999H177.533H161.12H160.302L160.675 109.271L188.577 54.7717L189.467 55.2274ZM209.367 22.91L177.088 85.7941L177.977 86.2507L210.256 23.3666L209.367 22.91ZM189.123 91.6658L209.913 50.5815L210.805 51.033L190.015 92.1173L189.123 91.6658ZM33.6601 1.33832H8.4646V0.338323H33.6601V1.33832ZM1.91785 3.96125H2.41785H19.5508V4.96125H2.91785V18.3065H17.3594H17.8594V18.8065V62.3821H16.8594V19.3065H2.41785H1.91785V18.8065V4.46125V3.96125ZM36.1838 29.8354V4.46125H37.1838V29.8354H36.1838ZM36.1838 80.5836V55.2095H37.1838V80.5836H36.1838ZM17.8594 105.458V84.1699H16.8594V105.958V106.458H17.3594H27.0216V105.458H17.8594ZM40.2148 108.58V58.332H41.2148V109.08V109.58H40.7148H21.3904V108.58H40.2148ZM32.6523 67.7006V23.1983H31.6523V67.7006H32.6523ZM22.2569 99.7112V55.2089H21.2569V99.7112H22.2569ZM132.967 108.126C130.036 108.838 127.052 108.531 124.132 107.183C118.21 104.447 112.786 97.5311 108.961 87.3915L108.025 87.7445C111.891 97.991 117.445 105.195 123.713 108.09C126.827 109.529 130.041 109.865 133.203 109.098C136.36 108.332 139.434 106.475 142.294 103.576C148.029 97.7644 152.551 88.1119 155.068 76.3149C157.584 64.5179 157.933 51.3313 156.053 39.0728L155.064 39.2244C156.927 51.3666 156.58 64.4311 154.09 76.1063C151.595 87.8004 147.133 97.248 141.582 102.873C138.821 105.671 135.905 107.414 132.967 108.126ZM126.816 1.8726C129.748 1.16122 132.731 1.46747 135.652 2.81645C141.574 5.55228 146.998 12.4679 150.823 22.6074L151.759 22.2545C147.893 12.008 142.338 4.80403 136.071 1.90864C132.956 0.469817 129.743 0.133543 126.581 0.900809C123.424 1.66672 120.35 3.5243 117.49 6.42317C111.755 12.2346 107.232 21.8871 104.716 33.6841C102.2 45.4811 101.851 58.6677 103.731 70.9262L104.719 70.7746C102.857 58.6324 103.204 45.5679 105.694 33.8927C108.188 22.1986 112.651 12.7509 118.201 7.12555C120.962 4.32757 123.879 2.58533 126.816 1.8726ZM146.597 90.0851C150.885 81.5417 153.476 70.0975 153.836 57.9191C154.195 45.7435 152.296 33.7574 148.528 24.2417C144.744 14.6865 139.423 8.48166 133.741 6.46693C128.184 4.49611 122.329 6.57424 117.234 12.8048L116.46 12.1718C121.725 5.73255 127.993 3.36762 134.075 5.52443C140.158 7.68133 145.631 14.2104 149.458 23.8735C153.284 33.5366 155.198 45.6615 154.835 57.9486C154.473 70.2357 151.859 81.8304 147.491 90.5337L146.597 90.0851ZM140.533 94.0849C137.035 98.151 133.166 100.107 129.36 100.001C125.547 99.8947 121.693 97.7168 118.243 93.4443C114.793 89.1722 111.95 83.047 110.063 75.6912C108.177 68.3433 107.33 60.0941 107.618 51.8368C107.907 43.5787 109.321 35.6524 111.693 28.9129C114.07 22.1622 117.295 16.923 120.964 13.6853C124.61 10.4673 128.511 9.37489 132.293 10.3225C136.122 11.2817 139.881 14.3435 143.101 19.3964L143.944 18.8591C140.646 13.6829 136.702 10.3962 132.536 9.35245C128.371 8.30876 124.141 9.54742 120.302 12.9355C116.463 16.3236 113.161 21.7326 110.75 28.5808C108.339 35.4291 106.911 43.4573 106.619 51.8019C106.327 60.1465 107.183 68.4917 109.094 75.9398C111.005 83.3878 113.899 89.6569 117.465 94.0726C121.031 98.4884 125.134 100.884 129.332 101.001C133.53 101.118 137.665 98.9523 141.291 94.7371L140.533 94.0849ZM74.9748 1.87285C72.043 1.16146 69.0597 1.46772 66.1397 2.81669C60.2176 5.55253 54.7934 12.4681 50.9681 22.6077L50.0325 22.2547C53.8981 12.0082 59.4528 4.80427 65.7203 1.90888C68.8348 0.470058 72.0486 0.133792 75.2106 0.901051C78.3671 1.66696 81.441 3.52455 84.3015 6.42341C90.036 12.2348 94.5589 21.8873 97.0752 33.6843C99.5916 45.4813 99.9403 58.6679 98.0601 70.9264L97.0717 70.7748C98.934 58.6326 98.5876 45.5682 96.0972 33.8929C93.6029 22.1988 89.1406 12.7512 83.5897 7.1258C80.8287 4.32781 77.9121 2.58558 74.9748 1.87285ZM68.8239 108.126C71.7556 108.838 74.7389 108.532 77.659 107.183C83.5811 104.447 89.0052 97.5312 92.8305 87.3916L93.7662 87.7446C89.9005 97.9911 84.3458 105.195 78.0784 108.09C74.9638 109.529 71.7501 109.866 68.5881 109.098C65.4316 108.332 62.3577 106.475 59.4972 103.576C53.7626 97.7645 49.2397 88.112 46.7234 76.315C44.2071 64.518 43.8583 51.3314 45.7385 39.0729L46.727 39.2245C44.8646 51.3667 45.2111 64.4312 47.7014 76.1064C50.1958 87.8005 54.658 97.2482 60.209 102.874C62.9699 105.672 65.8866 107.414 68.8239 108.126ZM88.6046 19.9138C92.8928 28.4573 95.4837 39.9015 95.843 52.0799C96.2023 64.2555 94.3036 76.2415 90.5354 85.7572C86.7516 95.3124 81.43 101.517 75.7486 103.532C70.1911 105.503 64.3362 103.425 59.2415 97.1941L58.4673 97.8271C63.7327 104.266 70.0008 106.631 76.0829 104.475C82.1651 102.318 87.6386 95.7885 91.4652 86.1254C95.2917 76.4624 97.2052 64.3375 96.8426 52.0504C96.4801 39.7633 93.8668 28.1685 89.4983 19.4652L88.6046 19.9138ZM82.5409 15.9137C79.0426 11.8476 75.1739 9.89144 71.3674 9.9976C67.5548 10.1039 63.701 12.2818 60.2509 16.5543C56.8009 20.8264 53.9578 26.9516 52.0704 34.3074C50.185 41.6553 49.3375 49.9045 49.6262 58.1618C49.9149 66.4199 51.3283 74.3462 53.7009 81.0857C56.0775 87.8364 59.3032 93.0756 62.9716 96.3133C66.6176 99.5313 70.519 100.624 74.301 99.6761C78.1297 98.7169 81.8891 95.6551 85.1087 90.6021L85.9521 91.1395C82.6539 96.3157 78.7098 99.6024 74.5441 100.646C70.3784 101.69 66.1487 100.451 62.3098 97.063C58.4711 93.675 55.1686 88.266 52.7577 81.4177C50.3467 74.5695 48.9186 66.5413 48.6268 58.1967C48.335 49.8521 49.1907 41.5069 51.1018 34.0588C53.0128 26.6108 55.907 20.3417 59.4729 15.926C63.0388 11.5102 67.1415 9.11507 71.3396 8.99799C75.5376 8.8809 79.6724 11.0463 83.299 15.2615L82.5409 15.9137ZM174.995 2.01797C179.79 0.953032 184.822 1.54165 189.205 3.67709C193.587 5.81219 197.033 9.35327 198.948 13.6686C200.862 17.9829 201.127 22.8023 199.697 27.2831L200.65 27.587C202.154 22.8722 201.875 17.8004 199.862 13.2631C197.849 8.72578 194.231 5.01329 189.643 2.77812C185.055 0.542947 179.792 -0.0718589 174.778 1.04176C169.764 2.15537 165.32 4.92614 162.228 8.86708L163.015 9.48441C165.96 5.73033 170.2 3.08283 174.995 2.01797ZM170.238 39.2455C174.621 41.3809 179.653 41.9696 184.448 40.9046C189.242 39.8398 193.482 37.1923 196.428 33.4382L197.215 34.0555C194.122 37.9965 189.679 40.7672 184.665 41.8808C179.651 42.9945 174.387 42.3797 169.8 40.1445C165.212 37.9093 161.594 34.1968 159.581 29.6595C157.568 25.1222 157.289 20.0504 158.793 15.3356L159.745 15.6395C158.316 20.1203 158.581 24.9397 160.495 29.254C162.409 33.5693 165.855 37.1104 170.238 39.2455ZM179.287 4.76806C182.472 4.72535 185.607 5.51543 188.353 7.05015L188.841 6.17719C185.94 4.556 182.632 3.72312 179.273 3.76815C175.915 3.81318 172.633 4.73443 169.78 6.43277C166.927 8.13112 164.612 10.5423 163.083 13.4069C161.554 16.2716 160.87 19.4813 161.103 22.6907C161.336 25.9002 162.479 28.988 164.408 31.6219C166.337 34.2558 168.978 36.3363 172.049 37.6393C175.12 38.9424 178.504 39.4189 181.837 39.0175C185.169 38.616 188.325 37.3519 190.963 35.3611L190.361 34.5628C187.866 36.4456 184.877 37.644 181.717 38.0246C178.557 38.4053 175.349 37.9532 172.44 36.7188C169.531 35.4845 167.034 33.5163 165.215 31.0311C163.395 28.5463 162.32 25.6376 162.1 22.6182C161.881 19.5989 162.524 16.5774 163.965 13.8778C165.406 11.1777 167.592 8.89931 170.291 7.29203C172.991 5.68457 176.102 4.81077 179.287 4.76806ZM228.596 70.7536C224.213 68.6181 219.181 68.0295 214.386 69.0945C209.592 70.1593 205.352 72.8068 202.406 76.5609L201.619 75.9436C204.712 72.0026 209.155 69.2319 214.169 68.1182C219.183 67.0046 224.447 67.6194 229.034 69.8546C233.622 72.0898 237.24 75.8023 239.253 80.3396C241.266 84.8769 241.545 89.9487 240.041 94.6635L239.088 94.3595C240.518 89.8787 240.253 85.0594 238.339 80.7451C236.425 76.4297 232.978 72.8887 228.596 70.7536ZM223.839 107.982C219.044 109.047 214.012 108.458 209.629 106.323C205.247 104.187 201.801 100.646 199.886 96.331C197.972 92.0167 197.707 87.1974 199.137 82.7166L198.184 82.4126C196.68 87.1275 196.959 92.1992 198.972 96.7365C200.985 101.274 204.603 104.986 209.191 107.222C213.779 109.457 219.042 110.071 224.056 108.958C229.07 107.844 233.514 105.073 236.606 101.133L235.819 100.515C232.874 104.269 228.633 106.917 223.839 107.982ZM227.744 74.1268C224.998 72.5921 221.863 71.802 218.678 71.8447C215.493 71.8874 212.383 72.7612 209.683 74.3687C206.983 75.976 204.797 78.2544 203.356 80.9544C201.916 83.6541 201.272 86.6756 201.491 89.6949C201.711 92.7143 202.786 95.623 204.606 98.1078C206.425 100.593 208.922 102.561 211.831 103.795C214.74 105.03 217.948 105.482 221.108 105.101C224.269 104.721 227.257 103.522 229.752 101.639L230.354 102.438C227.716 104.429 224.561 105.693 221.228 106.094C217.895 106.496 214.512 106.019 211.441 104.716C208.37 103.413 205.728 101.333 203.799 98.6986C201.87 96.0646 200.728 92.9769 200.494 89.7674C200.261 86.5579 200.945 83.3483 202.474 80.4836C204.003 77.619 206.318 75.2078 209.171 73.5094C212.024 71.8111 215.306 70.8898 218.664 70.8448C222.023 70.7998 225.331 71.6327 228.232 73.2539L227.744 74.1268Z" fill="white"/>
</svg>
