<svg width="230" height="124" viewBox="0 0 230 124" fill="none" xmlns="http://www.w3.org/2000/svg">
<path fill-rule="evenodd" clip-rule="evenodd" d="M76.0937 6.53004C71.6136 2.38072 66.7884 0.572281 62.03 1.08511C57.2543 1.59981 52.5081 4.45654 48.2391 9.59365C43.9703 14.7304 40.3651 21.929 37.7767 30.5861L36.8186 30.2996C39.4334 21.5541 43.0916 14.2232 47.47 8.95452C51.8484 3.68583 56.8122 0.641673 61.9229 0.090871C67.0335 -0.459929 72.1338 1.49956 76.7732 5.79637C81.4125 10.0931 85.448 16.5949 88.5232 24.7272L87.5878 25.0809C84.548 17.042 80.5851 10.6898 76.0937 6.53004ZM56.9891 121.384C63.6651 124.461 70.7223 122.834 77.0291 116.458C83.3786 110.038 88.4706 99.2716 91.3154 85.9658C94.1562 72.6788 94.5512 57.8126 92.427 43.9956L93.4154 43.8436C95.5575 57.7772 95.1602 72.7658 92.2933 86.1749C89.4265 99.5839 84.2735 110.555 77.7401 117.161C71.2066 123.767 63.7109 125.583 56.5705 122.292C49.43 119.001 43.1015 110.813 38.6973 99.1664L39.6327 98.8127C43.9962 110.352 50.1938 118.252 56.9891 121.384ZM51.3797 17.4314C55.3829 12.7894 59.8278 10.5363 64.22 10.6585C68.6183 10.7809 73.0437 13.287 76.9903 18.1628C80.9367 23.0383 84.1828 30.02 86.3363 38.3934C88.4878 46.7589 89.4545 56.1483 89.1252 65.5456C88.7958 74.9439 87.1836 83.967 84.4752 91.6421C81.7629 99.3283 78.0775 105.307 73.8746 109.008C69.6939 112.689 65.2027 113.951 60.8394 112.861C56.4299 111.758 52.1212 108.247 48.4425 102.487L47.5997 103.025C51.3574 108.909 55.8509 112.644 60.5969 113.831C65.3428 115.017 70.1618 113.609 74.5354 109.758C78.9089 105.907 82.6714 99.7589 85.4182 91.9748C88.165 84.1908 89.7921 75.0655 90.1246 65.5806C90.457 56.0957 89.4821 46.6102 87.3048 38.1443C85.1275 29.6785 81.8302 22.5527 77.7676 17.5336C73.7049 12.5144 69.0307 9.79198 64.2478 9.65889C59.4649 9.52581 54.7542 11.9871 50.6224 16.7783L51.3797 17.4314ZM106.902 4.41319C110.185 2.07083 113.57 0.956914 116.913 1.0014C120.256 1.0459 123.638 2.25048 126.91 4.68359C133.485 9.57348 139.112 19.06 142.679 31.6263C146.239 44.1663 147.481 58.8415 146.174 73.0598L147.17 73.1513C148.487 58.8219 147.237 44.0221 143.641 31.3532C140.045 18.6843 134.332 8.95712 127.506 3.88116C124.094 1.34316 120.512 0.0492224 116.926 0.00149296C113.34 -0.0462365 109.75 1.15225 106.321 3.59917C99.4624 8.49298 93.6853 18.0673 90.0052 30.6393L90.9649 30.9202C94.615 18.4509 100.302 9.12206 106.902 4.41319ZM129.456 117.043C125.141 121.199 120.488 123.137 115.883 122.87C111.268 122.603 106.654 120.121 102.444 115.448C98.2318 110.772 94.5992 104.091 91.8868 95.9275L90.9379 96.2428C93.6795 104.494 97.3705 111.31 101.701 116.117C106.031 120.924 110.875 123.582 115.825 123.869C120.775 124.155 125.688 122.061 130.15 117.763C134.612 113.465 138.493 107.088 141.469 99.1672L140.533 98.8155C137.592 106.645 133.779 112.879 129.456 117.043ZM143.951 58.6244C143.544 44.7664 140.608 31.7372 135.744 22.004L136.638 21.5569C141.583 31.4496 144.54 44.6288 144.951 58.595C145.361 72.5613 143.195 86.3431 138.865 97.3267C134.534 108.31 128.339 115.732 121.455 118.183C114.571 120.635 107.477 117.947 101.518 110.628L102.293 109.996C108.083 117.107 114.763 119.505 121.12 117.241C127.602 114.933 133.646 107.837 137.934 96.9599C142.207 86.1232 144.358 72.4797 143.951 58.6244ZM0.997681 0.0843999H1.49768H36.526H37.026V0.5844V22.7916H36.026V1.0844H1.99768V16.9116H14.1609H14.6609V17.4116V68.5265H13.6609V17.9116H1.49768H0.997681V17.4116V0.5844V0.0843999ZM14.6609 119.141V94.084H13.6609V119.641V120.141H14.1609H25.3435V119.141H14.6609ZM36.0615 122.804V68.9592H37.0615V123.304V123.804H36.5615H14.1963V122.804H36.0615ZM33.7272 98.1791L33.7272 22.2072H32.7272L32.7272 98.1791H33.7272ZM32.1938 4.54148H11.3615V3.54148H32.1938V4.54148ZM18.6715 112.314V60.1121H17.6715V112.314H18.6715ZM200.07 0.084441H200.435H212.02H212.705L212.496 0.737234L192.802 62.0994L191.85 61.7938L211.334 1.08444H200.8L191.064 31.4183L190.112 31.1127L199.959 0.431648L200.07 0.084441ZM161.734 122.809L181.218 62.0994L180.266 61.7938L160.572 123.156L160.363 123.809H161.048H172.633H172.997L173.109 123.462L182.955 92.7805L182.003 92.4749L172.268 122.809H161.734ZM160.239 4.16321C164.123 2.53653 168.381 1.89847 172.601 2.31262C176.82 2.72677 180.853 4.1786 184.308 6.52381C187.764 8.86885 190.523 12.0264 192.323 15.6867L193.221 15.2454C191.342 11.426 188.466 8.13668 184.87 5.69637C181.274 3.25606 177.081 1.74763 172.698 1.31741C168.315 0.887178 163.89 1.54975 159.853 3.24086C155.815 4.93196 152.303 7.5942 149.655 10.9693L150.442 11.5865C152.982 8.34843 156.356 5.78982 160.239 4.16321ZM185.835 43.7308C181.396 47.2743 175.79 49.2098 170 49.1888C164.211 49.1678 158.62 47.1918 154.209 43.6164C149.8 40.0417 146.855 35.0993 145.88 29.6627C144.905 24.2267 145.96 18.6329 148.865 13.8622L148.01 13.3421C144.98 18.3191 143.877 24.1603 144.896 29.8393C145.914 35.5182 148.989 40.6714 153.58 44.3932C158.17 48.1149 163.983 50.167 169.996 50.1888C176.01 50.2106 181.839 48.2007 186.459 44.5123L185.835 43.7308ZM180.26 8.69829C177.025 6.88996 173.333 5.95934 169.583 6.00965C165.833 6.05996 162.17 7.08921 158.99 8.9833C155.81 10.8772 153.235 13.5626 151.537 16.7462C149.839 19.9294 149.08 23.4928 149.339 27.054C149.598 30.6152 150.865 34.0452 153.009 36.9746C155.154 39.9044 158.095 42.2237 161.521 43.6779C164.947 45.1322 168.724 45.6647 172.445 45.2163C176.166 44.7679 179.685 43.3562 182.625 41.1374L183.227 41.9355C180.145 44.2624 176.458 45.7399 172.565 46.2091C168.671 46.6783 164.718 46.1214 161.13 44.5984C157.542 43.0753 154.456 40.6437 152.202 37.5652C149.949 34.4867 148.614 30.8777 148.341 27.1265C148.069 23.3752 148.868 19.6238 150.655 16.2756C152.441 12.9274 155.146 10.1092 158.479 8.12415C161.811 6.13912 165.646 5.06237 169.57 5.00974C173.493 4.9571 177.358 5.93057 180.747 7.82543L180.26 8.69829ZM202.293 74.8342C208.06 74.3521 213.817 75.8343 218.549 79.0134C223.281 82.192 226.683 86.8604 228.169 92.1914C229.654 97.5215 229.133 103.183 226.692 108.184L227.591 108.623C230.138 103.403 230.684 97.49 229.132 91.9229C227.581 86.3558 224.031 81.491 219.107 78.1833C214.183 74.8757 208.2 73.337 202.209 73.8376C196.219 74.3383 190.604 76.8463 186.352 80.9208L187.044 81.6428C191.127 77.7303 196.525 75.3162 202.293 74.8342ZM202.173 121.646C206.355 122.015 210.564 121.352 214.4 119.723C218.235 118.094 221.567 115.554 224.082 112.348L224.869 112.965C222.248 116.307 218.779 118.95 214.791 120.644C210.803 122.337 206.429 123.025 202.085 122.642C197.742 122.258 193.573 120.816 189.975 118.453C186.377 116.089 183.47 112.883 181.531 109.139L182.419 108.679C184.278 112.268 187.066 115.346 190.524 117.617C193.982 119.888 197.992 121.276 202.173 121.646ZM217.041 82.856C219.689 84.875 221.772 87.4852 223.11 90.4528C224.448 93.4202 225.001 96.6556 224.721 99.8734C224.442 103.091 223.338 106.196 221.505 108.914C219.672 111.631 217.164 113.878 214.201 115.451C211.238 117.025 207.913 117.875 204.522 117.924C201.13 117.973 197.779 117.22 194.767 115.733C191.756 114.246 189.178 112.073 187.259 109.409C185.34 106.746 184.139 103.674 183.758 100.465L182.765 100.583C183.166 103.962 184.431 107.195 186.448 109.994C188.464 112.793 191.169 115.072 194.325 116.63C197.48 118.187 200.987 118.975 204.536 118.924C208.085 118.872 211.566 117.983 214.67 116.334C217.775 114.686 220.407 112.329 222.334 109.473C224.261 106.617 225.423 103.349 225.718 99.96C226.012 96.5706 225.429 93.1639 224.022 90.0418C222.614 86.9197 220.424 84.1784 217.647 82.0608L217.041 82.856Z" fill="white"/>
</svg>
