<svg width="124" height="125" viewBox="0 0 124 125" fill="none" xmlns="http://www.w3.org/2000/svg">
<path d="M29.8489 94.5782V94.0782V91.7492V91.5542L29.9809 91.4107L37.5686 83.162L37.5713 83.159C38.2827 82.398 38.8381 81.6999 39.2441 81.0641C39.653 80.4236 39.9537 79.8134 40.1519 79.2332C40.349 78.6349 40.4461 78.0416 40.4461 77.4515C40.4461 76.3282 40.1095 75.5593 39.5046 75.0529L39.4982 75.0476L39.4982 75.0475C38.8753 74.508 37.9225 74.1991 36.5599 74.1991C35.5132 74.1991 34.5331 74.392 33.615 74.7752C32.6977 75.1579 31.8202 75.7462 30.9835 76.5504L30.4801 77.0341L30.1842 76.4019L29.0636 74.0081L28.9138 73.688L29.1656 73.44C30.0743 72.5448 31.2117 71.8317 32.5654 71.2936L32.5679 71.2926C33.9497 70.7522 35.3881 70.4819 36.8801 70.4819C38.4666 70.4819 39.8436 70.7374 40.993 71.2707C42.1436 71.7831 43.0354 72.5488 43.6469 73.5694C44.2601 74.5714 44.5516 75.7881 44.5516 77.1927C44.5516 77.9245 44.461 78.6454 44.28 79.3543L44.279 79.3582C44.0983 80.0427 43.8289 80.7329 43.4738 81.4285C43.1386 82.1054 42.7064 82.7981 42.1807 83.5064M29.8489 94.5782L41.7785 83.2094M29.8489 94.5782H30.3489H44.9481H45.4481V94.0782V91.4257V90.9257H44.9481H35.4305M29.8489 94.5782L34.9608 91.4257M42.1807 83.5064C42.1805 83.5067 42.1802 83.507 42.18 83.5074L41.7785 83.2094M42.1807 83.5064C42.181 83.506 42.1813 83.5057 42.1815 83.5053L41.7785 83.2094M42.1807 83.5064C41.6764 84.1931 41.0768 84.9085 40.3835 85.6528L40.3821 85.6543L35.4305 90.9257M41.7785 83.2094C41.2876 83.8779 40.7006 84.5788 40.0176 85.312L34.7445 90.9257H35.4305M35.4305 90.9257L34.9608 91.4257M30.637 76.1899L30.4137 75.7128C30.3725 75.7512 30.3314 75.7901 30.2905 75.8294L30.637 76.1899ZM30.637 76.1899L31.0899 75.9779L31.0233 75.8357C30.8934 75.9492 30.7646 76.0672 30.637 76.1899ZM34.9608 91.4257H44.4481H44.9481H34.9608ZM87.0357 93.8493L86.6602 94.5782H87.4802H90.9058H91.212L91.3512 94.3056L101.788 73.8618L101.843 73.7547V73.6344V71.273V70.773H101.343H86.1675H85.6675V71.273V73.9579V74.4579H86.1675H97.0238L87.0357 93.8493ZM72.016 96.6597L72.4867 96.8011L72.6361 96.3328L80.8642 70.5517L81.0188 70.0671L80.5317 69.9208L78.1625 69.2091L77.6918 69.0677L77.5424 69.536L69.3143 95.3171L69.1597 95.8017L69.6468 95.948L72.016 96.6597ZM58.0743 94.0782V94.5782H58.5743H61.6798H62.1798V94.0782V89.8554H64.9775H65.4775V89.3554V86.7353V86.2353H64.9775H62.1798V71.273V70.773H61.6798H59.1186H58.855L58.706 70.9905L47.9167 86.7439L47.8292 86.8716V87.0264V89.3554V89.8554H48.3292H58.0743V94.0782ZM52.4075 86.2353L58.0743 77.9053V86.2353H52.4075Z" stroke="white"/>
</svg>
