<svg width="124" height="125" viewBox="0 0 124 125" fill="none" xmlns="http://www.w3.org/2000/svg">
<path d="M12.9475 24.7484C21.619 13.0918 34.0795 4.89639 48.1389 1.60252C62.1984 -1.69135 76.957 0.127133 89.8209 6.73836C102.685 13.3496 112.831 24.3305 118.476 37.751C124.12 51.1715 124.903 66.1729 120.685 80.1185M111.053 99.2516C102.381 110.908 89.9205 119.104 75.8611 122.397C61.8016 125.691 47.043 123.873 34.179 117.262C21.3151 110.65 11.1692 99.6695 5.52444 86.249C-0.120288 72.8284 -0.902572 57.8271 3.31509 43.8815M101.461 21.5904C111.257 31.4878 117.117 44.6735 117.93 58.6464C118.743 72.6193 114.452 86.4078 105.872 97.3967C97.2911 108.386 85.0173 115.811 71.3782 118.263C57.7392 120.716 43.6834 118.026 31.8769 110.704M93.4949 103.081C86.1023 108.964 77.2619 112.7 67.9246 113.887C58.5874 115.073 49.1067 113.665 40.5023 109.814C31.898 105.963 24.4958 99.8142 19.0918 92.0298C13.6878 84.2453 10.4866 75.1196 9.83265 65.6342C9.17866 56.1488 11.0966 46.6628 15.3801 38.1965C19.6637 29.7302 26.1507 22.6041 34.1434 17.5847C42.1361 12.5653 51.332 9.84263 60.7419 9.70954C70.1518 9.57645 79.4195 12.038 87.5481 16.8293M61.4202 62.1572L61.6831 62.3177L61.9448 62.155L100.95 37.8942L100.422 37.045L61.6782 61.1431L30.5115 42.117L29.9905 42.9705L61.4202 62.1572ZM13.3486 25.0468C21.9502 13.4843 34.3092 5.3561 48.253 2.08934C62.1966 -1.1774 76.8339 0.626006 89.5924 7.18306C102.351 13.7402 112.415 24.6318 118.015 37.9449C123.614 51.258 124.39 66.1396 120.206 79.9737L121.163 80.2632C125.415 66.2063 124.626 51.0851 118.936 37.5571C113.246 24.0291 103.019 12.959 90.0495 6.29365C77.0802 -0.37174 62.2001 -2.20529 48.0249 1.1157C33.8497 4.43668 21.2878 12.6993 12.5463 24.45L13.3486 25.0468ZM110.651 98.9532C102.05 110.516 89.6908 118.644 75.747 121.911C61.8033 125.177 47.1661 123.374 34.4076 116.817C21.6489 110.26 11.5848 99.3682 5.98534 86.0551C0.385794 72.742 -0.39029 57.8604 3.79368 44.0263L2.83649 43.7368C-1.41485 57.7937 -0.626369 72.9149 5.06355 86.4428C10.7535 99.9709 20.9813 111.041 33.9505 117.706C46.9198 124.372 61.7999 126.205 75.9751 122.884C90.1503 119.563 102.712 111.301 111.454 99.55L110.651 98.9532ZM101.106 21.9422C110.816 31.7526 116.625 44.8233 117.431 58.6754C118.237 72.5276 113.983 86.1963 105.478 97.089C96.9722 107.982 84.8069 115.34 71.2897 117.771C57.7726 120.202 43.8423 117.537 32.1404 110.279L31.6134 111.129C43.5246 118.516 57.7057 121.23 71.4667 118.756C85.2276 116.281 97.6099 108.79 106.266 97.7044C114.922 86.6194 119.249 72.7111 118.429 58.6174C117.609 44.5236 111.699 31.2231 101.817 21.2387L101.106 21.9422ZM93.1835 102.689C85.8623 108.516 77.1077 112.216 67.8616 113.391C58.6155 114.566 49.2273 113.171 40.7066 109.358C32.1859 105.544 24.8548 99.4547 19.5025 91.7447C14.1502 84.0346 10.9793 74.9955 10.3315 65.5998C9.68366 56.2041 11.5835 46.8079 15.8263 38.4222C20.069 30.0365 26.494 22.9789 34.4093 18.0081C42.3246 13.0373 51.431 10.3413 60.749 10.2095C70.0669 10.0777 79.2444 12.5151 87.2943 17.2601L87.802 16.3986C79.5946 11.5608 70.2367 9.0752 60.7348 9.20959C51.233 9.34398 41.9476 12.0933 33.8775 17.1613C25.8074 22.2292 19.2583 29.4238 14.934 37.9707C10.6097 46.5176 8.67366 56.0935 9.33383 65.6686C9.994 75.2437 13.2254 84.4561 18.681 92.3149C24.1367 100.174 31.6102 106.382 40.2981 110.27C48.986 114.159 58.5592 115.581 67.9876 114.383C77.4161 113.185 86.3423 109.412 93.8063 103.472L93.1835 102.689ZM87.0357 93.8493L86.6602 94.5782H87.4802H90.9058H91.212L91.3512 94.3056L101.788 73.8618L101.843 73.7547V73.6344V71.273V70.773H101.343H86.1675H85.6675V71.273V73.9579V74.4579H86.1675H97.0238L87.0357 93.8493ZM72.016 96.6597L72.4867 96.8011L72.6361 96.3328L80.8642 70.5517L81.0188 70.0671L80.5317 69.9208L78.1625 69.2091L77.6918 69.0677L77.5424 69.536L69.3143 95.3171L69.1597 95.8017L69.6468 95.948L72.016 96.6597ZM29.8489 94.0782V94.5782H30.3489H44.9481H45.4481V94.0782V91.4257V90.9257H44.9481H35.4305L40.3821 85.6543L40.3835 85.6528C41.0768 84.9085 41.6765 84.1929 42.1809 83.5061C42.7065 82.7979 43.1386 82.1054 43.4738 81.4285C43.8289 80.7329 44.0983 80.0427 44.279 79.3582L44.28 79.3543C44.461 78.6454 44.5516 77.9245 44.5516 77.1927C44.5516 75.7882 44.2602 74.5716 43.6471 73.5697C43.0356 72.549 42.1437 71.7831 40.993 71.2707C39.8436 70.7374 38.4666 70.4819 36.8801 70.4819C35.3881 70.4819 33.9497 70.7522 32.5679 71.2926L32.5654 71.2936C31.2117 71.8317 30.0743 72.5448 29.1656 73.44L28.9138 73.688L29.0636 74.0081L30.1842 76.4019L30.4801 77.0341L30.9835 76.5504C31.8202 75.7462 32.6977 75.1579 33.615 74.7751C34.5331 74.392 35.5132 74.1991 36.5599 74.1991C37.9225 74.1991 38.8753 74.508 39.4982 75.0475L39.4982 75.0476L39.5046 75.0529C40.1095 75.5593 40.4461 76.3282 40.4461 77.4515C40.4461 78.0417 40.349 78.6351 40.1518 79.2335C39.9536 79.8136 39.6529 80.4237 39.2441 81.0641C38.8381 81.6999 38.2827 82.3981 37.5713 83.159L37.5686 83.162L29.9809 91.4107L29.8489 91.5542V91.7492V94.0782ZM58.0743 94.0782V94.5782H58.5743H61.6798H62.1798V94.0782V89.8554H64.9775H65.4775V89.3554V86.7353V86.2353H64.9775H62.1798V71.273V70.773H61.6798H59.1186H58.855L58.706 70.9905L47.9167 86.7439L47.8292 86.8716V87.0264V89.3554V89.8554H48.3292H58.0743V94.0782ZM52.4075 86.2353L58.0743 77.9053V86.2353H52.4075Z" stroke="white"/>
</svg>
