<svg width="230" height="126" viewBox="0 0 230 126" fill="none" xmlns="http://www.w3.org/2000/svg">
<path d="M66.3111 25.7484C74.9826 14.0918 87.4431 5.89639 101.503 2.60252C115.562 -0.691349 130.321 1.12713 143.185 7.73836C156.049 14.3496 166.194 25.3305 171.839 38.751C177.484 52.1716 178.266 67.1729 174.049 81.1185M164.416 100.252C155.745 111.908 143.284 120.104 129.225 123.397C115.165 126.691 100.407 124.873 87.5427 118.262C74.6788 111.65 64.5328 100.67 58.8881 87.249C53.2434 73.8285 52.4611 58.8271 56.6787 44.8815M154.825 22.5904C164.621 32.4879 170.481 45.6735 171.294 59.6464C172.107 73.6193 167.816 87.4078 159.235 98.3967C150.655 109.386 138.381 116.811 124.742 119.263C111.103 121.716 97.0471 119.026 85.2406 111.704M146.859 104.081C139.466 109.964 130.626 113.7 121.288 114.887C111.951 116.073 102.47 114.665 93.866 110.814C85.2617 106.963 77.8594 100.814 72.4554 93.0298C67.0514 85.2454 63.8503 76.1196 63.1963 66.6342C62.5423 57.1488 64.4602 47.6628 68.7438 39.1965C73.0273 30.7302 79.5144 23.6041 87.5071 18.5847C95.4998 13.5653 104.696 10.8426 114.106 10.7095C123.515 10.5764 132.783 13.038 140.912 17.8293M83.6146 43.5438L115.044 62.7304L154.049 38.4696" stroke="white"/>
<path d="M86.228 95.056V95.556H86.728H99.3H99.8V95.056V93.096V92.596H99.3H90.7889L95.3214 87.7856C95.9487 87.1391 96.486 86.5066 96.931 85.8879C97.3916 85.2734 97.7709 84.6716 98.0658 84.0825C98.3792 83.4748 98.6085 82.8696 98.7496 82.2673C98.9085 81.6497 98.988 81.0216 98.988 80.384C98.988 79.1785 98.7409 78.1244 98.219 77.2465C97.6955 76.3472 96.922 75.6734 95.9208 75.2239C94.9245 74.7766 93.7303 74.564 92.356 74.564C91.0421 74.564 89.7836 74.8093 88.5843 75.3005C87.4105 75.7704 86.4254 76.4035 85.642 77.207L85.3971 77.4582L85.55 77.774L86.418 79.566L86.7206 80.1906L87.2173 79.7058C87.9637 78.9772 88.7327 78.4565 89.5229 78.1301L89.5229 78.1302L89.5278 78.1281C90.3397 77.7826 91.2154 77.608 92.16 77.608C93.3988 77.608 94.2493 77.8919 94.7958 78.3777L94.8013 78.3826L94.8069 78.3873C95.3572 78.8484 95.664 79.5408 95.664 80.552C95.664 81.0963 95.5791 81.6325 95.4081 82.1625C95.2371 82.6927 94.9687 83.2506 94.5961 83.8366C94.223 84.4045 93.7288 85.0258 93.1086 85.7009C93.1083 85.7012 93.1081 85.7014 93.1078 85.7017L86.3613 92.9801L86.228 93.1239V93.32V95.056ZM111.053 95.056V95.556H111.553H113.877H114.377V95.056V91.328H116.817H117.317V90.828V88.868V88.368H116.817H114.377V75.316V74.816H113.877H111.945H111.682L111.533 75.0323L102.041 88.8083L101.953 88.9364V89.092V90.828V91.328H102.453H111.053V95.056ZM111.053 88.368H105.804L111.053 80.6886V88.368ZM119.904 97.2993L120.372 97.4383L120.522 96.9736L127.718 74.6856L127.876 74.1963L127.382 74.0521L125.562 73.5201L125.095 73.3835L124.946 73.8469L117.778 96.1349L117.622 96.6218L118.112 96.7673L119.904 97.2993ZM131.408 94.8266L131.031 95.556H131.852H134.4H134.705L134.845 95.2843L144.085 77.2803L144.14 77.1728V77.052V75.316V74.816H143.64H130.592H130.092V75.316V77.304V77.804H130.592H140.198L131.408 94.8266Z" stroke="white"/>
</svg>
