<svg width="230" height="124" viewBox="0 0 230 124" fill="none" xmlns="http://www.w3.org/2000/svg">
<path fill-rule="evenodd" clip-rule="evenodd" d="M127.17 2.67846C113.523 -0.524816 99.1962 1.24354 86.7085 7.67326C74.2206 14.1031 64.3699 24.7834 58.8891 37.8383C53.627 50.3721 52.7167 64.3237 56.2765 77.4229L57.9492 71.8585L58.9069 72.1464L56.744 79.3412L56.485 80.2026L55.8901 79.5279L51.1784 74.1838L51.9285 73.5224L55.1864 77.2176C51.7156 64.0396 52.681 50.042 57.967 37.4512C63.538 24.1814 73.5521 13.3225 86.2507 6.78419C98.9494 0.24583 113.519 -1.55281 127.399 1.70492C141.278 4.96263 153.578 13.0678 162.137 24.5942L161.334 25.1904C152.915 13.8521 140.818 5.88176 127.17 2.67846ZM100.146 120.163C102.544 120.163 104.885 120.198 107.176 120.233C119.418 120.419 130.23 120.583 140.722 115.181C153.21 108.751 163.06 98.0709 168.541 85.016C173.784 72.5287 174.707 58.6342 171.193 45.5774L169.487 52.2968L168.518 52.0507L170.681 43.534L170.931 42.5488L171.558 43.3483L176.793 50.0143L176.006 50.6319L172.324 45.9419C175.7 59.0306 174.708 72.9095 169.463 85.4031C163.892 98.6729 153.878 109.532 141.18 116.07C130.446 121.597 119.348 121.424 107.105 121.234C104.827 121.199 102.509 121.163 100.146 121.163L58.6054 121.163V120.163L100.146 120.163ZM59.4612 58.1675C60.25 44.5838 65.9363 31.7667 75.4401 22.1468L74.7287 21.444C65.053 31.238 59.2657 44.2848 58.4628 58.1095C57.66 71.9341 61.8973 85.5771 70.3723 96.4507C78.8475 107.325 90.9715 114.673 104.446 117.101C117.127 119.386 130.173 117.162 141.387 110.851L138.906 114.274L139.716 114.861L143.609 109.488L144.184 108.695H143.204H136.96V109.695H141.396C130.272 116.109 117.263 118.394 104.623 116.117C91.3931 113.733 79.486 106.517 71.161 95.836C62.8359 85.1547 58.6723 71.7511 59.4612 58.1675ZM114.94 10.6426C106.449 10.5223 98.0775 12.5856 90.6048 16.6255H94.9098V17.6255H88.7045H87.7042L88.3046 16.8254L92.1592 11.6882L92.9591 12.2884L90.5228 15.5353C98.045 11.5534 106.44 9.5221 114.954 9.64274C124.258 9.77458 133.35 12.4716 141.252 17.4431C149.154 22.4146 155.566 29.4723 159.8 37.8562C164.034 46.2401 165.93 55.6334 165.283 65.0258C164.637 74.4183 161.473 83.4551 156.131 91.1641C150.789 98.8732 143.472 104.963 134.965 108.778C126.458 112.592 117.084 113.987 107.852 112.812C98.6198 111.637 89.8796 107.936 82.5712 102.109L83.1946 101.327C90.3603 107.04 98.9288 110.668 107.978 111.82C117.028 112.972 126.216 111.605 134.556 107.865C142.895 104.126 150.071 98.1548 155.309 90.5945C160.548 83.0342 163.652 74.1706 164.286 64.9572C164.92 55.7438 163.06 46.5299 158.907 38.307C154.755 30.0841 148.466 23.1637 140.719 18.2895C132.972 13.4154 124.059 10.7719 114.94 10.6426ZM38.1633 117.434L43.9273 120.082L44.87 120.514L43.9441 120.982L38.1801 123.894L37.7292 123.002L41.62 121.036H13.1364V120.036H41.4319L37.746 118.343L38.1633 117.434ZM172.642 120.081L166.878 117.434L166.46 118.343L170.146 120.036H135.238V121.036H170.146L166.46 122.729L166.878 123.637L172.642 120.99L173.631 120.536L172.642 120.081ZM74.7922 106.589L80.5562 109.501L81.4396 109.947L80.5562 110.394L74.7922 113.305L74.3413 112.413L78.2321 110.447H56.7837V109.447H78.2321L74.3413 107.482L74.7922 106.589ZM194.725 109.501L188.961 106.589L188.51 107.482L192.401 109.447H175.798V110.447H192.401L188.51 112.413L188.961 113.305L194.725 110.394L195.609 109.947L194.725 109.501ZM85.5347 115.305L29.1204 115.305V114.305L85.5347 114.305V115.305ZM214.49 114.795L208.726 111.883L208.275 112.776L212.166 114.742L161.913 114.741V115.741L212.166 115.742L208.275 117.707L208.726 118.6L214.49 115.688L215.374 115.242L214.49 114.795ZM48.4153 110.236H13.1364V109.236H48.4153V110.236ZM155.114 110.236H171.352V109.236H155.114V110.236ZM215.288 120.825H196.483V119.825H215.288V120.825ZM200.244 110.236H215.288V109.236H200.244V110.236Z" fill="white"/>
<mask id="path-2-outside-1_223_692" maskUnits="userSpaceOnUse" x="82" y="54" width="66" height="16" fill="black">
<rect fill="white" x="82" y="54" width="66" height="16"/>
<path d="M88.0047 69C87.32 69 86.6726 68.9419 86.0626 68.8257C85.4526 68.6966 84.8923 68.5159 84.3819 68.2835C83.8715 68.0383 83.4108 67.7478 83 67.4122L83.5976 65.9018C84.0209 66.2245 84.4566 66.4956 84.9048 66.7151C85.353 66.9345 85.8323 67.1024 86.3427 67.2185C86.8531 67.3218 87.4071 67.3734 88.0047 67.3734C89.0878 67.3734 89.8846 67.1734 90.395 66.7732C90.9054 66.373 91.1607 65.8437 91.1607 65.1853C91.1607 64.8239 91.0797 64.5205 90.9179 64.2752C90.7685 64.0171 90.5133 63.7976 90.1523 63.6169C89.8037 63.4361 89.3368 63.2877 88.7517 63.1715L86.7722 62.7455C85.602 62.5002 84.7243 62.0807 84.1391 61.4869C83.5665 60.8801 83.2801 60.0798 83.2801 59.0858C83.2801 58.2596 83.4855 57.5431 83.8964 56.9364C84.3196 56.3167 84.8986 55.8391 85.6331 55.5035C86.3676 55.1678 87.2142 55 88.1728 55C88.7704 55 89.3368 55.0645 89.8721 55.1936C90.4199 55.3098 90.9241 55.497 91.3848 55.7552C91.8454 56.0005 92.25 56.2974 92.5986 56.6459L92.001 58.0788C91.4532 57.5754 90.8681 57.2075 90.2456 56.9751C89.6231 56.7427 88.9322 56.6266 88.1728 56.6266C87.5379 56.6266 86.9901 56.7234 86.5294 56.917C86.0688 57.1107 85.714 57.3882 85.465 57.7497C85.216 58.1111 85.0915 58.5371 85.0915 59.0277C85.0915 59.5957 85.2596 60.0475 85.5957 60.3831C85.9443 60.7188 86.5232 60.9705 87.3324 61.1383L89.2932 61.5643C90.5382 61.8354 91.4657 62.2485 92.0757 62.8036C92.6857 63.3587 92.9907 64.1139 92.9907 65.0692C92.9907 65.8437 92.7853 66.5279 92.3745 67.1217C91.9761 67.7155 91.4034 68.1803 90.6565 68.5159C89.9095 68.8386 89.0256 69 88.0047 69ZM101.079 69C99.7593 69 98.6263 68.716 97.6802 68.148C96.7465 67.58 96.0306 66.7732 95.5326 65.7275C95.0347 64.669 94.7857 63.4232 94.7857 61.9903C94.7857 60.5574 95.0347 59.3181 95.5326 58.2725C96.0306 57.2268 96.7465 56.42 97.6802 55.852C98.6263 55.284 99.7593 55 101.079 55C101.975 55 102.809 55.1485 103.581 55.4454C104.366 55.7294 105.019 56.1489 105.542 56.704L104.888 58.2144C104.316 57.6851 103.724 57.2978 103.114 57.0526C102.517 56.8073 101.857 56.6846 101.135 56.6846C99.7032 56.6846 98.6077 57.1494 97.8482 58.0788C97.0888 58.9954 96.7091 60.2992 96.7091 61.9903C96.7091 63.6814 97.0888 64.9917 97.8482 65.9212C98.6077 66.8506 99.7032 67.3154 101.135 67.3154C101.857 67.3154 102.517 67.1927 103.114 66.9474C103.724 66.7022 104.316 66.3149 104.888 65.7856L105.542 67.296C105.019 67.8382 104.366 68.2577 103.581 68.5546C102.809 68.8515 101.975 69 101.079 69ZM107.854 68.8257V55.1743H113.214C114.645 55.1743 115.741 55.5228 116.5 56.2199C117.272 56.917 117.658 57.8981 117.658 59.1632C117.658 59.9894 117.484 60.6994 117.135 61.2932C116.787 61.8741 116.282 62.3195 115.623 62.6293C114.963 62.9391 114.16 63.0941 113.214 63.0941L113.4 62.823H113.848C114.346 62.823 114.776 62.9521 115.137 63.2102C115.51 63.4684 115.84 63.8815 116.127 64.4495L118.424 68.8257H116.426L114.147 64.4689C113.973 64.1203 113.78 63.8557 113.568 63.675C113.357 63.4813 113.108 63.3458 112.821 63.2683C112.547 63.1909 112.224 63.1521 111.85 63.1521H109.665V68.8257H107.854ZM109.665 61.6999H112.933C113.904 61.6999 114.639 61.4933 115.137 61.0802C115.635 60.6542 115.884 60.0281 115.884 59.2019C115.884 58.3757 115.635 57.7561 115.137 57.343C114.639 56.917 113.904 56.704 112.933 56.704H109.665V61.6999ZM125.703 69C123.96 69 122.628 68.5224 121.707 67.5671C120.798 66.6118 120.344 65.2047 120.344 63.3458V55.1743H122.155V63.3071C122.155 64.6625 122.454 65.6759 123.052 66.3472C123.662 67.0184 124.546 67.3541 125.703 67.3541C126.874 67.3541 127.758 67.0184 128.355 66.3472C128.953 65.6759 129.252 64.6625 129.252 63.3071V55.1743H131.063V63.3458C131.063 65.2047 130.609 66.6118 129.7 67.5671C128.791 68.5224 127.459 69 125.703 69ZM134.152 68.8257V55.1743H135.665L140.894 65.2822H140.315L145.506 55.1743H147V68.8257H145.357V57.8077H145.786L141.155 66.7344H140.016L135.347 57.7884H135.795V68.8257H134.152Z"/>
</mask>
<path d="M88.0047 69C87.32 69 86.6726 68.9419 86.0626 68.8257C85.4526 68.6966 84.8923 68.5159 84.3819 68.2835C83.8715 68.0383 83.4108 67.7478 83 67.4122L83.5976 65.9018C84.0209 66.2245 84.4566 66.4956 84.9048 66.7151C85.353 66.9345 85.8323 67.1024 86.3427 67.2185C86.8531 67.3218 87.4071 67.3734 88.0047 67.3734C89.0878 67.3734 89.8846 67.1734 90.395 66.7732C90.9054 66.373 91.1607 65.8437 91.1607 65.1853C91.1607 64.8239 91.0797 64.5205 90.9179 64.2752C90.7685 64.0171 90.5133 63.7976 90.1523 63.6169C89.8037 63.4361 89.3368 63.2877 88.7517 63.1715L86.7722 62.7455C85.602 62.5002 84.7243 62.0807 84.1391 61.4869C83.5665 60.8801 83.2801 60.0798 83.2801 59.0858C83.2801 58.2596 83.4855 57.5431 83.8964 56.9364C84.3196 56.3167 84.8986 55.8391 85.6331 55.5035C86.3676 55.1678 87.2142 55 88.1728 55C88.7704 55 89.3368 55.0645 89.8721 55.1936C90.4199 55.3098 90.9241 55.497 91.3848 55.7552C91.8454 56.0005 92.25 56.2974 92.5986 56.6459L92.001 58.0788C91.4532 57.5754 90.8681 57.2075 90.2456 56.9751C89.6231 56.7427 88.9322 56.6266 88.1728 56.6266C87.5379 56.6266 86.9901 56.7234 86.5294 56.917C86.0688 57.1107 85.714 57.3882 85.465 57.7497C85.216 58.1111 85.0915 58.5371 85.0915 59.0277C85.0915 59.5957 85.2596 60.0475 85.5957 60.3831C85.9443 60.7188 86.5232 60.9705 87.3324 61.1383L89.2932 61.5643C90.5382 61.8354 91.4657 62.2485 92.0757 62.8036C92.6857 63.3587 92.9907 64.1139 92.9907 65.0692C92.9907 65.8437 92.7853 66.5279 92.3745 67.1217C91.9761 67.7155 91.4034 68.1803 90.6565 68.5159C89.9095 68.8386 89.0256 69 88.0047 69ZM101.079 69C99.7593 69 98.6263 68.716 97.6802 68.148C96.7465 67.58 96.0306 66.7732 95.5326 65.7275C95.0347 64.669 94.7857 63.4232 94.7857 61.9903C94.7857 60.5574 95.0347 59.3181 95.5326 58.2725C96.0306 57.2268 96.7465 56.42 97.6802 55.852C98.6263 55.284 99.7593 55 101.079 55C101.975 55 102.809 55.1485 103.581 55.4454C104.366 55.7294 105.019 56.1489 105.542 56.704L104.888 58.2144C104.316 57.6851 103.724 57.2978 103.114 57.0526C102.517 56.8073 101.857 56.6846 101.135 56.6846C99.7032 56.6846 98.6077 57.1494 97.8482 58.0788C97.0888 58.9954 96.7091 60.2992 96.7091 61.9903C96.7091 63.6814 97.0888 64.9917 97.8482 65.9212C98.6077 66.8506 99.7032 67.3154 101.135 67.3154C101.857 67.3154 102.517 67.1927 103.114 66.9474C103.724 66.7022 104.316 66.3149 104.888 65.7856L105.542 67.296C105.019 67.8382 104.366 68.2577 103.581 68.5546C102.809 68.8515 101.975 69 101.079 69ZM107.854 68.8257V55.1743H113.214C114.645 55.1743 115.741 55.5228 116.5 56.2199C117.272 56.917 117.658 57.8981 117.658 59.1632C117.658 59.9894 117.484 60.6994 117.135 61.2932C116.787 61.8741 116.282 62.3195 115.623 62.6293C114.963 62.9391 114.16 63.0941 113.214 63.0941L113.4 62.823H113.848C114.346 62.823 114.776 62.9521 115.137 63.2102C115.51 63.4684 115.84 63.8815 116.127 64.4495L118.424 68.8257H116.426L114.147 64.4689C113.973 64.1203 113.78 63.8557 113.568 63.675C113.357 63.4813 113.108 63.3458 112.821 63.2683C112.547 63.1909 112.224 63.1521 111.85 63.1521H109.665V68.8257H107.854ZM109.665 61.6999H112.933C113.904 61.6999 114.639 61.4933 115.137 61.0802C115.635 60.6542 115.884 60.0281 115.884 59.2019C115.884 58.3757 115.635 57.7561 115.137 57.343C114.639 56.917 113.904 56.704 112.933 56.704H109.665V61.6999ZM125.703 69C123.96 69 122.628 68.5224 121.707 67.5671C120.798 66.6118 120.344 65.2047 120.344 63.3458V55.1743H122.155V63.3071C122.155 64.6625 122.454 65.6759 123.052 66.3472C123.662 67.0184 124.546 67.3541 125.703 67.3541C126.874 67.3541 127.758 67.0184 128.355 66.3472C128.953 65.6759 129.252 64.6625 129.252 63.3071V55.1743H131.063V63.3458C131.063 65.2047 130.609 66.6118 129.7 67.5671C128.791 68.5224 127.459 69 125.703 69ZM134.152 68.8257V55.1743H135.665L140.894 65.2822H140.315L145.506 55.1743H147V68.8257H145.357V57.8077H145.786L141.155 66.7344H140.016L135.347 57.7884H135.795V68.8257H134.152Z" stroke="white" mask="url(#path-2-outside-1_223_692)"/>
</svg>
