<svg width="203" height="124" viewBox="0 0 203 124" fill="none" xmlns="http://www.w3.org/2000/svg">
<path fill-rule="evenodd" clip-rule="evenodd" d="M73.7085 7.67326C86.1962 1.24354 100.523 -0.524816 114.17 2.67846C127.818 5.88176 139.915 13.8521 148.334 25.1904L149.137 24.5942C140.578 13.0678 128.278 4.96263 114.399 1.70492C100.519 -1.55281 85.9494 0.24583 73.2507 6.78419C60.5521 13.3225 50.538 24.1814 44.967 37.4512C39.681 50.042 38.7156 64.0396 42.1864 77.2176L38.9285 73.5224L38.1784 74.1838L42.8901 79.5279L43.485 80.2026L43.744 79.3412L45.9069 72.1464L44.9492 71.8585L43.2765 77.4229C39.7167 64.3237 40.627 50.3721 45.8891 37.8383C51.3699 24.7834 61.2206 14.1031 73.7085 7.67326ZM94.1757 120.233C91.885 120.198 89.5441 120.163 87.1459 120.163L45.6054 120.163V121.163L87.1459 121.163C89.5086 121.163 91.8267 121.199 94.1052 121.234C106.348 121.424 117.446 121.597 128.18 116.07C140.878 109.532 150.892 98.6729 156.463 85.4031C161.708 72.9095 162.7 59.0306 159.324 45.9419L163.006 50.6319L163.793 50.0143L158.558 43.3483L157.931 42.5488L157.681 43.534L155.518 52.0507L156.487 52.2968L158.193 45.5774C161.707 58.6342 160.784 72.5287 155.541 85.016C150.06 98.0709 140.21 108.751 127.722 115.181C117.23 120.583 106.418 120.419 94.1757 120.233ZM62.4401 22.1468C52.9363 31.7667 47.25 44.5838 46.4612 58.1675C45.6723 71.7511 49.8359 85.1547 58.161 95.836C66.486 106.517 78.3931 113.733 91.6229 116.117C104.263 118.394 117.272 116.109 128.396 109.695H123.96V108.695H130.204H131.184L130.609 109.488L126.716 114.861L125.906 114.274L128.387 110.851C117.173 117.162 104.127 119.386 91.4456 117.101C77.9715 114.673 65.8475 107.325 57.3723 96.4507C48.8973 85.5771 44.66 71.9341 45.4628 58.1095C46.2657 44.2848 52.053 31.238 61.7287 21.444L62.4401 22.1468ZM77.6048 16.6255C85.0775 12.5856 93.449 10.5223 101.94 10.6426C111.059 10.7719 119.972 13.4154 127.719 18.2895C135.466 23.1637 141.755 30.0841 145.907 38.307C150.06 46.5299 151.92 55.7438 151.286 64.9572C150.652 74.1706 147.548 83.0342 142.309 90.5945C137.071 98.1548 129.895 104.126 121.556 107.865C113.216 111.605 104.028 112.972 94.9782 111.82C85.9288 110.668 77.3603 107.04 70.1946 101.327L69.5712 102.109C76.8796 107.936 85.6198 111.637 94.8519 112.812C104.084 113.987 113.458 112.592 121.965 108.778C130.472 104.963 137.789 98.8732 143.131 91.1641C148.473 83.4551 151.637 74.4183 152.283 65.0258C152.93 55.6334 151.034 46.2401 146.8 37.8562C142.566 29.4723 136.154 22.4146 128.252 17.4431C120.35 12.4716 111.258 9.77458 101.954 9.64274C93.4404 9.52211 85.045 11.5534 77.5228 15.5353L79.9591 12.2884L79.1592 11.6882L75.3046 16.8254L74.7042 17.6255H75.7045H81.9098V16.6255H77.6048ZM30.9273 120.082L25.1633 117.434L24.746 118.343L28.4319 120.036H0.136353V121.036H28.62L24.7292 123.002L25.1801 123.894L30.9441 120.982L31.87 120.514L30.9273 120.082ZM153.878 117.434L159.642 120.081L160.631 120.536L159.642 120.99L153.878 123.637L153.46 122.729L157.146 121.036H122.238V120.036H157.146L153.46 118.343L153.878 117.434ZM67.5562 109.501L61.7922 106.589L61.3413 107.482L65.2321 109.447H43.7837V110.447H65.2321L61.3413 112.413L61.7922 113.305L67.5562 110.394L68.4396 109.947L67.5562 109.501ZM175.961 106.589L181.725 109.501L182.609 109.947L181.725 110.394L175.961 113.305L175.51 112.413L179.401 110.447H162.798V109.447H179.401L175.51 107.482L175.961 106.589ZM16.1204 115.305L72.5347 115.305V114.305L16.1204 114.305V115.305ZM195.726 111.883L201.49 114.795L202.374 115.242L201.49 115.688L195.726 118.6L195.275 117.707L199.166 115.742L148.913 115.741V114.741L199.166 114.742L195.275 112.776L195.726 111.883ZM0.136427 110.236H35.4153V109.236H0.136427V110.236ZM158.352 110.236H142.114V109.236H158.352V110.236ZM183.483 120.825H202.288V119.825H183.483V120.825ZM202.288 110.236H187.244V109.236H202.288V110.236ZM78.6618 67.6592L78.6617 67.6593L78.6715 67.6611C79.196 67.7586 79.7483 67.8065 80.3275 67.8065C81.1999 67.8065 81.981 67.6721 82.658 67.3866L82.6645 67.3837C83.3365 67.089 83.8762 66.6695 84.2577 66.1156C84.6511 65.5592 84.8442 64.9197 84.8442 64.2153C84.8442 63.3438 84.5531 62.6053 83.9391 62.0598C83.3564 61.5422 82.5139 61.192 81.4694 60.97L81.4692 60.9699L79.8896 60.6349L79.8851 60.634C79.27 60.5094 78.9135 60.337 78.7325 60.1689C78.5776 60.0162 78.4806 59.8001 78.4806 59.4642C78.4806 59.1699 78.5554 58.9382 78.69 58.7474C78.8278 58.5522 79.032 58.3887 79.3288 58.2669C79.6256 58.1451 79.9993 58.0759 80.4629 58.0759C81.0247 58.0759 81.5223 58.1598 81.9615 58.3198C82.3967 58.4784 82.8139 58.7322 83.2129 59.0902L83.7324 59.5563L84.0066 58.9145L84.488 57.7876L84.6226 57.4726L84.3775 57.2334C84.0605 56.924 83.6955 56.6631 83.2857 56.4495C82.8716 56.2235 82.4221 56.0613 81.9398 55.9608C81.4699 55.8508 80.9771 55.7968 80.4629 55.7968C79.6337 55.7968 78.8801 55.9386 78.2132 56.2361C77.5463 56.5336 77.0057 56.9648 76.6082 57.5329L76.607 57.5346C76.2112 58.1052 76.0214 58.7709 76.0214 59.5099C76.0214 60.3966 76.2866 61.1589 76.8539 61.7457L76.8539 61.7458L76.8615 61.7533C77.4262 62.3128 78.2364 62.6734 79.2331 62.8775L79.2343 62.8778L80.8264 63.2123L80.8264 63.2123L80.8341 63.2138C81.2812 63.3005 81.6078 63.406 81.8317 63.5194L81.838 63.5224C82.0727 63.6371 82.1889 63.7526 82.2442 63.8459L82.2517 63.8587L82.26 63.8709C82.3232 63.9644 82.3699 64.0999 82.3699 64.3067C82.3699 64.6687 82.2368 64.9382 81.9492 65.1583C81.6672 65.3741 81.1585 65.5274 80.3275 65.5274C79.8762 65.5274 79.4647 65.4895 79.0912 65.4162C78.7173 65.3327 78.3692 65.2131 78.0458 65.0585C77.7157 64.9007 77.3923 64.7047 77.0757 64.469L76.5567 64.0827L76.3137 64.6823L75.8323 65.87L75.6921 66.216L75.984 66.4488C76.3477 66.7388 76.7525 66.9875 77.1966 67.1958L77.1966 67.1959L77.2059 67.2C77.6533 67.3988 78.1392 67.5512 78.6618 67.6592ZM77.9806 59.4642C77.9806 59.9109 78.116 60.2662 78.3868 60.5301C78.6676 60.7941 79.134 60.9921 79.7859 61.124L81.3655 61.459C82.3684 61.6722 83.1156 61.9971 83.607 62.4336C84.0984 62.8702 84.3442 63.464 84.3442 64.2153C84.3442 64.8244 84.1787 65.3624 83.8477 65.8294C83.5268 66.2964 83.0654 66.6619 82.4637 66.9258C81.8619 67.1796 81.1499 67.3065 80.3275 67.3065C79.7758 67.3065 79.2543 67.2609 78.7629 67.1695C78.2715 67.068 77.8202 66.9258 77.409 66.7431C76.9978 66.5502 76.6267 66.3218 76.2957 66.0579L76.5835 65.3478L76.7771 64.8701C76.9161 64.9735 77.0567 65.0702 77.1991 65.1602C77.4059 65.2909 77.6163 65.4074 77.8302 65.5097C78.1912 65.6822 78.5774 65.8142 78.9886 65.9056C79.3998 65.9868 79.8461 66.0274 80.3275 66.0274C81.2 66.0274 81.8419 65.87 82.2531 65.5553C82.6643 65.2406 82.8699 64.8244 82.8699 64.3067C82.8699 64.0224 82.8047 63.7838 82.6743 63.5909C82.5539 63.3879 82.3483 63.2153 82.0575 63.0732C81.7767 62.9311 81.4006 62.8143 80.9292 62.723L79.3346 62.3879C78.3918 62.1951 77.6848 61.8651 77.2134 61.3981C76.752 60.921 76.5214 60.2916 76.5214 59.5099C76.5214 58.8601 76.6869 58.2967 77.0178 57.8196C77.3588 57.3323 77.8252 56.9567 78.4169 56.6927C79.0086 56.4288 79.6906 56.2968 80.4629 56.2968C80.9443 56.2968 81.4006 56.3475 81.8318 56.4491C82.2731 56.5404 82.6793 56.6876 83.0504 56.8907C83.4215 57.0836 83.7474 57.3171 84.0282 57.5912L83.7533 58.2348L83.5468 58.718C83.4148 58.5996 83.2801 58.4907 83.1427 58.3913C82.8208 58.1585 82.4842 57.9781 82.1327 57.85C81.6313 57.6673 81.0746 57.5759 80.4629 57.5759C79.9514 57.5759 79.5101 57.6521 79.139 57.8043C78.7679 57.9566 78.4821 58.1749 78.2815 58.4591C78.0809 58.7434 77.9806 59.0784 77.9806 59.4642ZM87.8666 67.0664L87.8691 67.0679C88.7222 67.5679 89.726 67.8065 90.8599 67.8065C91.6363 67.8065 92.368 67.6809 93.0503 67.4248C93.7418 67.1692 94.3326 66.8022 94.8111 66.3179L95.0506 66.0754L94.9125 65.7639L94.3859 64.5761L94.1063 63.9452L93.5939 64.4075C93.1695 64.7904 92.7435 65.0596 92.317 65.2269L92.3137 65.2283C91.8982 65.3947 91.4307 65.4817 90.905 65.4817C89.8655 65.4817 89.1376 65.158 88.6407 64.5644C88.1293 63.9533 87.8396 63.0526 87.8396 61.7941C87.8396 60.535 88.1295 59.6413 88.6385 59.0416L88.6407 59.0389C89.1376 58.4453 89.8655 58.1216 90.905 58.1216C91.4307 58.1216 91.8982 58.2086 92.3137 58.3751L92.317 58.3764C92.7435 58.5438 93.1695 58.8129 93.5939 59.1959L94.1063 59.6581L94.3859 59.0272L94.9125 57.8395L95.0488 57.5318L94.8152 57.2896C94.3357 56.7927 93.7422 56.4237 93.047 56.1772C92.3656 55.922 91.6351 55.7968 90.8599 55.7968C89.726 55.7968 88.7222 56.0355 87.8691 56.5354L87.8666 56.5369C87.0266 57.0357 86.3844 57.7453 85.9425 58.6511C85.5012 59.5556 85.2901 60.6085 85.2901 61.7941C85.2901 62.9799 85.5013 64.0367 85.9415 64.9501L85.9425 64.9523C86.3844 65.858 87.0266 66.5676 87.8666 67.0664ZM94.4554 65.9665C94.0341 66.3929 93.5076 66.7228 92.8758 66.9563C92.254 67.1898 91.582 67.3065 90.8599 67.3065C89.7968 67.3065 88.8841 67.0832 88.1219 66.6365C87.3697 66.1898 86.793 65.5553 86.3919 64.733C85.9907 63.9006 85.7901 62.9209 85.7901 61.7941C85.7901 60.6672 85.9907 59.6926 86.3919 58.8703C86.793 58.048 87.3697 57.4135 88.1219 56.9668C88.8841 56.5201 89.7968 56.2968 90.8599 56.2968C91.582 56.2968 92.254 56.4135 92.8758 56.647C93.5076 56.8704 94.0341 57.2003 94.4554 57.6368L94.1412 58.3455L93.9288 58.8246C93.7966 58.7053 93.6631 58.5952 93.5284 58.4942C93.1931 58.243 92.8502 58.0485 92.4997 57.9109C92.0183 57.7181 91.4867 57.6216 90.905 57.6216C89.7517 57.6216 88.8691 57.9871 88.2573 58.718C87.6455 59.4388 87.3396 60.4641 87.3396 61.7941C87.3396 63.124 87.6455 64.1544 88.2573 64.8853C88.8691 65.6162 89.7517 65.9817 90.905 65.9817C91.4867 65.9817 92.0183 65.8853 92.4997 65.6924C92.8502 65.5548 93.1931 65.3604 93.5284 65.1091C93.6631 65.0082 93.7966 64.898 93.9288 64.7787L94.1412 65.2578L94.4554 65.9665ZM95.8179 67.1695V67.6695H96.3179H97.7771H98.2771V67.1695V63.2077H99.5372C99.8064 63.2077 100.02 63.2352 100.186 63.2811L100.192 63.2825C100.35 63.3242 100.479 63.3943 100.588 63.4918L100.595 63.4975L100.601 63.5029C100.704 63.5887 100.822 63.7353 100.943 63.9712L100.943 63.9712L100.947 63.9793L102.782 67.4056L102.924 67.6695H103.223H104.833H105.669L105.273 66.9327L103.425 63.4947C103.268 63.1928 103.09 62.9257 102.885 62.7034C103.451 62.4241 103.902 62.0263 104.221 61.5077L104.223 61.5035C104.559 60.9449 104.716 60.2937 104.716 59.5708C104.716 58.4645 104.365 57.5444 103.615 56.8824C102.881 56.225 101.861 55.9338 100.635 55.9338H96.3179H95.8179V56.4338V67.1695ZM97.7771 62.7077V63.2077V66.6695V67.1695H97.2771H96.8179H96.3179V66.6695V56.9338V56.4338H96.8179H100.635C101.789 56.4338 102.671 56.7079 103.283 57.2561C103.905 57.8043 104.216 58.5759 104.216 59.5708C104.216 60.2205 104.075 60.7789 103.795 61.2458C103.514 61.7027 103.108 62.0529 102.576 62.2966C102.541 62.3125 102.506 62.3279 102.47 62.3428L102.459 62.3476C102.252 62.4328 102.029 62.5007 101.789 62.5513C101.931 62.6008 102.063 62.6681 102.185 62.7534C102.253 62.7991 102.318 62.8509 102.383 62.9088C102.604 63.1087 102.803 63.3817 102.982 63.728L104.564 66.6695L104.833 67.1695H104.265H103.223L101.388 63.7432C101.259 63.4914 101.117 63.2952 100.962 63.1548C100.949 63.1424 100.935 63.1304 100.921 63.1189C100.834 63.0408 100.739 62.9748 100.635 62.9208C100.537 62.8693 100.432 62.8288 100.32 62.7991C100.214 62.7698 100.098 62.7476 99.9738 62.7324C99.8391 62.716 99.6936 62.7077 99.5372 62.7077H98.2771H97.7771ZM100.41 58.1368C101.131 58.1368 101.588 58.2927 101.864 58.5232L101.87 58.5279C102.125 58.734 102.287 59.0598 102.287 59.6012C102.287 60.14 102.126 60.4747 101.867 60.6921C101.591 60.9147 101.131 61.0656 100.41 61.0656H98.2771V58.1368H100.41ZM100.41 61.5656C101.192 61.5656 101.784 61.4032 102.185 61.0783C102.586 60.7433 102.787 60.251 102.787 59.6012C102.787 58.9515 102.586 58.4642 102.185 58.1394C101.784 57.8043 101.192 57.6368 100.41 57.6368H98.2771H97.7771V58.1368V61.0656V61.5656H98.2771H100.41ZM107.12 66.5287L107.122 66.5311C107.986 67.4056 109.205 67.8065 110.697 67.8065C112.198 67.8065 113.419 67.4064 114.275 66.5286C115.129 65.6525 115.515 64.4003 115.515 62.86V56.4338V55.9338H115.015H113.555H113.055V56.4338V62.8295C113.055 63.8308 112.828 64.4839 112.464 64.8834C112.105 65.277 111.547 65.5122 110.697 65.5122C109.862 65.5122 109.3 65.2789 108.929 64.8814C108.565 64.4818 108.339 63.8291 108.339 62.8295V56.4338V55.9338H107.839H106.38H105.88V56.4338V62.86C105.88 64.4003 106.266 65.6525 107.12 66.5287ZM117.003 67.1695V67.6695H117.503H118.827H119.327V67.1695V61.1609L121.786 65.7606L121.927 66.0249H122.227H123.145H123.445L123.586 65.7595L126.03 61.1621V67.1695V67.6695H126.53H127.853H128.353V67.1695V56.4338V55.9338H127.853H126.65H126.348L126.207 56.201L122.699 62.8704L119.164 56.1997L119.023 55.9338H118.722H117.503H117.003V56.4338V67.1695ZM118.827 66.6695V60.2256V59.165L119.327 60.1003L121.761 64.6527L121.884 64.8828L122.227 65.5249H123.145L123.486 64.8828L123.626 64.62L126.03 60.0967L126.53 59.1559V60.2213V66.6695V67.1695H127.03H127.353H127.853V66.6695V56.9338V56.4338H127.353H126.65L122.982 63.4053L122.731 63.8828L122.7 63.9412L122.669 63.8828L122.417 63.4062L118.722 56.4338H118.003H117.503V56.9338V66.6695V67.1695H118.003H118.327H118.827V66.6695ZM110.697 67.3065C109.293 67.3065 108.22 66.9309 107.478 66.1797C106.746 65.4284 106.38 64.3219 106.38 62.86V56.9338V56.4338H106.88H107.339H107.839V56.9338V62.8295C107.839 63.8955 108.08 64.6924 108.561 65.2203C109.052 65.7482 109.764 66.0122 110.697 66.0122C111.64 66.0122 112.352 65.7482 112.833 65.2203C113.315 64.6924 113.555 63.8955 113.555 62.8295V56.9338V56.4338H114.055H114.515H115.015V56.9338V62.86C115.015 64.3219 114.649 65.4284 113.917 66.1797C113.184 66.9309 112.111 67.3065 110.697 67.3065Z" fill="white"/>
</svg>
