<svg width="128" height="124" viewBox="0 0 128 124" fill="none" xmlns="http://www.w3.org/2000/svg">
<path fill-rule="evenodd" clip-rule="evenodd" d="M50.6174 2.69344C64.4695 -0.540637 79.0105 1.24477 91.685 7.73615C104.36 14.2276 114.357 25.0099 119.919 38.1888C125.263 50.8496 126.185 64.9433 122.564 78.1741L120.859 72.5318L119.901 72.8211L122.096 80.0838L122.355 80.9407L122.949 80.2708L127.731 74.8762L126.982 74.2129L123.655 77.9662C127.186 64.6568 126.208 50.5173 120.841 37.7999C115.187 24.4055 105.026 13.4452 92.1409 6.8461C79.256 0.246953 64.4729 -1.56832 50.3901 1.71962C36.3073 5.00756 23.8269 13.188 15.1419 24.8224L15.9433 25.4206C24.4878 13.9744 36.7653 5.92752 50.6174 2.69344ZM77.9307 121.31C64.0786 124.544 49.5376 122.758 36.8631 116.267C24.1885 109.775 14.1911 98.9931 8.62877 85.8142C3.30464 73.1996 2.37035 59.1626 5.94483 45.9739L7.68366 52.7846L8.65258 52.5373L6.45768 43.9402L6.20747 42.9601L5.58076 43.7541L0.269104 50.483L1.05403 51.1026L4.81281 46.3409C1.37757 59.5615 2.38081 73.5825 7.70747 86.2031C13.3607 99.5975 23.5224 110.558 36.4072 117.157C49.2922 123.756 64.0753 125.571 78.1581 122.283C92.2408 118.995 104.721 110.815 113.406 99.1806L112.605 98.5824C104.06 110.029 91.7828 118.075 77.9307 121.31ZM119.339 58.7103C118.538 44.998 112.768 32.059 103.122 22.3472L103.832 21.6425C113.65 31.528 119.523 44.6972 120.337 58.652C121.152 72.6068 116.852 86.3778 108.252 97.3532C99.6522 108.329 87.3503 115.745 73.679 118.196C60.8025 120.503 47.5557 118.254 36.1713 111.873L38.703 115.349L37.8947 115.938L33.9439 110.514L33.3653 109.719H34.3481H40.6844V110.719H36.1639C47.4572 117.202 60.6674 119.512 73.5026 117.211C86.931 114.805 99.0159 107.519 107.465 96.7364C115.914 85.9534 120.14 72.4225 119.339 58.7103ZM63.0313 10.7326C71.6552 10.611 80.158 12.6972 87.7466 16.7814H83.3578V17.7814H89.655H90.6585L90.0542 16.9803L86.1424 11.7946L85.3441 12.3968L87.8306 15.6931C80.1918 11.6655 71.6644 9.61081 63.0172 9.7327C53.5773 9.86575 44.3523 12.5877 36.3346 17.6054C28.3169 22.6231 21.81 29.7465 17.5135 38.209C13.217 46.6715 11.2934 56.1531 11.9494 65.6339C12.6053 75.1146 15.816 84.2362 21.2364 92.0174C26.6569 99.7986 34.082 105.945 42.7135 109.795C51.3449 113.645 60.8557 115.053 70.2227 113.867C79.5897 112.681 88.458 108.946 95.8736 103.064L95.2522 102.28C87.9793 108.049 79.2824 111.712 70.0971 112.875C60.9118 114.038 51.5854 112.657 43.1208 108.882C34.6563 105.106 27.3737 99.0782 22.057 91.4458C16.7402 83.8134 13.5905 74.8656 12.947 65.5648C12.3035 56.2641 14.1906 46.9628 18.4052 38.6617C22.6197 30.3606 29.002 23.374 36.8651 18.4531C44.7281 13.5322 53.7746 10.8631 63.0313 10.7326Z" fill="white"/>
</svg>
