<svg width="230" height="124" viewBox="0 0 230 124" fill="none" xmlns="http://www.w3.org/2000/svg">
<path fill-rule="evenodd" clip-rule="evenodd" d="M101.617 2.69344C115.469 -0.540637 130.01 1.24477 142.685 7.73615C155.36 14.2276 165.357 25.0099 170.919 38.1888C176.263 50.8496 177.185 64.9433 173.564 78.1741L171.859 72.5318L170.901 72.8211L173.096 80.0838L173.355 80.9407L173.949 80.2708L178.731 74.8762L177.982 74.2129L174.655 77.9662C178.186 64.6568 177.208 50.5173 171.841 37.7999C166.187 24.4055 156.026 13.4452 143.141 6.8461C130.256 0.246953 115.473 -1.56832 101.39 1.71963C87.3072 5.00756 74.8269 13.188 66.1419 24.8224L66.9432 25.4206C75.4878 13.9744 87.7652 5.92752 101.617 2.69344ZM128.931 121.31C115.079 124.544 100.538 122.758 87.863 116.267C75.1884 109.775 65.191 98.9931 59.6287 85.8142C54.3046 73.1996 53.3703 59.1626 56.9448 45.9739L58.6836 52.7846L59.6525 52.5373L57.4576 43.9402L57.2074 42.9601L56.5807 43.7541L51.269 50.483L52.054 51.1026L55.8128 46.3409C52.3775 59.5615 53.3808 73.5825 58.7074 86.2031C64.3607 99.5975 74.5223 110.558 87.4072 117.157C100.292 123.756 115.075 125.571 129.158 122.283C143.241 118.995 155.721 110.815 164.406 99.1806L163.605 98.5824C155.06 110.029 142.783 118.075 128.931 121.31ZM170.339 58.7103C169.538 44.998 163.768 32.059 154.122 22.3472L154.832 21.6425C164.65 31.528 170.522 44.6972 171.337 58.652C172.152 72.6068 167.852 86.3778 159.252 97.3532C150.652 108.329 138.35 115.745 124.679 118.196C111.802 120.503 98.5556 118.254 87.1713 111.873L89.703 115.349L88.8947 115.938L84.9439 110.514L84.3652 109.719H85.348H91.6843V110.719H87.1639C98.4572 117.202 111.667 119.512 124.503 117.211C137.931 114.805 150.016 107.519 158.465 96.7364C166.914 85.9534 171.139 72.4225 170.339 58.7103ZM114.031 10.7326C122.655 10.611 131.158 12.6972 138.747 16.7814H134.358V17.7814H140.655H141.658L141.054 16.9803L137.142 11.7946L136.344 12.3968L138.831 15.6931C131.192 11.6655 122.664 9.61081 114.017 9.7327C104.577 9.86575 95.3522 12.5877 87.3345 17.6054C79.3168 22.6231 72.8099 29.7465 68.5135 38.209C64.217 46.6715 62.2934 56.1531 62.9493 65.6339C63.6052 75.1146 66.8159 84.2362 72.2364 92.0174C77.6568 99.7986 85.082 105.945 93.7134 109.795C102.345 113.645 111.856 115.053 121.223 113.867C130.59 112.681 139.458 108.946 146.874 103.064L146.252 102.28C138.979 108.049 130.282 111.712 121.097 112.875C111.912 114.038 102.585 112.657 94.1208 108.882C85.6562 105.106 78.3737 99.0782 73.0569 91.4458C67.7401 83.8134 64.5904 74.8656 63.9469 65.5648C63.3034 56.2641 65.1906 46.9628 69.4051 38.6617C73.6196 30.3606 80.0019 23.374 87.865 18.4531C95.7281 13.5322 104.775 10.8631 114.031 10.7326Z" fill="white"/>
<path d="M114 74.0461C114 79.2928 109.747 83.5461 104.5 83.5461C99.2533 83.5461 95 79.2928 95 74.0461C95 68.7994 99.2533 64.5461 104.5 64.5461C109.747 64.5461 114 68.7994 114 74.0461Z" stroke="white"/>
<path d="M128 74.0464C128 75.9821 127.766 77.8633 127.325 79.6629C126.765 81.9461 119.888 80.3509 118.716 82.3174C117.603 84.1834 122.222 89.6296 120.653 91.1146C119.24 92.4526 117.661 93.6169 115.949 94.5735C114.193 95.5552 110.528 90.145 108.531 90.6521C106.675 91.1231 106.502 97.5464 104.5 97.5464C102.564 97.5464 100.683 97.3123 98.8834 96.871C96.6002 96.311 97.0953 90.1998 95.1288 89.0272C93.6897 88.1691 89.7028 92.3791 88.484 91.2435C86.7496 89.6275 85.26 87.7523 84.0768 85.6796C83.0454 83.8728 88.2385 81.632 87.7137 79.5659C87.2422 77.7097 81 76.0493 81 74.0464C81 72.1106 81.2341 70.2295 81.6754 68.4298C82.1472 66.5061 88.4257 67.869 89.3386 66.164C90.3356 64.3018 86.0062 59.3959 87.4478 57.8762C88.709 56.5466 90.124 55.3645 91.6644 54.3582C93.5001 53.159 97.7099 59.0203 99.8532 58.3689C102.018 57.7109 102.12 50.5464 104.5 50.5464C106.436 50.5464 108.317 50.7804 110.117 51.2218C112.397 51.7811 110.298 58.7026 112.262 59.8734C114.171 61.0109 120.155 56.3822 121.665 57.9955C122.627 59.0243 123.498 60.1396 124.265 61.3286C125.427 63.1306 119.583 67.8131 120.22 69.9083C120.88 72.0754 128 71.6637 128 74.0464Z" stroke="white"/>
<path d="M125.243 47.2774C127.084 50.6771 131.332 51.9411 134.731 50.1006C138.131 48.2601 139.395 44.012 137.555 40.6122C135.714 37.2125 131.466 35.9485 128.066 37.789C124.666 39.6295 123.402 43.8776 125.243 47.2774Z" stroke="white"/>
<path d="M115.57 52.5143C116.275 53.8182 117.119 55 118.073 56.0513C119.282 57.385 123.332 53.803 124.839 54.6999C126.269 55.5511 125.144 60.9039 126.742 61.3321C128.182 61.718 129.671 61.9264 131.172 61.9467C132.713 61.9675 133.209 56.9868 134.739 56.6C136.161 56.2407 138.62 60.504 139.968 59.774C141.272 59.0681 142.454 58.2245 143.505 57.271C144.839 56.0612 142.277 52.1253 143.174 50.6184C143.83 49.5155 148.051 50.8975 148.458 49.6881C149.037 47.9672 149.357 46.1609 149.398 44.3333C149.434 42.7402 145.118 43.1244 144.718 41.5414C144.359 40.1191 147.958 36.7245 147.228 35.3753C146.522 34.0714 145.678 32.8897 144.725 31.8384C143.706 30.7146 139.973 33.9222 138.737 33.1067C137.386 32.2159 138.513 27.3326 136.988 26.8346C135.654 26.399 134.27 26.1187 132.865 26.0026C131.191 25.8642 130.493 31.3474 128.812 31.6903C127.113 32.0366 124.433 27.2477 122.829 28.1156C121.525 28.8215 120.344 29.6652 119.292 30.6187C117.96 31.8272 121.898 35.7236 121.002 37.2288C120.131 38.6911 114.412 37.7554 113.984 39.3925C113.711 40.4364 113.531 41.5053 113.448 42.5858C113.322 44.2232 118.966 45.2463 119.301 46.89C119.647 48.5902 114.701 50.9094 115.57 52.5143Z" stroke="white"/>
</svg>
