<svg width="132" height="125" viewBox="0 0 132 125" fill="none" xmlns="http://www.w3.org/2000/svg">
<path fill-rule="evenodd" clip-rule="evenodd" d="M13.3288 0.0637207C6.09245 0.0637207 0.231323 5.96441 0.231323 13.237V34.7815H1.23132V13.237C1.23132 6.51103 6.65038 1.06372 13.3288 1.06372H37.8939V0.0637207H13.3288ZM75.5604 6.2598L89.6903 6.25982C87.7894 7.44283 86.5241 9.55875 86.5241 11.9697V51.13H87.5241V11.9697C87.5241 8.81341 90.0667 6.25983 93.1969 6.25983L93.3229 6.2598C95.8269 6.2598 97.8619 8.30271 97.8619 10.8291V11.5964H90.0475V12.5964H98.3619H98.8619V12.0964V10.8291C98.8619 7.75609 96.3848 5.2598 93.3229 5.2598H92.3151H75.5604L75.5604 6.2598ZM6.39622 106.132V86.3617H5.39622V106.132C5.39622 113.405 11.2573 119.305 18.4937 119.305H24.0366V118.305H18.4937C11.8153 118.305 6.39622 112.858 6.39622 106.132ZM86.5241 95.7399V108.92C86.5241 113.061 88.9344 116.638 92.4232 118.305H46.3342V119.305H96.8501H97.606V119.305H97.6061C103.451 119.305 108.184 114.539 108.184 108.666V47.5813C108.184 44.495 110.67 41.9981 113.731 41.9981C116.933 41.9981 119.53 44.5943 119.53 47.7969V59.6209H120.53V47.7969C120.53 44.042 117.486 40.9981 113.731 40.9981C110.112 40.9981 107.184 43.9483 107.184 47.5813V108.666C107.184 113.992 102.893 118.305 97.6061 118.305H96.7781C91.6634 118.266 87.5241 114.082 87.5241 108.92V95.7399H86.5241ZM119.53 89.0228V103.286C119.53 108.188 122.478 112.401 126.698 114.25H121.667H111.715V115.25H121.667H131.493V114.25C125.438 114.25 120.53 109.341 120.53 103.286V89.0228H119.53ZM98.7399 41.9981H88.41V40.9981H98.7399V41.9981ZM29.0285 113.095C21.4731 113.095 15.3483 106.97 15.3483 99.4149H16.3483C16.3483 106.418 22.0254 112.095 29.0285 112.095H55.2787V113.095H29.0285ZM81.8592 10.9561H16.1003V9.95608H81.8592V10.9561ZM23.658 5.8864H51.3739V4.8864H23.658V5.8864ZM112.345 38.3023H93.449V37.3023H112.345V38.3023ZM94.2048 44.6946H106.802V43.6946H94.2048V44.6946ZM86.6463 124.001H21.3913V123.001H86.6463V124.001ZM6.02221 46.1876V18.305H5.02221V46.1876H6.02221ZM84.1111 48.4688V83.1935H83.1111V48.4688H84.1111ZM90.189 102.71V69.5062H89.189V102.71H90.189ZM117.5 54.0001V92.0001H116.5V54.0001H117.5ZM10.7514 100.175L10.7514 15.7716H9.75137L9.75137 100.175H10.7514ZM68.967 98.7627C69.8199 98.6737 70.4352 99.0775 70.5448 99.6474C70.5718 99.7878 70.5619 99.9555 70.5417 100.11C70.5207 100.27 70.4852 100.439 70.4473 100.593C70.4093 100.748 70.3679 100.891 70.3339 101C70.3169 101.054 70.3015 101.1 70.289 101.136L70.2887 101.137C70.2866 101.143 70.2841 101.15 70.2812 101.158C70.2789 101.164 70.2763 101.171 70.2736 101.178C70.2711 101.185 70.2684 101.191 70.2656 101.198C70.264 101.202 70.2623 101.206 70.2605 101.21C69.9523 102.024 69.5692 102.764 69.1133 103.416C69.4831 103.551 69.868 103.711 70.1961 103.966C70.586 104.269 70.8379 104.632 70.9097 105.028C70.9348 105.167 70.9371 105.305 70.918 105.44C71.017 105.357 71.1257 105.276 71.2397 105.199C71.5562 104.984 71.941 104.776 72.3436 104.59C72.4679 104.533 72.591 104.472 72.7135 104.407L72.7154 104.395C72.735 104.291 72.7957 104.193 72.8615 104.108C73.2262 103.636 73.7127 103.235 74.3629 103.145C74.464 103.132 74.6461 103.108 74.8215 103.136C74.9241 103.077 75.0278 103.02 75.1327 102.965C75.1674 102.947 75.2147 102.926 75.2687 102.917C75.3156 102.91 75.4336 102.903 75.5243 103.002C75.6121 103.098 75.599 103.212 75.5903 103.255C75.5799 103.307 75.558 103.353 75.5382 103.389L75.5285 103.406L75.5135 103.431C75.6203 103.341 75.749 103.249 75.883 103.201C75.9567 103.175 76.0474 103.156 76.1443 103.172C76.2476 103.188 76.3393 103.24 76.4089 103.323C76.499 103.431 76.5357 103.545 76.5446 103.653C76.5816 103.638 76.6214 103.629 76.6637 103.626C76.7713 103.618 76.8631 103.653 76.9319 103.693C77.056 103.766 77.1661 103.893 77.246 103.985L77.2487 103.988L77.2647 104.006L77.2649 104.006C77.3512 104.106 77.4212 104.187 77.4925 104.244C77.5666 104.303 77.5983 104.301 77.6083 104.299C77.8518 104.257 77.9579 104.254 78.0934 104.267L78.1127 104.269L78.1483 104.272C78.2477 104.282 78.3745 104.295 78.637 104.295C78.795 104.295 78.9972 104.316 79.2004 104.337H79.2005L79.2008 104.337L79.2704 104.344C79.5047 104.367 79.7461 104.389 79.969 104.389C80.1071 104.389 80.219 104.501 80.219 104.639C80.219 104.777 80.1071 104.889 79.969 104.889C79.718 104.889 79.4536 104.865 79.2204 104.841L79.1554 104.835L79.1553 104.835L79.1543 104.834C78.9428 104.813 78.7678 104.795 78.637 104.795C78.3488 104.795 78.2012 104.78 78.0991 104.77H78.099L78.075 104.767L78.0477 104.765C77.9677 104.757 77.9073 104.755 77.6934 104.792C77.4773 104.829 77.301 104.731 77.1799 104.634C77.0711 104.547 76.9716 104.432 76.8934 104.341L76.8933 104.341L76.8711 104.315C76.7959 104.229 76.7449 104.175 76.7071 104.144C76.7 104.153 76.6916 104.164 76.682 104.177C76.6721 104.19 76.6609 104.205 76.6484 104.223C76.6353 104.241 76.6191 104.264 76.6021 104.289C76.5761 104.326 76.5481 104.367 76.5254 104.398C76.5045 104.427 76.4817 104.457 76.4585 104.484C76.4379 104.508 76.4056 104.543 76.3651 104.571C76.3421 104.587 76.2119 104.674 76.0654 104.59C75.999 104.552 75.9655 104.496 75.9493 104.459C75.9332 104.421 75.9269 104.386 75.9239 104.361C75.9105 104.248 75.9335 104.142 75.9554 104.061C75.9668 104.02 75.9799 103.979 75.9915 103.942L75.9927 103.939L75.9928 103.938C76.0044 103.902 76.0144 103.871 76.0231 103.84C76.049 103.748 76.0507 103.703 76.0426 103.675C75.9892 103.696 75.9121 103.747 75.8193 103.828C75.6297 103.993 75.4511 104.215 75.4007 104.282L75.4006 104.282L75.4005 104.282C75.4003 104.282 75.3994 104.283 75.398 104.286C75.3953 104.29 75.3906 104.297 75.3836 104.309C75.3729 104.327 75.3599 104.35 75.3453 104.377C75.3161 104.43 75.2829 104.494 75.2518 104.554C75.2236 104.609 75.1978 104.661 75.1789 104.698L75.1735 104.709L75.1513 104.752L75.1467 104.761L75.1425 104.769L75.1376 104.777L75.1375 104.777C75.136 104.779 75.1303 104.788 75.122 104.799L75.1219 104.799C75.1188 104.803 75.1065 104.819 75.0873 104.835C75.0758 104.844 75.0426 104.865 75.0205 104.875C74.9797 104.888 74.8717 104.888 74.8098 104.865C74.7574 104.829 74.6968 104.744 74.6836 104.706C74.6789 104.683 74.6758 104.646 74.676 104.632C74.6772 104.608 74.6817 104.59 74.6829 104.585L74.6829 104.585C74.6861 104.572 74.6896 104.562 74.6905 104.559L74.6905 104.559L74.6939 104.55C74.6951 104.547 74.6964 104.544 74.6974 104.542L74.6994 104.537L74.6994 104.537C74.7493 104.426 74.7829 104.297 74.8019 104.162C74.6196 104.297 74.4333 104.413 74.2709 104.5C74.1851 104.546 73.924 104.647 73.6685 104.72C73.5381 104.758 73.3972 104.791 73.2711 104.807C73.2082 104.814 73.1416 104.818 73.0781 104.814C73.0618 104.812 73.0438 104.81 73.0247 104.807C72.8703 104.891 72.7133 104.97 72.553 105.044C72.1669 105.222 71.8079 105.417 71.5206 105.613C71.4428 105.665 71.372 105.717 71.3084 105.767C71.7329 105.772 72.2472 105.784 72.947 105.811L72.9678 105.811L73.0277 105.812H73.0278C73.2415 105.814 73.8332 105.821 74.4373 105.853C74.8069 105.872 75.194 105.901 75.5258 105.946C75.6916 105.968 75.8473 105.994 75.982 106.026C76.1127 106.057 76.24 106.097 76.3392 106.153L76.4295 106.203L76.4577 106.303C76.4882 106.41 76.4941 106.523 76.458 106.632C76.4215 106.742 76.3504 106.822 76.2712 106.879C76.1251 106.983 75.9303 107.02 75.7706 107.037C75.602 107.055 75.4213 107.055 75.2757 107.055C75.1131 107.054 75.0182 107.055 74.975 107.063L74.9515 107.068H74.9277H71.9899H71.9817H71.9816C71.7815 107.068 71.5208 107.068 71.2747 107.026C71.0292 106.985 70.7522 106.896 70.5624 106.679C70.4826 106.588 70.4306 106.484 70.4114 106.37C70.3417 106.439 70.2654 106.505 70.1829 106.569C69.3031 107.249 68.1139 107.362 67.1221 107.457L66.9414 107.474C65.4852 107.617 63.9549 107.603 62.5043 107.407L62.4669 107.402C62.3131 107.381 61.9514 107.333 61.6155 107.253C61.4337 107.21 61.2439 107.154 61.0945 107.08C61.0203 107.044 60.942 106.997 60.8792 106.934C60.8153 106.871 60.75 106.773 60.75 106.643C60.75 106.316 61.0092 106.164 61.1862 106.098C61.334 106.043 61.5081 106.016 61.617 105.999C61.6403 105.995 61.6606 105.992 61.677 105.989C63.1541 105.729 64.6957 105.76 66.1903 105.791C66.668 105.801 67.1409 105.81 67.6053 105.81C68.646 105.81 69.27 105.795 69.8013 105.783H69.8014L69.8021 105.783C69.961 105.779 70.1117 105.775 70.2627 105.773C70.4114 105.549 70.4556 105.326 70.4177 105.117C70.3738 104.875 70.2121 104.611 69.8896 104.361C69.5846 104.124 69.2137 103.982 68.8006 103.835C68.1727 104.623 67.4255 105.259 66.5654 105.714C66.4434 105.779 66.2921 105.732 66.2276 105.61C66.163 105.488 66.2096 105.337 66.3317 105.272C67.0783 104.877 67.7375 104.332 68.3031 103.654C68.0712 103.564 67.8375 103.461 67.6197 103.328C67.3139 103.141 67.0565 102.932 66.8654 102.663C66.6725 102.392 66.5578 102.074 66.5143 101.686C66.4602 101.203 66.6052 100.754 66.8505 100.287C67.0781 99.8542 67.3501 99.4969 67.6997 99.2349C68.0515 98.9714 68.4679 98.8148 68.967 98.7627ZM68.6244 103.24C69.09 102.598 69.4823 101.855 69.7961 101.024L69.8028 101.007L69.8062 101.001L69.8088 100.994C69.8107 100.989 69.8135 100.981 69.8174 100.97C69.8229 100.954 69.8295 100.935 69.8369 100.912C69.843 100.894 69.8497 100.873 69.8568 100.85C69.8881 100.75 69.9266 100.617 69.9618 100.474C69.9971 100.33 70.0282 100.18 70.0459 100.045C70.0644 99.9042 70.0652 99.8013 70.0538 99.7418C70.0097 99.5125 69.7109 99.1878 69.0189 99.26C68.5984 99.3039 68.2703 99.4322 67.9995 99.6351C67.7265 99.8396 67.4977 100.13 67.2931 100.52C67.0695 100.945 66.9729 101.289 67.0112 101.63C67.0467 101.948 67.1366 102.182 67.273 102.374C67.4112 102.568 67.6079 102.735 67.8802 102.901C68.1043 103.038 68.3545 103.141 68.6244 103.24ZM69.7206 106.285C69.2077 106.297 68.5896 106.31 67.6053 106.31C67.1176 106.31 66.6298 106.3 66.1432 106.291C64.6603 106.261 63.1881 106.231 61.7636 106.481C61.7331 106.487 61.7023 106.492 61.6716 106.497L61.6708 106.497C61.563 106.514 61.456 106.531 61.3605 106.567C61.3188 106.582 61.2913 106.597 61.2741 106.61C61.2851 106.616 61.2985 106.624 61.3145 106.631C61.4136 106.68 61.5605 106.726 61.7314 106.767C62.0405 106.84 62.3772 106.885 62.5328 106.906H62.5328L62.533 106.906L62.5715 106.911C63.9804 107.102 65.4717 107.116 66.8928 106.977L67.0323 106.963C67.9951 106.87 68.9753 106.775 69.7206 106.285ZM70.9033 106.265L70.9032 106.273C70.9035 106.292 70.9088 106.316 70.9383 106.349C71.0146 106.436 71.1525 106.499 71.3578 106.533C71.5591 106.567 71.7813 106.568 71.9899 106.568H74.9072C75.0019 106.554 75.1314 106.554 75.2458 106.555L75.277 106.555C75.4262 106.555 75.5802 106.555 75.7175 106.54C75.7806 106.533 75.8318 106.524 75.8725 106.514L75.8664 106.513C75.7537 106.486 75.6158 106.462 75.4594 106.441C75.1468 106.399 74.7749 106.371 74.4111 106.352C73.8339 106.322 73.3083 106.315 73.063 106.312C72.9948 106.311 72.9483 106.311 72.9284 106.31C71.9949 106.275 71.3969 106.265 70.9033 106.265ZM37.5513 24.2879V24.7879H38.0513H38.9243H39.4243V24.2879V19.3136L43.3532 24.5866L43.5032 24.7879H43.7542H44.4571H44.9571V24.2879V16.2467V15.7467H44.4571H43.5955H43.0955V16.2467V21.2058L39.1778 15.948L39.0279 15.7467H38.7769H38.0513H37.5513V16.2467V24.2879ZM38.9243 17.9557V18.6425V23.7879V24.2879H38.5513H38.4243H38.0513V23.7879V17.4709V16.9557V16.7467V16.2467H38.5513H38.7769L39.3052 16.9557L39.4243 17.1156L43.0955 22.0426L43.5955 22.7137V22.5789V21.8768V16.7467V16.2467H43.9571H44.0955H44.4571V16.7467V23.0333V23.5789V23.7879V24.2879H43.9571H43.7542L43.2259 23.5789L43.0955 23.4038L39.4243 18.4768L38.9243 17.8057V17.9557ZM45.9439 24.2879V24.7879H46.4439H49.1423C50.0677 24.7879 50.8836 24.6262 51.5687 24.2772L51.5709 24.2761C52.2666 23.9174 52.799 23.387 53.1569 22.6944C53.5206 22.005 53.6898 21.187 53.6898 20.2616C53.6898 19.337 53.5209 18.522 53.1563 17.839C52.7985 17.1471 52.2659 16.6203 51.5699 16.2694C50.8843 15.9123 50.0679 15.7467 49.1423 15.7467H46.4439H45.9439V16.2467V24.2879ZM49.1423 16.2467C50.0115 16.2467 50.7447 16.4026 51.3418 16.7143C51.9465 17.0185 52.4038 17.4709 52.7137 18.0716C53.0311 18.6648 53.1898 19.3947 53.1898 20.2616C53.1898 21.1284 53.0311 21.8622 52.7137 22.4629C52.4038 23.0636 51.9465 23.5199 51.3418 23.8316C50.7447 24.1358 50.0115 24.2879 49.1423 24.2879H46.9439H46.4439V23.7879V16.7467V16.2467H46.9439H49.1423ZM49.0742 17.0451C50.1173 17.0451 50.8996 17.3151 51.4212 17.8549C51.9427 18.3872 52.2035 19.1894 52.2035 20.2616C52.2035 21.3337 51.9427 22.1398 51.4212 22.6796C50.9072 23.2195 50.1249 23.4895 49.0742 23.4895H47.8736H47.3736V22.9895V17.5451V17.0451H47.8736H49.0742ZM49.0742 22.9895H47.8736V17.5451H49.0742C50.0358 17.5451 50.6661 17.793 51.0615 18.2023L51.064 18.2049C51.4604 18.6094 51.7035 19.2628 51.7035 20.2616C51.7035 21.2598 51.4606 21.9191 51.0615 22.3323L51.059 22.3349C50.6727 22.7407 50.0452 22.9895 49.0742 22.9895ZM53.4969 24.0871L53.1896 24.7879H53.9548H54.9185H55.2492L55.3786 24.4836L56.1224 22.7348H59.6243L60.3775 24.4855L60.5076 24.7879H60.8368H61.8005H62.5657L62.2584 24.0871L58.7324 16.0459L58.6012 15.7467H58.2745H57.4808H57.1541L57.0229 16.0459L53.4969 24.0871ZM55.6275 22.6207L55.579 22.7348L54.9185 24.2879H54.5007H53.9548L54.174 23.7879L57.4808 16.2467H58.2745L61.5813 23.7879L61.8005 24.2879H61.2545H60.8368L60.1686 22.7348L60.1108 22.6005L59.9535 22.2348H59.7239H59.4091H56.335H56.017H55.7917L55.6275 22.6207ZM59.5478 21.27L59.6228 21.4478H59.0801H59.0705H56.6752H56.6697H56.1457L56.0409 21.6645L56.1347 21.4425L56.1457 21.4164L56.207 21.2713L56.3436 20.9478L57.6063 17.9575L57.8614 17.3533L57.8663 17.3417H57.889L57.8939 17.3533L58.149 17.9575L59.4117 20.9478L59.5478 21.27ZM58.8312 20.8915L58.8554 20.9478H56.8863L57.8776 18.6002L58.8492 20.9011L58.8312 20.8915Z" fill="white"/>
</svg>
