<svg width="230" height="124" viewBox="0 0 230 124" fill="none" xmlns="http://www.w3.org/2000/svg">
<path fill-rule="evenodd" clip-rule="evenodd" d="M142.502 1.00003L127.668 1V0H145.164H146.217C149.402 0 151.979 2.5968 151.979 5.7938V7.11725V7.61725H151.479H142.796V6.61725H150.979V5.7938C150.979 3.14343 148.844 1 146.217 1H146.085V1.00003C142.804 1.00003 140.139 3.67674 140.139 6.98494V40.7937H159.816V41.7937H140.139V47.8795H139.139V6.98494C139.139 4.447 140.486 2.22322 142.502 1.00003ZM139.139 108.229V74.8952H140.139V108.229C140.139 113.632 144.472 118.012 149.826 118.051H150.69C156.223 118.051 160.714 113.538 160.714 107.964V44.1736C160.714 41.6968 162.021 39.525 163.982 38.321H148.49V37.321H167.529C171.437 37.321 174.606 40.4898 174.606 44.3987V56.7463H173.606V44.3987C173.606 41.0421 170.885 38.321 167.529 38.321C164.32 38.321 161.714 40.9385 161.714 44.1736V107.964C161.714 114.085 156.781 119.051 150.69 119.051H150.69V119.052H149.9H97.1471V118.052H145.376C141.692 116.333 139.139 112.579 139.139 108.229ZM55.4183 84.6714V105.317C55.4183 112.353 61.0872 118.052 68.0737 118.052H73.8621V119.052H68.0737C60.5292 119.052 54.4183 112.9 54.4183 105.317V84.6714H55.4183ZM173.606 102.345V87.4504H174.606V102.345C174.606 108.681 179.742 113.816 186.078 113.816V114.816H175.816H165.424V113.816H175.816H181.176C176.725 111.912 173.606 107.493 173.606 102.345ZM64.8112 98.3027C64.8112 106.18 71.1974 112.567 79.0751 112.567H106.488V111.567H79.0751C71.7496 111.567 65.8112 105.628 65.8112 98.3027H64.8112ZM55.2904 14.574C55.2904 6.99146 61.4013 0.839495 68.9458 0.839495H79.5674V1.8395H68.9458C61.9592 1.8395 56.2904 7.53808 56.2904 14.574V27.9024H55.2904V14.574ZM65.5743 5.92641H134.245V4.92641H65.5743V5.92641ZM71.0997 123.978H139.245V122.978H71.0997V123.978ZM136.597 45.1005V81.363H135.597V45.1005H136.597ZM171.442 90.5595V50.8767H170.442V90.5595H171.442ZM59.9663 10.9552L59.9663 99.0969H58.9663L58.9663 10.9552H59.9663ZM82.7224 25.7252V26.2252H83.2224H84.5276H85.0276V25.7252V17.1826L91.3416 26.0159L91.4912 26.2252H91.7484H92.7993H93.2993V25.7252V13.1937V12.6937H92.7993H91.5111H91.0111V13.1937V21.7126L84.714 12.903L84.5644 12.6937H84.3072H83.2224H82.7224V13.1937V25.7252ZM84.5276 15.6233V16.4831V25.2252V25.7252H84.0276H83.7224H83.2224V25.2252V14.6572V14.5779V13.6937V13.1937H83.7224H84.3072L91.0111 22.5724L91.5111 23.2719V22.4121V13.6937V13.1937H92.0111H92.2993H92.7993V13.6937V24.2143V24.341V25.2252V25.7252H92.2993H91.7484L85.0276 16.3228L84.5276 15.6233ZM95.2696 25.7252V26.2252H95.7696H99.8037C101.162 26.2252 102.344 25.9775 103.327 25.4558L103.329 25.4546C104.325 24.919 105.082 24.1316 105.59 23.1052C106.108 22.0822 106.355 20.8573 106.355 19.4506C106.355 18.0448 106.108 16.8249 105.59 15.8126C105.081 14.787 104.325 14.0052 103.328 13.4815C102.345 12.9474 101.162 12.6937 99.8037 12.6937H95.7696H95.2696V13.1937V25.7252ZM103.092 13.9225C103.996 14.3965 104.68 15.1016 105.143 16.0377C105.618 16.962 105.855 18.0996 105.855 19.4506C105.855 20.8015 105.618 21.945 105.143 22.8811C104.68 23.8173 103.996 24.5283 103.092 25.0142C102.199 25.4882 101.103 25.7252 99.8037 25.7252H96.2696H95.7696V25.2252V13.6937V13.1937H96.2696H99.8037C101.103 13.1937 102.199 13.4367 103.092 13.9225ZM102.844 22.879L102.842 22.8817C102.2 23.5846 101.187 23.9809 99.702 23.9809H97.6595V14.938H99.702C101.174 14.938 102.189 15.3333 102.844 16.0399L102.846 16.0425C103.506 16.7438 103.88 17.8482 103.88 19.4506C103.88 21.0523 103.506 22.1647 102.844 22.879ZM97.1595 24.4809H97.6595H99.702C101.273 24.4809 102.442 24.0602 103.211 23.2189C103.99 22.3775 104.38 21.1214 104.38 19.4506C104.38 17.7797 103.99 16.5295 103.211 15.7C102.431 14.8587 101.261 14.438 99.702 14.438H97.6595H97.1595V14.938V23.9809V24.4809ZM106.538 25.5313L106.246 26.2252H106.999H108.439H108.775L108.902 25.914L110.081 23.0256H115.632L116.825 25.9159L116.953 26.2252H117.287H118.728H119.481L119.189 25.5313L113.917 12.9998L113.789 12.6937H113.457H112.27H111.938L111.809 12.9998L106.538 25.5313ZM108.439 25.7252L109.541 23.0256L109.6 22.8792L109.745 22.5256H110.098H110.285H115.426H115.607H115.967L116.118 22.891L116.173 23.0256L117.287 25.7252H118.186H118.728L118.518 25.2252L113.457 13.1937H112.27L107.209 25.2252L106.999 25.7252H107.541H108.439ZM115.27 20.7992L115.472 21.2992H115.3H114.933H114.92H110.794H110.785H110.429H110.274L110.223 21.4099L110.117 21.6369L110.206 21.4191L110.257 21.2914L110.274 21.2503L110.457 20.7992L112.594 15.5242L112.84 14.9166L112.846 14.9001H112.88L112.887 14.9166L113.133 15.5241L115.27 20.7992ZM112.863 16.19L114.73 20.7992H110.996L112.863 16.19Z" fill="white"/>
<path d="M120.449 105.493C121.326 105.029 122.084 104.367 122.714 103.538M122.714 103.538C123.244 102.842 123.685 102.027 124.03 101.113C124.06 101.06 124.376 100.094 124.299 99.6945C124.222 99.2949 123.765 98.9307 122.993 99.0113C122.073 99.1073 121.504 99.581 121.072 100.404C120.837 100.85 120.717 101.246 120.763 101.658C120.842 102.363 121.172 102.762 121.75 103.115C122.046 103.296 122.379 103.419 122.714 103.538ZM122.714 103.538C123.184 103.706 123.658 103.865 124.043 104.163C124.755 104.716 124.87 105.417 124.391 106.02M124.391 106.02C124.295 106.142 124.174 106.259 124.03 106.371C123.165 107.039 121.968 107.123 120.917 107.226C119.478 107.366 117.968 107.352 116.538 107.159C116.283 107.124 115 106.968 115 106.643C115 106.318 115.489 106.276 115.72 106.235C117.641 105.897 119.66 106.06 121.605 106.06C123.046 106.06 123.695 106.032 124.391 106.02ZM124.391 106.02C124.503 106.018 124.615 106.017 124.732 106.016M124.732 106.016C125.264 106.012 125.892 106.021 126.938 106.06C127.079 106.066 129.667 106.063 130.217 106.371C130.38 106.946 129.222 106.761 128.928 106.818H125.99C125.58 106.818 125.017 106.818 124.75 106.514C124.621 106.366 124.627 106.196 124.732 106.016ZM124.732 106.016C124.961 105.623 125.66 105.181 126.448 104.817C126.635 104.731 126.817 104.637 126.997 104.537M126.997 104.537C127.63 104.186 128.234 103.766 128.861 103.401M126.997 104.537C127.188 104.66 128.028 104.347 128.153 104.28C128.436 104.128 128.792 103.886 129.056 103.612M126.997 104.537C126.936 104.497 126.942 104.413 127.059 104.261C127.402 103.817 127.836 103.47 128.397 103.393C128.528 103.375 128.718 103.355 128.861 103.401M128.861 103.401C128.99 103.327 129.119 103.255 129.249 103.186C129.342 103.137 129.375 103.169 129.32 103.267C129.254 103.385 129.162 103.501 129.056 103.612M128.861 103.401C128.959 103.433 129.035 103.496 129.056 103.612M129.056 103.612C129.057 103.621 129.059 103.63 129.06 103.639C129.092 103.962 129.061 104.34 128.928 104.639C128.903 104.695 129.133 104.222 129.201 104.131C129.311 103.985 129.964 103.181 130.217 103.484C130.432 103.74 130.142 104.076 130.172 104.332C130.194 104.515 130.425 104.064 130.558 103.937C130.891 103.62 131.199 104.624 131.651 104.545C132.108 104.466 131.984 104.545 132.637 104.545C132.957 104.545 133.495 104.639 133.969 104.639" stroke="white" stroke-width="0.5" stroke-linecap="round"/>
</svg>
